<?xml version='1.0' encoding='utf-8'?>
<svg xmlns="http://www.w3.org/2000/svg" xmlns:inkscape="http://www.inkscape.org/namespaces/inkscape" xmlns:xlink="http://www.w3.org/1999/xlink" version="1.1" width="842" height="595" viewBox="0 0 842 595" style="background-color: white">
<defs>
<clipPath id="clip_1">
<path transform="matrix(-.06,0,0,.06,842,0)" d="M3178 2142H10098V7738H3178V2142" />
</clipPath>
<clipPath id="clip_2">
<path transform="matrix(-.06,0,0,.06,842,0)" d="M0 0H14031V9921H0V0" />
</clipPath>
<clipPath id="clip_3">
<path transform="matrix(-.06,0,0,.06,842,0)" d="M0 0H14031V9921H0V0" />
</clipPath>
<path id="font_4_21" d="M.50341799 .084472659V0H.030273438C.029622397 .021148682 .033040365 .041483564 .040527345 .06100464 .052571615 .09321085 .07185873 .124928798 .09838867 .15615845 .12491862 .1873881 .1632487 .22350057 .2133789 .26449586 .29117839 .3282369 .34375 .37872825 .37109376 .41596986 .3984375 .45321147 .41210938 .48841859 .41210938 .5215912 .41210938 .5563914 .3996582 .5857442 .37475587 .60964968 .34985353 .6335551 .3173828 .6455078 .27734376 .6455078 .23502605 .6455078 .20117188 .6328125 .17578125 .6074219 .15039063 .58203127 .13753255 .546875 .13720703 .5019531L.046875 .5112457C.053059896 .5787811 .07633463 .630249 .11669922 .6656494 .1570638 .7010498 .21126302 .71875 .27929688 .71875 .34798179 .71875 .40234376 .69970199 .4423828 .66160586 .48242188 .6235097 .5024414 .57629397 .5024414 .5199585 .5024414 .4913025 .49658204 .46313478 .48486329 .43545533 .47314454 .40777589 .45369468 .3786316 .42651368 .34802247 .39933268 .3174235 .35416667 .27542115 .29101563 .22201538 .23828125 .17779541 .20442708 .14779663 .18945313 .13201905 .17447917 .116251628 .16210938 .10040283 .15234375 .084472659H.50341799Z" />
<path id="font_4_17" d="M.09082031 0V.10058594H.19091797V0H.09082031Z" />
<path id="font_4_26" d="M.04736328 .6225586V.70703127H.5107422V.6386719C.46516929 .5901286 .42000328 .5256246 .37524415 .4451599 .33048503 .36469523 .29589845 .2819519 .27148438 .19692993 .25390626 .13698323 .24267578 .07133993 .23779297 0H.14746094C.1484375 .056355794 .1595052 .12444051 .18066406 .20425415 .20182292 .28407798 .23217774 .3610433 .27172853 .43515016 .3112793 .50926718 .35335288 .57173666 .39794923 .6225586H.04736328Z" />
<path id="font_4_24" d="M.041503908 .18847656 .13378906 .19628906C.140625 .15151978 .15649414 .117863979 .18139649 .095321658 .20629883 .07278951 .23632813 .061523439 .27148438 .061523439 .3138021 .061523439 .34960938 .077448528 .37890626 .109298709 .40820313 .14115906 .42285157 .18341573 .42285157 .23606873 .42285157 .28612773 .4087728 .32562257 .38061524 .35455323 .35245768 .3834839 .31559245 .39794923 .27001954 .39794923 .24169922 .39794923 .21614583 .39156596 .19335938 .37879945 .17057292 .36603294 .15266927 .34946696 .13964844 .32910157L.057128908 .33984376 .12646485 .70703127H.48242188V.62402346H.19677735L.15820313 .43115235C.20117188 .46077476 .24625652 .47558595 .29345704 .47558595 .35595704 .47558595 .4086914 .45391337 .45166017 .41056825 .4946289 .36723329 .5161133 .31151835 .5161133 .24342346 .5161133 .17857361 .49723307 .122528079 .45947267 .075286868 .41357423 .017283122 .35091148-.01171875 .27148438-.01171875 .2063802-.01171875 .15323894 .006556193 .11206055 .04310608 .070882167 .07965597 .04736328 .1281128 .041503908 .18847656Z" />
<path id="font_4_28" d="M.0546875 .16694641 .13916016 .17480469C.14632161 .13509114 .15999349 .106282558 .18017578 .088378909 .20035808 .07047526 .22623699 .061523439 .2578125 .061523439 .28483073 .061523439 .30851237 .067708339 .32885743 .080078128 .34920249 .092447917 .3658854 .1089681 .37890626 .12963867 .3919271 .15030925 .40283204 .17822266 .4116211 .2133789 .42041017 .24853516 .4248047 .28434245 .4248047 .32080079 .4248047 .32470704 .42464195 .3305664 .4243164 .3383789 .40673829 .31038413 .3827311 .28767906 .35229493 .27026368 .32185874 .2528483 .28889976 .24414063 .25341798 .24414063 .19417317 .24414063 .14404297 .26555888 .103027347 .3083954 .06201172 .3512319 .041503908 .40769959 .041503908 .47779847 .041503908 .55016586 .0629069 .6084137 .10571289 .6525421 .14851888 .6966807 .20214844 .71875 .26660157 .71875 .31315104 .71875 .3557129 .70622256 .3942871 .6811676 .43286134 .65612289 .4621582 .62042239 .48217774 .57406619 .50219729 .52770999 .51220706 .46061708 .51220706 .37278749 .51220706 .28137718 .5022786 .20858765 .48242188 .15441895 .4625651 .100260417 .43302409 .05903117 .39379884 .030731202 .35457359 .0024312337 .30859376-.01171875 .25585938-.01171875 .1998698-.01171875 .15413411 .00390625 .118652347 .03515625 .08317057 .06640625 .061848958 .1103363 .0546875 .16694641M.41455079 .48194886C.41455079 .5320994 .40112306 .57189437 .37426759 .6013336 .3474121 .6307831 .31510417 .6455078 .27734376 .6455078 .23828125 .6455078 .20426433 .62965396 .17529297 .59794619 .14632161 .5662384 .13183594 .5251465 .13183594 .4746704 .13183594 .42936198 .14558919 .3925527 .1730957 .36424256 .20060222 .3359324 .23453777 .32177735 .27490235 .32177735 .31559245 .32177735 .3490397 .3359324 .37524415 .36424256 .40144859 .3925527 .41455079 .43178813 .41455079 .48194886Z" />
<clipPath id="clip_5">
<path transform="matrix(-.06,0,0,.06,842,0)" d="M0 0H14031V9921H0V0" />
</clipPath>
<path id="font_4_19" d="M.041503908 .35327149C.041503908 .43784587 .05021159 .50591537 .06762695 .55747988 .08504232 .6090444 .11092123 .6488139 .14526367 .67678835 .17960613 .70476278 .22281902 .71875 .27490235 .71875 .3133138 .71875 .34700523 .711024 .37597657 .6955719 .4049479 .6801198 .4288737 .6578369 .4477539 .62872317 .46663413 .5996094 .4814453 .56414797 .4921875 .52233889 .5029297 .48053996 .5083008 .42418418 .5083008 .35327149 .5083008 .26934815 .49967448 .2016042 .48242188 .15003968 .46516929 .098475139 .43937174 .058624269 .4050293 .03048706 .37068687 .0023498536 .3273112-.01171875 .27490235-.01171875 .20589192-.01171875 .1516927 .013005574 .11230469 .062454225 .065104167 .12198385 .041503908 .21892293 .041503908 .35327149M.13183594 .35351563C.13183594 .23639934 .14558919 .15845235 .1730957 .11967468 .20060222 .08090719 .23453777 .061523439 .27490235 .061523439 .31526695 .061523439 .34920249 .08098856 .37670899 .11991882 .40421549 .15884908 .41796876 .23671468 .41796876 .35351563 .41796876 .47095744 .40421549 .5489807 .37670899 .58758547 .34920249 .6262004 .3149414 .6455078 .27392579 .6455078 .2335612 .6455078 .20133464 .62847396 .1772461 .5944061 .14697266 .5509288 .13183594 .47063194 .13183594 .35351563Z" />
<path id="font_4_23" d="M.3232422 0V.17138672H.0126953129V.25195313L.33935548 .7158203H.4111328V.25195313H.5078125V.17138672H.4111328V0H.3232422M.3232422 .25195313V.57470706L.099121097 .25195313H.3232422Z" />
<path id="font_4_22" d="M.041992189 .19042969 .12988281 .20214844C.13997396 .15234375 .15714519 .11645508 .18139649 .09448242 .20564778 .072509769 .2351888 .061523439 .27001954 .061523439 .3113607 .061523439 .3462728 .07582092 .37475587 .10441589 .40323893 .13301087 .41748048 .1684316 .41748048 .2106781 .41748048 .25098167 .40429688 .2842102 .3779297 .31036378 .3515625 .3365275 .31803385 .34960938 .27734376 .34960938 .2607422 .34960938 .24007161 .34635417 .21533203 .33984376L.22509766 .4169922C.23095703 .41634117 .23567708 .41601563 .23925781 .41601563 .27669273 .41601563 .31038413 .42569987 .34033204 .44506837 .37027995 .46443687 .3852539 .4942932 .3852539 .53463748 .3852539 .56658938 .37434898 .59305319 .35253907 .61402896 .33072917 .63501486 .30257163 .6455078 .2680664 .6455078 .23388672 .6455078 .20540364 .6347656 .18261719 .61328127 .15983074 .5917969 .1451823 .5595703 .13867188 .51660159L.05078125 .53222659C.061523439 .591451 .0859375 .63734439 .12402344 .6699066 .16210938 .7024689 .20947266 .71875 .26611329 .71875 .30517579 .71875 .34114585 .71039327 .37402345 .6936798 .40690104 .67696639 .43204753 .6541646 .4494629 .62527468 .46687828 .59639486 .47558595 .5657247 .47558595 .53326418 .47558595 .5024312 .46728517 .47435508 .4506836 .44903565 .43408204 .4237264 .40950523 .40360514 .37695313 .38867188 .41927085 .37890626 .45214845 .35864259 .47558595 .32788087 .49902345 .29711915 .5107422 .2586263 .5107422 .21240235 .5107422 .14990235 .48795573 .09692383 .4423828 .053466798 .3968099 .010009766 .33919273-.01171875 .26953126-.01171875 .20670574-.01171875 .15454102 .007044474 .11303711 .044570924 .0715332 .082097377 .047851564 .13071697 .041992189 .19042969Z" />
<path id="font_4_27" d="M.17675781 .38916017C.14029949 .40246583 .11328125 .42145286 .095703128 .44612123 .078125 .47078959 .06933594 .5003255 .06933594 .534729 .06933594 .5866597 .08805338 .63031008 .12548828 .66567996 .16292317 .70106 .21272786 .71875 .27490235 .71875 .33740235 .71875 .3876953 .7006531 .42578126 .6644592 .4638672 .6282756 .48291017 .5842183 .48291017 .5322876 .48291017 .4991862 .47420249 .4703827 .4567871 .44587709 .43937174 .42137147 .4129232 .40246583 .3774414 .38916017 .42138673 .3748169 .45483399 .3516744 .4777832 .31973268 .5007324 .28780113 .51220706 .24966939 .51220706 .20533753 .51220706 .1440684 .4905599 .09257507 .44726563 .050857545 .40397135 .009140015 .34700523-.01171875 .2763672-.01171875 .20572917-.01171875 .14876302 .009221395 .10546875 .051101686 .06217448 .09298197 .040527345 .14521282 .040527345 .20779419 .040527345 .25439454 .052327474 .29342143 .075927738 .32487489 .09952799 .35632835 .13313802 .37775675 .17675781 .38916017M.15917969 .53707888C.15917969 .5035197 .17008464 .47608949 .19189453 .4547882 .21370442 .4334971 .24202474 .42285157 .27685548 .42285157 .31070964 .42285157 .3384603 .4334208 .36010743 .45455934 .38175456 .47569786 .39257813 .501592 .39257813 .5322418 .39257813 .5641937 .38142906 .5910594 .35913087 .61283877 .33683268 .6346181 .30908204 .6455078 .2758789 .6455078 .24235027 .6455078 .21451824 .6348572 .19238281 .6135559 .17024739 .59226486 .15917969 .56677249 .15917969 .53707888M.13085938 .20776367C.13085938 .18273926 .13680013 .15852864 .14868164 .13513184 .16056316 .11173502 .17822266 .09361776 .20166016 .08078003 .22509766 .0679423 .25032554 .061523439 .27734376 .061523439 .31933595 .061523439 .3540039 .07500712 .38134767 .10197449 .4086914 .12895203 .42236329 .16323853 .42236329 .20483399 .42236329 .24708049 .40828453 .28201295 .38012696 .30963136 .3519694 .33725993 .31673179 .35107423 .27441407 .35107423 .23307292 .35107423 .19881185 .3374227 .17163086 .31011964 .14444988 .28282676 .13085938 .24870809 .13085938 .20776367Z" />
<path id="font_4_25" d="M.4975586 .5400543 .41015626 .5332031C.40234376 .5675557 .39127604 .59251406 .37695313 .608078 .3531901 .6330312 .32389323 .6455078 .2890625 .6455078 .26106773 .6455078 .23649089 .637736 .21533203 .6221924 .18766277 .602122 .16585286 .57282 .14990235 .5342865 .13395183 .49575297 .12565105 .4408671 .125 .3696289 .14615886 .40185548 .17203777 .42578126 .20263672 .44140626 .23323567 .45703126 .26529948 .46484376 .29882813 .46484376 .35742188 .46484376 .40730796 .44327799 .44848634 .40014649 .4896647 .35701499 .5102539 .30126954 .5102539 .23291016 .5102539 .18798828 .50056967 .14624024 .48120118 .107666019 .46183268 .0690918 .43522135 .03955078 .4013672 .019042969 .36751304-.0014648438 .32910157-.01171875 .2861328-.01171875 .21289063-.01171875 .15315755 .015197754 .106933597 .06903076 .060709638 .12287394 .037597658 .2116038 .037597658 .33522035 .037597658 .47347514 .06315104 .57399496 .11425781 .6367798 .15885417 .6914266 .21891277 .71875 .2944336 .71875 .3507487 .71875 .39689128 .70292159 .43286134 .67126467 .4688314 .6396077 .49039714 .595871 .4975586 .5400543M.13867188 .23287964C.13867188 .20269776 .1451009 .17381287 .15795899 .14622498 .17081706 .118637088 .18880208 .09762064 .21191406 .08317566 .23502605 .068740848 .25927735 .061523439 .28466798 .061523439 .32177735 .061523439 .35367839 .07645162 .3803711 .10630798 .4070638 .13616435 .42041017 .17673238 .42041017 .22801209 .42041017 .27734886 .40722657 .31621299 .38085938 .3446045 .3544922 .3730062 .32128907 .38720704 .28125 .38720704 .24153646 .38720704 .20784505 .3730062 .18017578 .3446045 .15250652 .31621299 .13867188 .27897135 .13867188 .23287964Z" />
<path id="font_4_20" d="M.3725586 0H.28466798V.5600586C.26350913 .5398763 .23575847 .51969406 .20141602 .49951173 .16707357 .47932945 .13623047 .46419273 .10888672 .45410157V.5390625C.15804036 .5621745 .20100911 .59016928 .23779297 .6230469 .2745768 .6559245 .3006185 .6878255 .31591798 .71875H.3725586V0Z" />
<path id="font_4_91" d="M.0073242189 0 .19677735 .26953126 .021484375 .5185547H.13134766L.2109375 .39697267C.22591146 .3738607 .23795574 .3544922 .24707031 .3388672 .26139323 .36035157 .2745768 .37939454 .2866211 .3959961L.37402345 .5185547H.4790039L.2998047 .27441407 .49267579 0H.38476563L.2783203 .16113281 .25 .20458985 .11376953 0H.0073242189Z" />
<path id="font_4_3" d="" />
<path id="font_4_48" d="M.07421875 0V.7158203H.21679688L.38623048 .20898438C.40185548 .16178386 .4132487 .12646485 .42041017 .103027347 .4285482 .12906902 .4412435 .1673177 .4584961 .21777344L.6298828 .7158203H.7573242V0H.6660156V.5991211L.4580078 0H.3725586L.16552735 .609375V0H.07421875Z" />
<path id="font_4_43" d="M.080078128 0V.7158203H.17480469V.421875H.546875V.7158203H.64160159V0H.546875V.33740235H.17480469V0H.080078128Z" />
<path id="font_4_18" d="M0-.01171875 .20751953 .72753909H.27783204L.07080078-.01171875H0Z" />
<path id="font_4_145" d="M.61035159 .6508789 .6923828 .74316409 .74072268 .70214846 .65478518 .60498049C.68277999 .5633138 .70166018 .52685549 .7114258 .49560548 .7244466 .45458985 .73095706 .4086914 .73095706 .35791017 .73095706 .28466798 .7161458 .21940105 .68652346 .16210938 .65690109 .10481771 .61531576 .061523439 .5617676 .032226564 .5082194 .0029296876 .45133464-.01171875 .39111329-.01171875 .3461914-.01171875 .3055013-.0053710939 .26904298 .0073242189 .24104817 .017089844 .20833333 .035807294 .17089844 .06347656L.08886719-.028320313 .040527345 .0126953129 .12646485 .10888672C.094563808 .15738933 .07324219 .19881185 .0625 .2331543 .051757814 .26749674 .04638672 .3087565 .04638672 .3569336 .04638672 .4305013 .061035158 .49601237 .09033203 .5534668 .119628909 .6109212 .1607259 .65445968 .21362305 .68408206 .26652018 .7137044 .32535807 .7285156 .39013673 .7285156 .4337565 .7285156 .47192384 .7227376 .5046387 .71118167 .5373535 .6996257 .5725911 .6795247 .61035159 .6508789M.5517578 .5853424C.5211589 .6094716 .49438478 .62593588 .47143556 .6347351 .44848634 .6435445 .42154948 .6479492 .390625 .6479492 .31933595 .6479492 .26041667 .6237335 .21386719 .5753021 .1673177 .5268707 .14404297 .45455424 .14404297 .35835267 .14404297 .32052104 .1476237 .28693138 .15478516 .25758363 .15999349 .23573303 .17089844 .2088267 .1875 .17686463L.5517578 .5853424M.5917969 .53504946 .2290039 .1280365C.254069 .107488 .277181 .09313965 .29833985 .084991458 .32600913 .07422892 .35595704 .068847659 .3881836 .068847659 .45914714 .068847659 .5177409 .093958538 .56396487 .1441803 .6101888 .19440206 .6333008 .2648468 .6333008 .35551454 .6333008 .42334495 .6194661 .4831899 .5917969 .53504946Z" />
</defs>
<g clip-path="url(#clip_1)">
<g inkscape:groupmode="layer" inkscape:label="Visible">
<path transform="matrix(-.06,0,0,.06,842,0)" stroke-width="17" stroke-linecap="round" stroke-linejoin="round" fill="none" stroke="#000000" d="M9572.5 3021C9638.498 3021 9692 3074.502 9692 3140.5 9692 3206.498 9638.498 3260 9572.5 3260 9506.502 3260 9453 3206.498 9453 3140.5 9453 3074.502 9506.502 3021 9572.5 3021" />
<path transform="matrix(-.06,0,0,.06,842,0)" stroke-width="17" stroke-linecap="round" stroke-linejoin="round" fill="none" stroke="#000000" d="M9572.5 5661C9638.498 5661 9692 5714.502 9692 5780.5 9692 5846.498 9638.498 5900 9572.5 5900 9506.502 5900 9453 5846.498 9453 5780.5 9453 5714.502 9506.502 5661 9572.5 5661" />
<path transform="matrix(-.06,0,0,.06,842,0)" stroke-width="17" stroke-linecap="round" stroke-linejoin="round" fill="none" stroke="#000000" d="M4650.5 2541C4716.498 2541 4770 2594.502 4770 2660.5 4770 2726.498 4716.498 2780 4650.5 2780 4584.502 2780 4531 2726.498 4531 2660.5 4531 2594.502 4584.502 2541 4650.5 2541" />
<path transform="matrix(-.06,0,0,.06,842,0)" stroke-width="17" stroke-linecap="round" stroke-linejoin="round" fill="none" stroke="#000000" d="M5004.5 4978C5088.1716 4978 5156 5045.8288 5156 5129.5 5156 5213.1716 5088.1716 5281 5004.5 5281 4920.8288 5281 4853 5213.1716 4853 5129.5 4853 5045.8288 4920.8288 4978 5004.5 4978" />
<path transform="matrix(-.06,0,0,.06,842,0)" stroke-width="17" stroke-linecap="round" stroke-linejoin="round" fill="none" stroke="#000000" d="M7367.5 4978C7451.1716 4978 7519 5045.8288 7519 5129.5 7519 5213.1716 7451.1716 5281 7367.5 5281 7283.8288 5281 7216 5213.1716 7216 5129.5 7216 5045.8288 7283.8288 4978 7367.5 4978" />
<path transform="matrix(-.06,0,0,.06,842,0)" stroke-width="17" stroke-linecap="round" stroke-linejoin="round" fill="none" stroke="#000000" d="M9946 2294V7586H3330V2294H9946" />
</g>
<g inkscape:groupmode="layer" inkscape:label="Visible Narrow">
<path transform="matrix(-.0590892,.0104166,.0104166,.0590892,267.65003,188.43)" stroke-width="9" stroke-linecap="round" stroke-linejoin="round" fill="none" stroke="#000000" d="M145.5 0C145.5 80.35744 80.35744 145.5 0 145.5-80.35744 145.5-145.5 80.35744-145.5 0-145.5-80.35744-80.35744-145.5 0-145.5" />
<path transform="matrix(-.0590892,.0104166,.0104166,.0590892,267.65003,346.83)" stroke-width="9" stroke-linecap="round" stroke-linejoin="round" fill="none" stroke="#000000" d="M145.5 0C145.5 80.35744 80.35744 145.5 0 145.5-80.35744 145.5-145.5 80.35744-145.5 0-145.5-80.35744-80.35744-145.5 0-145.5" />
<path transform="matrix(-.0590892,.0104166,.0104166,.0590892,562.97,159.62999)" stroke-width="9" stroke-linecap="round" stroke-linejoin="round" fill="none" stroke="#000000" d="M145.5 0C145.5 80.35744 80.35744 145.5 0 145.5-80.35744 145.5-145.5 80.35744-145.5 0-145.5-80.35744-80.35744-145.5 0-145.5" />
</g>
</g>
<g clip-path="url(#clip_2)">
<g inkscape:groupmode="layer" inkscape:label="BORDER">
<path transform="matrix(-.06,0,0,.06,842,0)" stroke-width="9" stroke-linecap="round" stroke-linejoin="round" fill="none" stroke="#000000" d="M944 9448V472" />
<path transform="matrix(-.06,0,0,.06,842,0)" stroke-width="9" stroke-linecap="round" stroke-linejoin="round" fill="none" stroke="#000000" d="M944 472H13558V9448H944" />
<path transform="matrix(-.06,0,0,.06,842,0)" stroke-width="9" stroke-linecap="round" stroke-linejoin="round" fill="none" stroke="#000000" d="M708 4724H1181" />
<path transform="matrix(-.06,0,0,.06,842,0)" stroke-width="9" stroke-linecap="round" stroke-linejoin="round" fill="none" stroke="#000000" d="M13794 4724H13322" />
<path transform="matrix(-.06,0,0,.06,842,0)" stroke-width="9" stroke-linecap="round" stroke-linejoin="round" fill="none" stroke="#000000" d="M7015 9684V9212" />
<path transform="matrix(-.06,0,0,.06,842,0)" stroke-width="9" stroke-linecap="round" stroke-linejoin="round" fill="none" stroke="#000000" d="M7015 236V708" />
</g>
<g inkscape:groupmode="layer" inkscape:label="Smart Centers">
<path transform="matrix(-.06,0,0,.06,842,0)" stroke-width="9" stroke-linecap="round" stroke-linejoin="round" fill="none" stroke="#000000" d="M9529 5780H9613" />
<path transform="matrix(-.06,0,0,.06,842,0)" stroke-width="9" stroke-linecap="round" stroke-linejoin="round" fill="none" stroke="#000000" d="M9571 5738V5822" />
<path transform="matrix(-.06,0,0,.06,842,0)" stroke-width="9" stroke-linecap="round" stroke-linejoin="round" fill="none" stroke="#000000" d="M9260 5780H9444" />
<path transform="matrix(-.06,0,0,.06,842,0)" stroke-width="9" stroke-linecap="round" stroke-linejoin="round" fill="none" stroke="#000000" d="M9697 5780H9882" />
<path transform="matrix(-.06,0,0,.06,842,0)" stroke-width="9" stroke-linecap="round" stroke-linejoin="round" fill="none" stroke="#000000" d="M9571 5469V5654" />
<path transform="matrix(-.06,0,0,.06,842,0)" stroke-width="9" stroke-linecap="round" stroke-linejoin="round" fill="none" stroke="#000000" d="M9571 5907V6091" />
<path transform="matrix(-.06,0,0,.06,842,0)" stroke-width="9" stroke-linecap="round" stroke-linejoin="round" fill="none" stroke="#000000" d="M9529 3140H9613" />
<path transform="matrix(-.06,0,0,.06,842,0)" stroke-width="9" stroke-linecap="round" stroke-linejoin="round" fill="none" stroke="#000000" d="M9571 3098V3183" />
<path transform="matrix(-.06,0,0,.06,842,0)" stroke-width="9" stroke-linecap="round" stroke-linejoin="round" fill="none" stroke="#000000" d="M9260 3140H9444" />
<path transform="matrix(-.06,0,0,.06,842,0)" stroke-width="9" stroke-linecap="round" stroke-linejoin="round" fill="none" stroke="#000000" d="M9697 3140H9882" />
<path transform="matrix(-.06,0,0,.06,842,0)" stroke-width="9" stroke-linecap="round" stroke-linejoin="round" fill="none" stroke="#000000" d="M9571 2829V3014" />
<path transform="matrix(-.06,0,0,.06,842,0)" stroke-width="9" stroke-linecap="round" stroke-linejoin="round" fill="none" stroke="#000000" d="M9571 3267V3451" />
<path transform="matrix(-.06,0,0,.06,842,0)" stroke-width="9" stroke-linecap="round" stroke-linejoin="round" fill="none" stroke="#000000" d="M4609 2660H4693" />
<path transform="matrix(-.06,0,0,.06,842,0)" stroke-width="9" stroke-linecap="round" stroke-linejoin="round" fill="none" stroke="#000000" d="M4651 2618V2703" />
<path transform="matrix(-.06,0,0,.06,842,0)" stroke-width="9" stroke-linecap="round" stroke-linejoin="round" fill="none" stroke="#000000" d="M4340 2660H4524" />
<path transform="matrix(-.06,0,0,.06,842,0)" stroke-width="9" stroke-linecap="round" stroke-linejoin="round" fill="none" stroke="#000000" d="M4778 2660H4962" />
<path transform="matrix(-.06,0,0,.06,842,0)" stroke-width="9" stroke-linecap="round" stroke-linejoin="round" fill="none" stroke="#000000" d="M4651 2349V2534" />
<path transform="matrix(-.06,0,0,.06,842,0)" stroke-width="9" stroke-linecap="round" stroke-linejoin="round" fill="none" stroke="#000000" d="M4651 2787V2971" />
<path transform="matrix(-.06,0,0,.06,842,0)" stroke-width="9" stroke-linecap="round" stroke-linejoin="round" fill="none" stroke="#000000" d="M4962 5129H5047" />
<path transform="matrix(-.06,0,0,.06,842,0)" stroke-width="9" stroke-linecap="round" stroke-linejoin="round" fill="none" stroke="#000000" d="M5004 5087V5171" />
<path transform="matrix(-.06,0,0,.06,842,0)" stroke-width="9" stroke-linecap="round" stroke-linejoin="round" fill="none" stroke="#000000" d="M4688 5129H4878" />
<path transform="matrix(-.06,0,0,.06,842,0)" stroke-width="9" stroke-linecap="round" stroke-linejoin="round" fill="none" stroke="#000000" d="M5131 5129H5321" />
<path transform="matrix(-.06,0,0,.06,842,0)" stroke-width="9" stroke-linecap="round" stroke-linejoin="round" fill="none" stroke="#000000" d="M5004 4813V5003" />
<path transform="matrix(-.06,0,0,.06,842,0)" stroke-width="9" stroke-linecap="round" stroke-linejoin="round" fill="none" stroke="#000000" d="M5004 5256V5446" />
<path transform="matrix(-.06,0,0,.06,842,0)" stroke-width="9" stroke-linecap="round" stroke-linejoin="round" fill="none" stroke="#000000" d="M7324 5129H7409" />
<path transform="matrix(-.06,0,0,.06,842,0)" stroke-width="9" stroke-linecap="round" stroke-linejoin="round" fill="none" stroke="#000000" d="M7366 5087V5171" />
<path transform="matrix(-.06,0,0,.06,842,0)" stroke-width="9" stroke-linecap="round" stroke-linejoin="round" fill="none" stroke="#000000" d="M7050 5129H7240" />
<path transform="matrix(-.06,0,0,.06,842,0)" stroke-width="9" stroke-linecap="round" stroke-linejoin="round" fill="none" stroke="#000000" d="M7493 5129H7683" />
<path transform="matrix(-.06,0,0,.06,842,0)" stroke-width="9" stroke-linecap="round" stroke-linejoin="round" fill="none" stroke="#000000" d="M7366 4813V5003" />
<path transform="matrix(-.06,0,0,.06,842,0)" stroke-width="9" stroke-linecap="round" stroke-linejoin="round" fill="none" stroke="#000000" d="M7366 5256V5446" />
</g>
<g inkscape:groupmode="layer" inkscape:label="FD_Dimensions">
<path transform="matrix(-.06,0,0,.06,842,0)" stroke-width="9" stroke-linecap="round" stroke-linejoin="round" fill="none" stroke="#000000" d="M9945 7685V8181" />
<path transform="matrix(-.06,0,0,.06,842,0)" stroke-width="9" stroke-linecap="round" stroke-linejoin="round" fill="none" stroke="#000000" d="M3331 7685V8181" />
<path transform="matrix(-.06,0,0,.06,842,0)" stroke-width="9" stroke-linecap="round" stroke-linejoin="round" fill="none" stroke="#000000" d="M9780 8082H3496" />
<path transform="matrix(-.06,0,0,.06,842,0)" d="M9780 8109V8054L9945 8082Z" />
<path transform="matrix(-.06,0,0,.06,842,0)" stroke-linecap="round" stroke-miterlimit="10" stroke-linejoin="miter" fill="none" stroke="#000000" d="M9780 8109V8054L9945 8082Z" />
<path transform="matrix(-.06,0,0,.06,842,0)" d="M3496 8109V8054L3331 8082Z" />
<path transform="matrix(-.06,0,0,.06,842,0)" stroke-linecap="round" stroke-miterlimit="10" stroke-linejoin="miter" fill="none" stroke="#000000" d="M3496 8109V8054L3331 8082Z" />
</g>
</g>
<g clip-path="url(#clip_3)">
<g inkscape:groupmode="layer" inkscape:label="FD_Dimensions">
<path d="M 463.256 495.396 L 463.256 495.792 L 462.860 496.584 L 462.464 496.980 L 461.672 497.376 L 460.088 497.376 L 459.296 496.980 L 458.900 496.584 L 458.504 495.792 L 458.504 495.000 L 458.900 494.208 L 459.692 493.020 L 463.652 489.060 L 458.108 489.060" fill="none" stroke="black" stroke-width="1" /><path d="M 455.550 491.040 L 455.946 490.644 L 455.550 490.248 L 455.154 490.644 L 455.550 491.040" fill="none" stroke="black" stroke-width="1" /><path d="M 446.549 497.376 L 450.509 489.060 M 452.093 497.376 L 446.549 497.376" fill="none" stroke="black" stroke-width="1" /><path d="M 439.635 497.376 L 443.595 497.376 L 443.991 493.812 L 443.595 494.208 L 442.407 494.604 L 441.219 494.604 L 440.031 494.208 L 439.239 493.416 L 438.843 492.228 L 438.843 491.436 L 439.239 490.248 L 440.031 489.456 L 441.219 489.060 L 442.407 489.060 L 443.595 489.456 L 443.991 489.852 L 444.387 490.644" fill="none" stroke="black" stroke-width="1" /><path d="M 431.929 497.376 L 435.889 497.376 L 436.285 493.812 L 435.889 494.208 L 434.701 494.604 L 433.513 494.604 L 432.325 494.208 L 431.533 493.416 L 431.137 492.228 L 431.137 491.436 L 431.533 490.248 L 432.325 489.456 L 433.513 489.060 L 434.701 489.060 L 435.889 489.456 L 436.285 489.852 L 436.681 490.644" fill="none" stroke="black" stroke-width="1" /><path d="M 423.828 494.604 L 424.224 493.416 L 425.016 492.624 L 426.203 492.228 L 426.599 492.228 L 427.787 492.624 L 428.579 493.416 L 428.975 494.604 L 428.975 495.000 L 428.579 496.188 L 427.787 496.980 L 426.599 497.376 L 426.203 497.376 L 425.016 496.980 L 424.224 496.188 L 423.828 494.604 L 423.828 492.624 L 424.224 490.644 L 425.016 489.456 L 426.203 489.060 L 426.995 489.060 L 428.183 489.456 L 428.579 490.248" fill="none" stroke="black" stroke-width="1" /></g>
</g>
<g clip-path="url(#clip_5)">
<path transform="matrix(-.06,0,0,.06,842,0)" stroke-width="9" stroke-linecap="round" stroke-linejoin="round" fill="none" stroke="#000000" d="M3232 7586H2736" />
<path transform="matrix(-.06,0,0,.06,842,0)" stroke-width="9" stroke-linecap="round" stroke-linejoin="round" fill="none" stroke="#000000" d="M3232 2295H2736" />
<path transform="matrix(-.06,0,0,.06,842,0)" stroke-width="9" stroke-linecap="round" stroke-linejoin="round" fill="none" stroke="#000000" d="M2835 7420V2460" />
<path transform="matrix(-.06,0,0,.06,842,0)" d="M2807 7420H2863L2835 7586Z" />
<path transform="matrix(-.06,0,0,.06,842,0)" stroke-linecap="round" stroke-miterlimit="10" stroke-linejoin="miter" fill="none" stroke="#000000" d="M2807 7420H2863L2835 7586Z" />
<path transform="matrix(-.06,0,0,.06,842,0)" d="M2807 2460H2863L2835 2295Z" />
<path transform="matrix(-.06,0,0,.06,842,0)" stroke-linecap="round" stroke-miterlimit="10" stroke-linejoin="miter" fill="none" stroke="#000000" d="M2807 2460H2863L2835 2295Z" />
<path d="M 682.376 276.924 L 682.772 276.924 L 683.564 277.320 L 683.960 277.716 L 684.356 278.508 L 684.356 280.092 L 683.960 280.884 L 683.564 281.280 L 682.772 281.676 L 681.980 281.676 L 681.188 281.280 L 680.000 280.488 L 676.040 276.528 L 676.040 282.072" fill="none" stroke="black" stroke-width="1" /><path d="M 678.020 284.630 L 677.624 284.234 L 677.228 284.630 L 677.624 285.026 L 678.020 284.630" fill="none" stroke="black" stroke-width="1" /><path d="M 682.376 288.483 L 682.772 288.483 L 683.564 288.879 L 683.960 289.275 L 684.356 290.067 L 684.356 291.651 L 683.960 292.443 L 683.564 292.839 L 682.772 293.235 L 681.980 293.235 L 681.188 292.839 L 680.000 292.047 L 676.040 288.087 L 676.040 293.631" fill="none" stroke="black" stroke-width="1" /><path d="M 684.356 298.169 L 683.960 296.981 L 682.772 296.189 L 680.792 295.793 L 679.604 295.793 L 677.624 296.189 L 676.436 296.981 L 676.040 298.169 L 676.040 298.961 L 676.436 300.149 L 677.624 300.941 L 679.604 301.337 L 680.792 301.337 L 682.772 300.941 L 683.960 300.149 L 684.356 298.961 L 684.356 298.169" fill="none" stroke="black" stroke-width="1" /><path d="M 684.356 307.459 L 678.812 303.499 L 678.812 309.439 M 684.356 307.459 L 676.040 307.459" fill="none" stroke="black" stroke-width="1" /><path d="M 684.356 316.748 L 676.040 312.789 M 684.356 311.205 L 684.356 316.748" fill="none" stroke="black" stroke-width="1" /><g inkscape:groupmode="layer" inkscape:label="Smart Centers">
<path transform="matrix(-.06,0,0,.06,842,0)" stroke-width="9" stroke-linecap="round" stroke-linejoin="round" fill="none" stroke="#000000" d="M10110 4940H9802" />
<path transform="matrix(-.06,0,0,.06,842,0)" stroke-width="9" stroke-linecap="round" stroke-linejoin="round" fill="none" stroke="#000000" d="M9718 4940H9633" />
<path transform="matrix(-.06,0,0,.06,842,0)" stroke-width="9" stroke-linecap="round" stroke-linejoin="round" fill="none" stroke="#000000" d="M9549 4940H9043" />
<path transform="matrix(-.06,0,0,.06,842,0)" stroke-width="9" stroke-linecap="round" stroke-linejoin="round" fill="none" stroke="#000000" d="M8958 4940H8874" />
<path transform="matrix(-.06,0,0,.06,842,0)" stroke-width="9" stroke-linecap="round" stroke-linejoin="round" fill="none" stroke="#000000" d="M8789 4940H8283" />
<path transform="matrix(-.06,0,0,.06,842,0)" stroke-width="9" stroke-linecap="round" stroke-linejoin="round" fill="none" stroke="#000000" d="M8199 4940H8115" />
<path transform="matrix(-.06,0,0,.06,842,0)" stroke-width="9" stroke-linecap="round" stroke-linejoin="round" fill="none" stroke="#000000" d="M8030 4940H7524" />
<path transform="matrix(-.06,0,0,.06,842,0)" stroke-width="9" stroke-linecap="round" stroke-linejoin="round" fill="none" stroke="#000000" d="M7440 4940H7355" />
<path transform="matrix(-.06,0,0,.06,842,0)" stroke-width="9" stroke-linecap="round" stroke-linejoin="round" fill="none" stroke="#000000" d="M7271 4940H6765" />
<path transform="matrix(-.06,0,0,.06,842,0)" stroke-width="9" stroke-linecap="round" stroke-linejoin="round" fill="none" stroke="#000000" d="M6680 4940H6596" />
<path transform="matrix(-.06,0,0,.06,842,0)" stroke-width="9" stroke-linecap="round" stroke-linejoin="round" fill="none" stroke="#000000" d="M6511 4940H6005" />
<path transform="matrix(-.06,0,0,.06,842,0)" stroke-width="9" stroke-linecap="round" stroke-linejoin="round" fill="none" stroke="#000000" d="M5921 4940H5836" />
<path transform="matrix(-.06,0,0,.06,842,0)" stroke-width="9" stroke-linecap="round" stroke-linejoin="round" fill="none" stroke="#000000" d="M5752 4940H5246" />
<path transform="matrix(-.06,0,0,.06,842,0)" stroke-width="9" stroke-linecap="round" stroke-linejoin="round" fill="none" stroke="#000000" d="M5161 4940H5077" />
<path transform="matrix(-.06,0,0,.06,842,0)" stroke-width="9" stroke-linecap="round" stroke-linejoin="round" fill="none" stroke="#000000" d="M4993 4940H4487" />
<path transform="matrix(-.06,0,0,.06,842,0)" stroke-width="9" stroke-linecap="round" stroke-linejoin="round" fill="none" stroke="#000000" d="M4402 4940H4318" />
<path transform="matrix(-.06,0,0,.06,842,0)" stroke-width="9" stroke-linecap="round" stroke-linejoin="round" fill="none" stroke="#000000" d="M4233 4940H3727" />
<path transform="matrix(-.06,0,0,.06,842,0)" stroke-width="9" stroke-linecap="round" stroke-linejoin="round" fill="none" stroke="#000000" d="M3643 4940H3558" />
<path transform="matrix(-.06,0,0,.06,842,0)" stroke-width="9" stroke-linecap="round" stroke-linejoin="round" fill="none" stroke="#000000" d="M3474 4940H3166" />
<path transform="matrix(-.06,0,0,.06,842,0)" stroke-width="9" stroke-linecap="round" stroke-linejoin="round" fill="none" stroke="#000000" d="M6638 7751V7345" />
<path transform="matrix(-.06,0,0,.06,842,0)" stroke-width="9" stroke-linecap="round" stroke-linejoin="round" fill="none" stroke="#000000" d="M6638 7260V7176" />
<path transform="matrix(-.06,0,0,.06,842,0)" stroke-width="9" stroke-linecap="round" stroke-linejoin="round" fill="none" stroke="#000000" d="M6638 7092V6585" />
<path transform="matrix(-.06,0,0,.06,842,0)" stroke-width="9" stroke-linecap="round" stroke-linejoin="round" fill="none" stroke="#000000" d="M6638 6501V6417" />
<path transform="matrix(-.06,0,0,.06,842,0)" stroke-width="9" stroke-linecap="round" stroke-linejoin="round" fill="none" stroke="#000000" d="M6638 6332V5826" />
<path transform="matrix(-.06,0,0,.06,842,0)" stroke-width="9" stroke-linecap="round" stroke-linejoin="round" fill="none" stroke="#000000" d="M6638 5742V5657" />
<path transform="matrix(-.06,0,0,.06,842,0)" stroke-width="9" stroke-linecap="round" stroke-linejoin="round" fill="none" stroke="#000000" d="M6638 5573V5067" />
<path transform="matrix(-.06,0,0,.06,842,0)" stroke-width="9" stroke-linecap="round" stroke-linejoin="round" fill="none" stroke="#000000" d="M6638 4982V4898" />
<path transform="matrix(-.06,0,0,.06,842,0)" stroke-width="9" stroke-linecap="round" stroke-linejoin="round" fill="none" stroke="#000000" d="M6638 4814V4307" />
<path transform="matrix(-.06,0,0,.06,842,0)" stroke-width="9" stroke-linecap="round" stroke-linejoin="round" fill="none" stroke="#000000" d="M6638 4223V4139" />
<path transform="matrix(-.06,0,0,.06,842,0)" stroke-width="9" stroke-linecap="round" stroke-linejoin="round" fill="none" stroke="#000000" d="M6638 4054V3548" />
<path transform="matrix(-.06,0,0,.06,842,0)" stroke-width="9" stroke-linecap="round" stroke-linejoin="round" fill="none" stroke="#000000" d="M6638 3464V3379" />
<path transform="matrix(-.06,0,0,.06,842,0)" stroke-width="9" stroke-linecap="round" stroke-linejoin="round" fill="none" stroke="#000000" d="M6638 3295V2789" />
<path transform="matrix(-.06,0,0,.06,842,0)" stroke-width="9" stroke-linecap="round" stroke-linejoin="round" fill="none" stroke="#000000" d="M6638 2704V2620" />
<path transform="matrix(-.06,0,0,.06,842,0)" stroke-width="9" stroke-linecap="round" stroke-linejoin="round" fill="none" stroke="#000000" d="M6638 2536V2129" />
</g>
<g inkscape:groupmode="layer" inkscape:label="FD_Dimensions">
<path transform="matrix(-.06,0,0,.06,842,0)" stroke-width="9" stroke-linecap="round" stroke-linejoin="round" fill="none" stroke="#000000" d="M6737 4940H10476" />
<path d="M 216.896 308.856 L 218.084 308.460 L 218.876 307.272 L 219.272 305.292 L 219.272 304.104 L 218.876 302.124 L 218.084 300.936 L 216.896 300.540 L 216.104 300.540 L 214.916 300.936 L 214.124 302.124 L 213.728 304.104 L 213.728 305.292 L 214.124 307.272 L 214.916 308.460 L 216.104 308.856 L 216.896 308.856" fill="none" stroke="black" stroke-width="1" /><path transform="matrix(-.06,0,0,.06,842,0)" stroke-width="9" stroke-linecap="round" stroke-linejoin="round" fill="none" stroke="#000000" d="M9670 5780H10712" />
<path d="M 216.416 352.920 L 216.812 352.524 L 216.416 352.128 L 216.020 352.524 L 216.416 352.920" fill="none" stroke="black" stroke-width="1" /><path d="M 212.167 359.256 L 207.811 359.256 L 210.187 356.088 L 208.999 356.088 L 208.207 355.692 L 207.811 355.296 L 207.415 354.108 L 207.415 353.316 L 207.811 352.128 L 208.603 351.336 L 209.791 350.940 L 210.979 350.940 L 212.167 351.336 L 212.563 351.732 L 212.959 352.524" fill="none" stroke="black" stroke-width="1" /><path d="M 200.501 359.256 L 204.461 359.256 L 204.857 355.692 L 204.461 356.088 L 203.273 356.484 L 202.085 356.484 L 200.897 356.088 L 200.105 355.296 L 199.709 354.108 L 199.709 353.316 L 200.105 352.128 L 200.897 351.336 L 202.085 350.940 L 203.273 350.940 L 204.461 351.336 L 204.857 351.732 L 205.253 352.524" fill="none" stroke="black" stroke-width="1" /><path transform="matrix(-.06,0,0,.06,842,0)" stroke-width="9" stroke-linecap="round" stroke-linejoin="round" fill="none" stroke="#000000" d="M9670 3140H10686" />
<path d="M 217.976 194.520 L 218.372 194.124 L 217.976 193.728 L 217.580 194.124 L 217.976 194.520" fill="none" stroke="black" stroke-width="1" /><path d="M 208.975 200.856 L 212.935 192.540 M 214.519 200.856 L 208.975 200.856" fill="none" stroke="black" stroke-width="1" /><path d="M 202.061 200.856 L 206.021 200.856 L 206.417 197.292 L 206.021 197.688 L 204.833 198.084 L 203.645 198.084 L 202.457 197.688 L 201.665 196.896 L 201.269 195.708 L 201.269 194.916 L 201.665 193.728 L 202.457 192.936 L 203.645 192.540 L 204.833 192.540 L 206.021 192.936 L 206.417 193.332 L 206.813 194.124" fill="none" stroke="black" stroke-width="1" /><path transform="matrix(-.06,0,0,.06,842,0)" stroke-width="9" stroke-linecap="round" stroke-linejoin="round" fill="none" stroke="#000000" d="M4750 2660H5527" />
<path d="M 527.516 165.720 L 527.912 165.324 L 527.516 164.928 L 527.120 165.324 L 527.516 165.720" fill="none" stroke="black" stroke-width="1" /><path d="M 518.911 169.284 L 519.307 168.096 L 520.099 167.304 L 521.287 166.908 L 521.683 166.908 L 522.871 167.304 L 523.663 168.096 L 524.059 169.284 L 524.059 169.680 L 523.663 170.868 L 522.871 171.660 L 521.683 172.056 L 521.287 172.056 L 520.099 171.660 L 519.307 170.868 L 518.911 169.284 L 518.911 167.304 L 519.307 165.324 L 520.099 164.136 L 521.287 163.740 L 522.079 163.740 L 523.267 164.136 L 523.663 164.928" fill="none" stroke="black" stroke-width="1" /><path d="M 511.601 172.056 L 515.561 172.056 L 515.957 168.492 L 515.561 168.888 L 514.373 169.284 L 513.185 169.284 L 511.997 168.888 L 511.205 168.096 L 510.809 166.908 L 510.809 166.116 L 511.205 164.928 L 511.997 164.136 L 513.185 163.740 L 514.373 163.740 L 515.561 164.136 L 515.957 164.532 L 516.353 165.324" fill="none" stroke="black" stroke-width="1" /><path transform="matrix(-.06,0,0,.06,842,0)" stroke-width="9" stroke-linecap="round" stroke-linejoin="round" fill="none" stroke="#000000" d="M5104 5129H5934" />
<path d="M 518.456 313.860 L 518.852 313.464 L 518.456 313.068 L 518.060 313.464 L 518.456 313.860" fill="none" stroke="black" stroke-width="1" /><path d="M 512.623 320.196 L 513.811 319.800 L 514.603 318.612 L 514.999 316.632 L 514.999 315.444 L 514.603 313.464 L 513.811 312.276 L 512.623 311.880 L 511.831 311.880 L 510.643 312.276 L 509.851 313.464 L 509.455 315.444 L 509.455 316.632 L 509.851 318.612 L 510.643 319.800 L 511.831 320.196 L 512.623 320.196" fill="none" stroke="black" stroke-width="1" /><path d="M 501.749 320.196 L 505.709 311.880 M 507.293 320.196 L 501.749 320.196" fill="none" stroke="black" stroke-width="1" /><path d="M 497.607 320.196 L 498.795 319.800 L 499.191 319.008 L 499.191 318.216 L 498.795 317.424 L 498.003 317.028 L 496.419 316.632 L 495.231 316.236 L 494.439 315.444 L 494.043 314.652 L 494.043 313.464 L 494.439 312.672 L 494.835 312.276 L 496.023 311.880 L 497.607 311.880 L 498.795 312.276 L 499.191 312.672 L 499.587 313.464 L 499.587 314.652 L 499.191 315.444 L 498.399 316.236 L 497.211 316.632 L 495.627 317.028 L 494.835 317.424 L 494.439 318.216 L 494.439 319.008 L 494.835 319.800 L 496.023 320.196 L 497.607 320.196" fill="none" stroke="black" stroke-width="1" /><path d="M 486.337 320.196 L 490.297 311.880 M 491.881 320.196 L 486.337 320.196" fill="none" stroke="black" stroke-width="1" /><path transform="matrix(-.06,0,0,.06,842,0)" stroke-width="9" stroke-linecap="round" stroke-linejoin="round" fill="none" stroke="#000000" d="M7366 5228V6294" />
<path d="M 406.160 345.144 L 405.764 344.748 L 405.368 345.144 L 405.764 345.540 L 406.160 345.144" fill="none" stroke="black" stroke-width="1" /><path d="M 412.496 349.393 L 412.496 353.749 L 409.328 351.373 L 409.328 352.561 L 408.932 353.353 L 408.536 353.749 L 407.348 354.145 L 406.556 354.145 L 405.368 353.749 L 404.576 352.957 L 404.180 351.769 L 404.180 350.581 L 404.576 349.393 L 404.972 348.997 L 405.764 348.601" fill="none" stroke="black" stroke-width="1" /><path d="M 412.496 358.683 L 412.100 357.495 L 410.912 356.703 L 408.932 356.307 L 407.744 356.307 L 405.764 356.703 L 404.576 357.495 L 404.180 358.683 L 404.180 359.475 L 404.576 360.663 L 405.764 361.455 L 407.744 361.851 L 408.932 361.851 L 410.912 361.455 L 412.100 360.663 L 412.496 359.475 L 412.496 358.683" fill="none" stroke="black" stroke-width="1" /><path d="M 412.496 364.805 L 412.496 369.161 L 409.328 366.785 L 409.328 367.973 L 408.932 368.765 L 408.536 369.161 L 407.348 369.557 L 406.556 369.557 L 405.368 369.161 L 404.576 368.369 L 404.180 367.181 L 404.180 365.993 L 404.576 364.805 L 404.972 364.409 L 405.764 364.013" fill="none" stroke="black" stroke-width="1" /><path d="M 412.496 376.471 L 412.496 372.511 L 408.932 372.115 L 409.328 372.511 L 409.724 373.699 L 409.724 374.887 L 409.328 376.075 L 408.536 376.867 L 407.348 377.263 L 406.556 377.263 L 405.368 376.867 L 404.576 376.075 L 404.180 374.887 L 404.180 373.699 L 404.576 372.511 L 404.972 372.115 L 405.764 371.719" fill="none" stroke="black" stroke-width="1" /><path transform="matrix(-.06,0,0,.06,842,0)" stroke-width="9" stroke-linecap="round" stroke-linejoin="round" fill="none" stroke="#000000" d="M5004 5228V6227" />
<path d="M 547.880 341.184 L 547.484 340.788 L 547.088 341.184 L 547.484 341.580 L 547.880 341.184" fill="none" stroke="black" stroke-width="1" /><path d="M 553.028 349.789 L 553.820 349.393 L 554.216 348.205 L 554.216 347.413 L 553.820 346.225 L 552.632 345.433 L 550.652 345.037 L 548.672 345.037 L 547.088 345.433 L 546.296 346.225 L 545.900 347.413 L 545.900 347.809 L 546.296 348.997 L 547.088 349.789 L 548.276 350.185 L 548.672 350.185 L 549.860 349.789 L 550.652 348.997 L 551.048 347.809 L 551.048 347.413 L 550.652 346.225 L 549.860 345.433 L 548.672 345.037" fill="none" stroke="black" stroke-width="1" /><path d="M 554.216 354.327 L 553.820 353.139 L 553.028 352.743 L 552.236 352.743 L 551.444 353.139 L 551.048 353.931 L 550.652 355.515 L 550.256 356.703 L 549.464 357.495 L 548.672 357.891 L 547.484 357.891 L 546.692 357.495 L 546.296 357.099 L 545.900 355.911 L 545.900 354.327 L 546.296 353.139 L 546.692 352.743 L 547.484 352.347 L 548.672 352.347 L 549.464 352.743 L 550.256 353.535 L 550.652 354.723 L 551.048 356.307 L 551.444 357.099 L 552.236 357.495 L 553.028 357.495 L 553.820 357.099 L 554.216 355.911 L 554.216 354.327" fill="none" stroke="black" stroke-width="1" /><path d="M 554.216 362.429 L 553.820 361.241 L 552.632 360.449 L 550.652 360.053 L 549.464 360.053 L 547.484 360.449 L 546.296 361.241 L 545.900 362.429 L 545.900 363.221 L 546.296 364.409 L 547.484 365.201 L 549.464 365.597 L 550.652 365.597 L 552.632 365.201 L 553.820 364.409 L 554.216 363.221 L 554.216 362.429" fill="none" stroke="black" stroke-width="1" /><path d="M 554.216 373.302 L 545.900 369.343 M 554.216 367.759 L 554.216 373.302" fill="none" stroke="black" stroke-width="1" /><path transform="matrix(-.06,0,0,.06,842,0)" stroke-width="9" stroke-linecap="round" stroke-linejoin="round" fill="none" stroke="#000000" d="M9571 5879V6882" />
<path d="M 278.432 381.336 L 278.828 382.128 L 280.016 383.316 L 271.700 383.316" fill="none" stroke="black" stroke-width="1" /><path d="M 273.680 388.250 L 273.284 387.854 L 272.888 388.250 L 273.284 388.646 L 273.680 388.250" fill="none" stroke="black" stroke-width="1" /><path d="M 278.036 392.103 L 278.432 392.103 L 279.224 392.499 L 279.620 392.895 L 280.016 393.687 L 280.016 395.271 L 279.620 396.063 L 279.224 396.459 L 278.432 396.855 L 277.640 396.855 L 276.848 396.459 L 275.660 395.667 L 271.700 391.707 L 271.700 397.251" fill="none" stroke="black" stroke-width="1" /><path d="M 278.036 399.809 L 278.432 399.809 L 279.224 400.205 L 279.620 400.601 L 280.016 401.393 L 280.016 402.977 L 279.620 403.769 L 279.224 404.165 L 278.432 404.561 L 277.640 404.561 L 276.848 404.165 L 275.660 403.373 L 271.700 399.413 L 271.700 404.957" fill="none" stroke="black" stroke-width="1" /><path d="M 278.036 407.515 L 278.432 407.515 L 279.224 407.911 L 279.620 408.307 L 280.016 409.099 L 280.016 410.683 L 279.620 411.475 L 279.224 411.871 L 278.432 412.267 L 277.640 412.267 L 276.848 411.871 L 275.660 411.079 L 271.700 407.119 L 271.700 412.663" fill="none" stroke="black" stroke-width="1" /><path transform="matrix(-.06,0,0,.06,842,0)" stroke-width="9" stroke-linecap="round" stroke-linejoin="round" fill="none" stroke="#000000" d="M4651 2760V3904" />
<path d="M 569.060 209.484 L 568.664 209.088 L 568.268 209.484 L 568.664 209.880 L 569.060 209.484" fill="none" stroke="black" stroke-width="1" /><path d="M 575.396 214.921 L 575.000 213.733 L 574.208 213.337 L 573.416 213.337 L 572.624 213.733 L 572.228 214.525 L 571.832 216.109 L 571.436 217.297 L 570.644 218.089 L 569.852 218.485 L 568.664 218.485 L 567.872 218.089 L 567.476 217.693 L 567.080 216.505 L 567.080 214.921 L 567.476 213.733 L 567.872 213.337 L 568.664 212.941 L 569.852 212.941 L 570.644 213.337 L 571.436 214.129 L 571.832 215.317 L 572.228 216.901 L 572.624 217.693 L 573.416 218.089 L 574.208 218.089 L 575.000 217.693 L 575.396 216.505 L 575.396 214.921" fill="none" stroke="black" stroke-width="1" /><path d="M 573.416 221.043 L 573.812 221.043 L 574.604 221.439 L 575.000 221.835 L 575.396 222.627 L 575.396 224.211 L 575.000 225.003 L 574.604 225.399 L 573.812 225.795 L 573.020 225.795 L 572.228 225.399 L 571.040 224.607 L 567.080 220.647 L 567.080 226.191" fill="none" stroke="black" stroke-width="1" /><path d="M 575.396 230.333 L 575.000 229.145 L 574.208 228.749 L 573.416 228.749 L 572.624 229.145 L 572.228 229.937 L 571.832 231.521 L 571.436 232.709 L 570.644 233.501 L 569.852 233.897 L 568.664 233.897 L 567.872 233.501 L 567.476 233.105 L 567.080 231.917 L 567.080 230.333 L 567.476 229.145 L 567.872 228.749 L 568.664 228.353 L 569.852 228.353 L 570.644 228.749 L 571.436 229.541 L 571.832 230.729 L 572.228 232.313 L 572.624 233.105 L 573.416 233.501 L 574.208 233.501 L 575.000 233.105 L 575.396 231.917 L 575.396 230.333" fill="none" stroke="black" stroke-width="1" /></g>
<g inkscape:groupmode="layer" inkscape:label="Hole Notes">
<path d="M 218.300 234.516 L 213.944 234.516 L 216.320 231.348 L 215.132 231.348 L 214.340 230.952 L 213.944 230.556 L 213.548 229.368 L 213.548 228.576 L 213.944 227.388 L 214.736 226.596 L 215.924 226.200 L 217.112 226.200 L 218.300 226.596 L 218.696 226.992 L 219.092 227.784" fill="none" stroke="black" stroke-width="1" /><path d="M 211.386 231.744 L 207.030 226.200 M 207.030 231.744 L 211.386 226.200" fill="none" stroke="black" stroke-width="1" /><use data-text=" " xlink:href="#font_4_3" transform="matrix(-13.859579,0,0,13.859579,205.64435,226.2)" />
<path d="M 200.216 234.516 L 200.216 226.200 M 200.216 234.516 L 197.048 226.200 M 193.880 234.516 L 197.048 226.200 M 193.880 234.516 L 193.880 226.200" fill="none" stroke="black" stroke-width="1" /><path d="M 188.275 234.516 L 183.919 234.516 L 186.295 231.348 L 185.107 231.348 L 184.315 230.952 L 183.919 230.556 L 183.523 229.368 L 183.523 228.576 L 183.919 227.388 L 184.711 226.596 L 185.899 226.200 L 187.087 226.200 L 188.275 226.596 L 188.671 226.992 L 189.067 227.784" fill="none" stroke="black" stroke-width="1" /><path d="M 181.361 231.744 L 177.005 226.200 M 177.005 231.744 L 181.361 226.200" fill="none" stroke="black" stroke-width="1" /><path d="M 172.055 234.516 L 173.243 234.120 L 174.035 232.932 L 174.431 230.952 L 174.431 229.764 L 174.035 227.784 L 173.243 226.596 L 172.055 226.200 L 171.263 226.200 L 170.075 226.596 L 169.284 227.784 L 168.888 229.764 L 168.888 230.952 L 169.284 232.932 L 170.075 234.120 L 171.263 234.516 L 172.055 234.516" fill="none" stroke="black" stroke-width="1" /><path d="M 166.329 228.180 L 166.725 227.784 L 166.329 227.388 L 165.934 227.784 L 166.329 228.180" fill="none" stroke="black" stroke-width="1" /><path d="M 158.121 234.516 L 162.081 234.516 L 162.477 230.952 L 162.081 231.348 L 160.893 231.744 L 159.705 231.744 L 158.517 231.348 L 157.725 230.556 L 157.329 229.368 L 157.329 228.576 L 157.725 227.388 L 158.517 226.596 L 159.705 226.200 L 160.893 226.200 L 162.081 226.596 L 162.477 226.992 L 162.873 227.784" fill="none" stroke="black" stroke-width="1" /><use data-text=" " xlink:href="#font_4_3" transform="matrix(-13.859579,0,0,13.859579,156.38,226.2)" />
<path d="M 146.144 233.328 L 146.540 234.120 L 147.728 234.516 L 148.520 234.516 L 149.708 234.120 L 150.500 232.932 L 150.896 230.952 L 150.896 228.972 L 150.500 227.388 L 149.708 226.596 L 148.520 226.200 L 148.124 226.200 L 146.936 226.596 L 146.144 227.388 L 145.748 228.576 L 145.748 228.972 L 146.144 230.160 L 146.936 230.952 L 148.124 231.348 L 148.520 231.348 L 149.708 230.952 L 150.500 230.160 L 150.896 228.972" fill="none" stroke="black" stroke-width="1" /><path d="M 143.190 234.516 L 143.190 226.200 M 137.646 234.516 L 137.646 226.200 M 143.190 230.556 L 137.646 230.556" fill="none" stroke="black" stroke-width="1" /><use data-text=" " xlink:href="#font_4_3" transform="matrix(-13.859579,0,0,13.859579,134.78003,226.2)" />
<path d="M 129.739 231.744 L 125.383 226.200 M 125.383 231.744 L 129.739 226.200" fill="none" stroke="black" stroke-width="1" /><use data-text=" " xlink:href="#font_4_3" transform="matrix(-13.859579,0,0,13.859579,123.997318,226.2)" />
<path d="M 118.556 228.180 L 118.952 227.784 L 118.556 227.388 L 118.160 227.784 L 118.556 228.180" fill="none" stroke="black" stroke-width="1" /><path d="M 112.723 234.516 L 113.911 234.120 L 114.703 232.932 L 115.099 230.952 L 115.099 229.764 L 114.703 227.784 L 113.911 226.596 L 112.723 226.200 L 111.931 226.200 L 110.743 226.596 L 109.951 227.784 L 109.555 229.764 L 109.555 230.952 L 109.951 232.932 L 110.743 234.120 L 111.931 234.516 L 112.723 234.516" fill="none" stroke="black" stroke-width="1" /><path d="M 105.413 234.516 L 106.601 234.120 L 106.997 233.328 L 106.997 232.536 L 106.601 231.744 L 105.809 231.348 L 104.225 230.952 L 103.037 230.556 L 102.245 229.764 L 101.849 228.972 L 101.849 227.784 L 102.245 226.992 L 102.641 226.596 L 103.829 226.200 L 105.413 226.200 L 106.601 226.596 L 106.997 226.992 L 107.393 227.784 L 107.393 228.972 L 106.997 229.764 L 106.205 230.556 L 105.017 230.952 L 103.433 231.348 L 102.641 231.744 L 102.245 232.536 L 102.245 233.328 L 102.641 234.120 L 103.829 234.516 L 105.413 234.516" fill="none" stroke="black" stroke-width="1" /><path d="M 94.143 234.516 L 98.103 226.200 M 99.687 234.516 L 94.143 234.516" fill="none" stroke="black" stroke-width="1" /><path d="M 90.001 234.516 L 91.189 234.120 L 91.585 233.328 L 91.585 232.536 L 91.189 231.744 L 90.397 231.348 L 88.814 230.952 L 87.626 230.556 L 86.834 229.764 L 86.438 228.972 L 86.438 227.784 L 86.834 226.992 L 87.230 226.596 L 88.418 226.200 L 90.001 226.200 L 91.189 226.596 L 91.585 226.992 L 91.981 227.784 L 91.981 228.972 L 91.585 229.764 L 90.793 230.556 L 89.605 230.952 L 88.022 231.348 L 87.230 231.744 L 86.834 232.536 L 86.834 233.328 L 87.230 234.120 L 88.418 234.516 L 90.001 234.516" fill="none" stroke="black" stroke-width="1" /><path d="M 77.540 236.100 L 84.668 223.428" fill="none" stroke="black" stroke-width="1" /><path d="M 80.036 228.180 L 80.432 227.784 L 80.036 227.388 L 79.640 227.784 L 80.036 228.180" fill="none" stroke="black" stroke-width="1" /><path d="M 74.203 234.516 L 75.391 234.120 L 76.183 232.932 L 76.579 230.952 L 76.579 229.764 L 76.183 227.784 L 75.391 226.596 L 74.203 226.200 L 73.411 226.200 L 72.223 226.596 L 71.431 227.784 L 71.035 229.764 L 71.035 230.952 L 71.431 232.932 L 72.223 234.120 L 73.411 234.516 L 74.203 234.516" fill="none" stroke="black" stroke-width="1" /><path d="M 66.893 234.516 L 68.081 234.120 L 68.477 233.328 L 68.477 232.536 L 68.081 231.744 L 67.289 231.348 L 65.705 230.952 L 64.517 230.556 L 63.725 229.764 L 63.329 228.972 L 63.329 227.784 L 63.725 226.992 L 64.121 226.596 L 65.309 226.200 L 66.893 226.200 L 68.081 226.596 L 68.477 226.992 L 68.873 227.784 L 68.873 228.972 L 68.477 229.764 L 67.685 230.556 L 66.497 230.952 L 64.913 231.348 L 64.121 231.744 L 63.725 232.536 L 63.725 233.328 L 64.121 234.120 L 65.309 234.516 L 66.893 234.516" fill="none" stroke="black" stroke-width="1" /><path d="M 55.623 234.516 L 59.583 226.200 M 61.167 234.516 L 55.623 234.516" fill="none" stroke="black" stroke-width="1" /><path d="M 51.481 234.516 L 52.669 234.120 L 53.065 233.328 L 53.065 232.536 L 52.669 231.744 L 51.877 231.348 L 50.293 230.952 L 49.106 230.556 L 48.314 229.764 L 47.918 228.972 L 47.918 227.784 L 48.314 226.992 L 48.710 226.596 L 49.897 226.200 L 51.481 226.200 L 52.669 226.596 L 53.065 226.992 L 53.461 227.784 L 53.461 228.972 L 53.065 229.764 L 52.273 230.556 L 51.085 230.952 L 49.502 231.348 L 48.710 231.744 L 48.314 232.536 L 48.314 233.328 L 48.710 234.120 L 49.897 234.516 L 51.481 234.516" fill="none" stroke="black" stroke-width="1" /><path transform="matrix(-.06,0,0,.06,842,0)" d="M9790 3322 9651 3229 9753 3362Z" />
<path transform="matrix(-.06,0,0,.06,842,0)" stroke-linecap="round" stroke-miterlimit="10" stroke-linejoin="miter" fill="none" stroke="#000000" d="M9790 3322 9651 3229 9753 3362Z" />
<path transform="matrix(-.06,0,0,.06,842,0)" stroke-width="9" stroke-linecap="round" stroke-linejoin="round" fill="none" stroke="#000000" d="M9772 3342 10196 3737H10362 13231" />
</g>
<g inkscape:groupmode="layer" inkscape:label="FD_Dimensions">
<path transform="matrix(-.06,0,0,.06,842,0)" stroke-width="9" stroke-linecap="round" stroke-linejoin="round" fill="none" stroke="#000000" d="M8370 5828 7626 5310" />
<path transform="matrix(-.06,0,0,.06,842,0)" stroke-width="9" stroke-linecap="round" stroke-linejoin="round" fill="none" stroke="#000000" d="M7107 4948 6971 4854" />
<use data-text="Ø" xlink:href="#font_4_145" transform="matrix(-11.374002,7.9195029,7.9195029,11.374002,375.98,329.82)" />
<path d="M 366.963 338.511 L 367.061 337.960 L 366.510 337.861 L 366.411 338.413 L 366.963 338.511" fill="none" stroke="black" stroke-width="1" /><path d="M 365.866 345.065 L 365.442 345.843 L 365.146 347.496 L 360.394 340.672" fill="none" stroke="black" stroke-width="1" /><path d="M 359.966 348.691 L 360.192 349.016 L 360.319 349.892 L 360.221 350.443 L 359.797 351.221 L 358.497 352.126 L 357.621 352.253 L 357.070 352.155 L 356.292 351.731 L 355.840 351.081 L 355.712 350.205 L 355.683 348.777 L 356.670 343.265 L 352.121 346.433" fill="none" stroke="black" stroke-width="1" /><path d="M 350.195 356.459 L 350.972 356.883 L 352.173 356.529 L 352.823 356.077 L 353.572 355.073 L 353.543 353.645 L 352.737 351.794 L 351.605 350.169 L 350.375 349.096 L 349.273 348.898 L 348.071 349.252 L 347.747 349.478 L 346.998 350.482 L 346.800 351.585 L 347.154 352.786 L 347.381 353.111 L 348.384 353.860 L 349.487 354.057 L 350.688 353.703 L 351.013 353.477 L 351.762 352.473 L 351.959 351.371 L 351.605 350.169" fill="none" stroke="black" stroke-width="1" /><path transform="matrix(-.06,0,0,.06,842,0)" stroke-width="9" stroke-linecap="round" stroke-linejoin="round" fill="none" stroke="#000000" d="M7242 5043 7491 5216" />
<path transform="matrix(-.06,0,0,.06,842,0)" d="M7091 4971 7122 4926 7242 5043Z" />
<path transform="matrix(-.06,0,0,.06,842,0)" stroke-linecap="round" stroke-miterlimit="10" stroke-linejoin="miter" fill="none" stroke="#000000" d="M7091 4971 7122 4926 7242 5043Z" />
<path transform="matrix(-.06,0,0,.06,842,0)" d="M7610 5333 7642 5287 7491 5216Z" />
<path transform="matrix(-.06,0,0,.06,842,0)" stroke-linecap="round" stroke-miterlimit="10" stroke-linejoin="miter" fill="none" stroke="#000000" d="M7610 5333 7642 5287 7491 5216Z" />
</g>
</g>
</svg>