<?xml version='1.0' encoding='utf-8'?>
<svg xmlns="http://www.w3.org/2000/svg" xmlns:inkscape="http://www.inkscape.org/namespaces/inkscape" xmlns:xlink="http://www.w3.org/1999/xlink" version="1.1" width="842" height="595" viewBox="0 0 842 595" style="background-color: white">
<defs>
<clipPath id="clip_1">
<path transform="matrix(.06,0,0,-.06,0,595)" d="M3178 2142H10098V7738H3178V2142" />
</clipPath>
<clipPath id="clip_2">
<path transform="matrix(.06,0,0,-.06,0,595)" d="M0 0H14031V9921H0V0" />
</clipPath>
<clipPath id="clip_3">
<path transform="matrix(.06,0,0,-.06,0,595)" d="M0 0H14031V9921H0V0" />
</clipPath>
<path id="font_4_21" d="M.50341799 .084472659V0H.030273438C.029622397 .021148682 .033040365 .041483564 .040527345 .06100464 .052571615 .09321085 .07185873 .124928798 .09838867 .15615845 .12491862 .1873881 .1632487 .22350057 .2133789 .26449586 .29117839 .3282369 .34375 .37872825 .37109376 .41596986 .3984375 .45321147 .41210938 .48841859 .41210938 .5215912 .41210938 .5563914 .3996582 .5857442 .37475587 .60964968 .34985353 .6335551 .3173828 .6455078 .27734376 .6455078 .23502605 .6455078 .20117188 .6328125 .17578125 .6074219 .15039063 .58203127 .13753255 .546875 .13720703 .5019531L.046875 .5112457C.053059896 .5787811 .07633463 .630249 .11669922 .6656494 .1570638 .7010498 .21126302 .71875 .27929688 .71875 .34798179 .71875 .40234376 .69970199 .4423828 .66160586 .48242188 .6235097 .5024414 .57629397 .5024414 .5199585 .5024414 .4913025 .49658204 .46313478 .48486329 .43545533 .47314454 .40777589 .45369468 .3786316 .42651368 .34802247 .39933268 .3174235 .35416667 .27542115 .29101563 .22201538 .23828125 .17779541 .20442708 .14779663 .18945313 .13201905 .17447917 .116251628 .16210938 .10040283 .15234375 .084472659H.50341799Z" />
<path id="font_4_17" d="M.09082031 0V.10058594H.19091797V0H.09082031Z" />
<path id="font_4_26" d="M.04736328 .6225586V.70703127H.5107422V.6386719C.46516929 .5901286 .42000328 .5256246 .37524415 .4451599 .33048503 .36469523 .29589845 .2819519 .27148438 .19692993 .25390626 .13698323 .24267578 .07133993 .23779297 0H.14746094C.1484375 .056355794 .1595052 .12444051 .18066406 .20425415 .20182292 .28407798 .23217774 .3610433 .27172853 .43515016 .3112793 .50926718 .35335288 .57173666 .39794923 .6225586H.04736328Z" />
<path id="font_4_24" d="M.041503908 .18847656 .13378906 .19628906C.140625 .15151978 .15649414 .117863979 .18139649 .095321658 .20629883 .07278951 .23632813 .061523439 .27148438 .061523439 .3138021 .061523439 .34960938 .077448528 .37890626 .109298709 .40820313 .14115906 .42285157 .18341573 .42285157 .23606873 .42285157 .28612773 .4087728 .32562257 .38061524 .35455323 .35245768 .3834839 .31559245 .39794923 .27001954 .39794923 .24169922 .39794923 .21614583 .39156596 .19335938 .37879945 .17057292 .36603294 .15266927 .34946696 .13964844 .32910157L.057128908 .33984376 .12646485 .70703127H.48242188V.62402346H.19677735L.15820313 .43115235C.20117188 .46077476 .24625652 .47558595 .29345704 .47558595 .35595704 .47558595 .4086914 .45391337 .45166017 .41056825 .4946289 .36723329 .5161133 .31151835 .5161133 .24342346 .5161133 .17857361 .49723307 .122528079 .45947267 .075286868 .41357423 .017283122 .35091148-.01171875 .27148438-.01171875 .2063802-.01171875 .15323894 .006556193 .11206055 .04310608 .070882167 .07965597 .04736328 .1281128 .041503908 .18847656Z" />
<path id="font_4_28" d="M.0546875 .16694641 .13916016 .17480469C.14632161 .13509114 .15999349 .106282558 .18017578 .088378909 .20035808 .07047526 .22623699 .061523439 .2578125 .061523439 .28483073 .061523439 .30851237 .067708339 .32885743 .080078128 .34920249 .092447917 .3658854 .1089681 .37890626 .12963867 .3919271 .15030925 .40283204 .17822266 .4116211 .2133789 .42041017 .24853516 .4248047 .28434245 .4248047 .32080079 .4248047 .32470704 .42464195 .3305664 .4243164 .3383789 .40673829 .31038413 .3827311 .28767906 .35229493 .27026368 .32185874 .2528483 .28889976 .24414063 .25341798 .24414063 .19417317 .24414063 .14404297 .26555888 .103027347 .3083954 .06201172 .3512319 .041503908 .40769959 .041503908 .47779847 .041503908 .55016586 .0629069 .6084137 .10571289 .6525421 .14851888 .6966807 .20214844 .71875 .26660157 .71875 .31315104 .71875 .3557129 .70622256 .3942871 .6811676 .43286134 .65612289 .4621582 .62042239 .48217774 .57406619 .50219729 .52770999 .51220706 .46061708 .51220706 .37278749 .51220706 .28137718 .5022786 .20858765 .48242188 .15441895 .4625651 .100260417 .43302409 .05903117 .39379884 .030731202 .35457359 .0024312337 .30859376-.01171875 .25585938-.01171875 .1998698-.01171875 .15413411 .00390625 .118652347 .03515625 .08317057 .06640625 .061848958 .1103363 .0546875 .16694641M.41455079 .48194886C.41455079 .5320994 .40112306 .57189437 .37426759 .6013336 .3474121 .6307831 .31510417 .6455078 .27734376 .6455078 .23828125 .6455078 .20426433 .62965396 .17529297 .59794619 .14632161 .5662384 .13183594 .5251465 .13183594 .4746704 .13183594 .42936198 .14558919 .3925527 .1730957 .36424256 .20060222 .3359324 .23453777 .32177735 .27490235 .32177735 .31559245 .32177735 .3490397 .3359324 .37524415 .36424256 .40144859 .3925527 .41455079 .43178813 .41455079 .48194886Z" />
<clipPath id="clip_5">
<path transform="matrix(.06,0,0,-.06,0,595)" d="M0 0H14031V9921H0V0" />
</clipPath>
<path id="font_4_19" d="M.041503908 .35327149C.041503908 .43784587 .05021159 .50591537 .06762695 .55747988 .08504232 .6090444 .11092123 .6488139 .14526367 .67678835 .17960613 .70476278 .22281902 .71875 .27490235 .71875 .3133138 .71875 .34700523 .711024 .37597657 .6955719 .4049479 .6801198 .4288737 .6578369 .4477539 .62872317 .46663413 .5996094 .4814453 .56414797 .4921875 .52233889 .5029297 .48053996 .5083008 .42418418 .5083008 .35327149 .5083008 .26934815 .49967448 .2016042 .48242188 .15003968 .46516929 .098475139 .43937174 .058624269 .4050293 .03048706 .37068687 .0023498536 .3273112-.01171875 .27490235-.01171875 .20589192-.01171875 .1516927 .013005574 .11230469 .062454225 .065104167 .12198385 .041503908 .21892293 .041503908 .35327149M.13183594 .35351563C.13183594 .23639934 .14558919 .15845235 .1730957 .11967468 .20060222 .08090719 .23453777 .061523439 .27490235 .061523439 .31526695 .061523439 .34920249 .08098856 .37670899 .11991882 .40421549 .15884908 .41796876 .23671468 .41796876 .35351563 .41796876 .47095744 .40421549 .5489807 .37670899 .58758547 .34920249 .6262004 .3149414 .6455078 .27392579 .6455078 .2335612 .6455078 .20133464 .62847396 .1772461 .5944061 .14697266 .5509288 .13183594 .47063194 .13183594 .35351563Z" />
<path id="font_4_23" d="M.3232422 0V.17138672H.0126953129V.25195313L.33935548 .7158203H.4111328V.25195313H.5078125V.17138672H.4111328V0H.3232422M.3232422 .25195313V.57470706L.099121097 .25195313H.3232422Z" />
<path id="font_4_22" d="M.041992189 .19042969 .12988281 .20214844C.13997396 .15234375 .15714519 .11645508 .18139649 .09448242 .20564778 .072509769 .2351888 .061523439 .27001954 .061523439 .3113607 .061523439 .3462728 .07582092 .37475587 .10441589 .40323893 .13301087 .41748048 .1684316 .41748048 .2106781 .41748048 .25098167 .40429688 .2842102 .3779297 .31036378 .3515625 .3365275 .31803385 .34960938 .27734376 .34960938 .2607422 .34960938 .24007161 .34635417 .21533203 .33984376L.22509766 .4169922C.23095703 .41634117 .23567708 .41601563 .23925781 .41601563 .27669273 .41601563 .31038413 .42569987 .34033204 .44506837 .37027995 .46443687 .3852539 .4942932 .3852539 .53463748 .3852539 .56658938 .37434898 .59305319 .35253907 .61402896 .33072917 .63501486 .30257163 .6455078 .2680664 .6455078 .23388672 .6455078 .20540364 .6347656 .18261719 .61328127 .15983074 .5917969 .1451823 .5595703 .13867188 .51660159L.05078125 .53222659C.061523439 .591451 .0859375 .63734439 .12402344 .6699066 .16210938 .7024689 .20947266 .71875 .26611329 .71875 .30517579 .71875 .34114585 .71039327 .37402345 .6936798 .40690104 .67696639 .43204753 .6541646 .4494629 .62527468 .46687828 .59639486 .47558595 .5657247 .47558595 .53326418 .47558595 .5024312 .46728517 .47435508 .4506836 .44903565 .43408204 .4237264 .40950523 .40360514 .37695313 .38867188 .41927085 .37890626 .45214845 .35864259 .47558595 .32788087 .49902345 .29711915 .5107422 .2586263 .5107422 .21240235 .5107422 .14990235 .48795573 .09692383 .4423828 .053466798 .3968099 .010009766 .33919273-.01171875 .26953126-.01171875 .20670574-.01171875 .15454102 .007044474 .11303711 .044570924 .0715332 .082097377 .047851564 .13071697 .041992189 .19042969Z" />
<path id="font_4_27" d="M.17675781 .38916017C.14029949 .40246583 .11328125 .42145286 .095703128 .44612123 .078125 .47078959 .06933594 .5003255 .06933594 .534729 .06933594 .5866597 .08805338 .63031008 .12548828 .66567996 .16292317 .70106 .21272786 .71875 .27490235 .71875 .33740235 .71875 .3876953 .7006531 .42578126 .6644592 .4638672 .6282756 .48291017 .5842183 .48291017 .5322876 .48291017 .4991862 .47420249 .4703827 .4567871 .44587709 .43937174 .42137147 .4129232 .40246583 .3774414 .38916017 .42138673 .3748169 .45483399 .3516744 .4777832 .31973268 .5007324 .28780113 .51220706 .24966939 .51220706 .20533753 .51220706 .1440684 .4905599 .09257507 .44726563 .050857545 .40397135 .009140015 .34700523-.01171875 .2763672-.01171875 .20572917-.01171875 .14876302 .009221395 .10546875 .051101686 .06217448 .09298197 .040527345 .14521282 .040527345 .20779419 .040527345 .25439454 .052327474 .29342143 .075927738 .32487489 .09952799 .35632835 .13313802 .37775675 .17675781 .38916017M.15917969 .53707888C.15917969 .5035197 .17008464 .47608949 .19189453 .4547882 .21370442 .4334971 .24202474 .42285157 .27685548 .42285157 .31070964 .42285157 .3384603 .4334208 .36010743 .45455934 .38175456 .47569786 .39257813 .501592 .39257813 .5322418 .39257813 .5641937 .38142906 .5910594 .35913087 .61283877 .33683268 .6346181 .30908204 .6455078 .2758789 .6455078 .24235027 .6455078 .21451824 .6348572 .19238281 .6135559 .17024739 .59226486 .15917969 .56677249 .15917969 .53707888M.13085938 .20776367C.13085938 .18273926 .13680013 .15852864 .14868164 .13513184 .16056316 .11173502 .17822266 .09361776 .20166016 .08078003 .22509766 .0679423 .25032554 .061523439 .27734376 .061523439 .31933595 .061523439 .3540039 .07500712 .38134767 .10197449 .4086914 .12895203 .42236329 .16323853 .42236329 .20483399 .42236329 .24708049 .40828453 .28201295 .38012696 .30963136 .3519694 .33725993 .31673179 .35107423 .27441407 .35107423 .23307292 .35107423 .19881185 .3374227 .17163086 .31011964 .14444988 .28282676 .13085938 .24870809 .13085938 .20776367Z" />
<path id="font_4_25" d="M.4975586 .5400543 .41015626 .5332031C.40234376 .5675557 .39127604 .59251406 .37695313 .608078 .3531901 .6330312 .32389323 .6455078 .2890625 .6455078 .26106773 .6455078 .23649089 .637736 .21533203 .6221924 .18766277 .602122 .16585286 .57282 .14990235 .5342865 .13395183 .49575297 .12565105 .4408671 .125 .3696289 .14615886 .40185548 .17203777 .42578126 .20263672 .44140626 .23323567 .45703126 .26529948 .46484376 .29882813 .46484376 .35742188 .46484376 .40730796 .44327799 .44848634 .40014649 .4896647 .35701499 .5102539 .30126954 .5102539 .23291016 .5102539 .18798828 .50056967 .14624024 .48120118 .107666019 .46183268 .0690918 .43522135 .03955078 .4013672 .019042969 .36751304-.0014648438 .32910157-.01171875 .2861328-.01171875 .21289063-.01171875 .15315755 .015197754 .106933597 .06903076 .060709638 .12287394 .037597658 .2116038 .037597658 .33522035 .037597658 .47347514 .06315104 .57399496 .11425781 .6367798 .15885417 .6914266 .21891277 .71875 .2944336 .71875 .3507487 .71875 .39689128 .70292159 .43286134 .67126467 .4688314 .6396077 .49039714 .595871 .4975586 .5400543M.13867188 .23287964C.13867188 .20269776 .1451009 .17381287 .15795899 .14622498 .17081706 .118637088 .18880208 .09762064 .21191406 .08317566 .23502605 .068740848 .25927735 .061523439 .28466798 .061523439 .32177735 .061523439 .35367839 .07645162 .3803711 .10630798 .4070638 .13616435 .42041017 .17673238 .42041017 .22801209 .42041017 .27734886 .40722657 .31621299 .38085938 .3446045 .3544922 .3730062 .32128907 .38720704 .28125 .38720704 .24153646 .38720704 .20784505 .3730062 .18017578 .3446045 .15250652 .31621299 .13867188 .27897135 .13867188 .23287964Z" />
<path id="font_4_20" d="M.3725586 0H.28466798V.5600586C.26350913 .5398763 .23575847 .51969406 .20141602 .49951173 .16707357 .47932945 .13623047 .46419273 .10888672 .45410157V.5390625C.15804036 .5621745 .20100911 .59016928 .23779297 .6230469 .2745768 .6559245 .3006185 .6878255 .31591798 .71875H.3725586V0Z" />
<path id="font_4_91" d="M.0073242189 0 .19677735 .26953126 .021484375 .5185547H.13134766L.2109375 .39697267C.22591146 .3738607 .23795574 .3544922 .24707031 .3388672 .26139323 .36035157 .2745768 .37939454 .2866211 .3959961L.37402345 .5185547H.4790039L.2998047 .27441407 .49267579 0H.38476563L.2783203 .16113281 .25 .20458985 .11376953 0H.0073242189Z" />
<path id="font_4_3" d="" />
<path id="font_4_48" d="M.07421875 0V.7158203H.21679688L.38623048 .20898438C.40185548 .16178386 .4132487 .12646485 .42041017 .103027347 .4285482 .12906902 .4412435 .1673177 .4584961 .21777344L.6298828 .7158203H.7573242V0H.6660156V.5991211L.4580078 0H.3725586L.16552735 .609375V0H.07421875Z" />
<path id="font_4_43" d="M.080078128 0V.7158203H.17480469V.421875H.546875V.7158203H.64160159V0H.546875V.33740235H.17480469V0H.080078128Z" />
<path id="font_4_18" d="M0-.01171875 .20751953 .72753909H.27783204L.07080078-.01171875H0Z" />
<path id="font_4_145" d="M.61035159 .6508789 .6923828 .74316409 .74072268 .70214846 .65478518 .60498049C.68277999 .5633138 .70166018 .52685549 .7114258 .49560548 .7244466 .45458985 .73095706 .4086914 .73095706 .35791017 .73095706 .28466798 .7161458 .21940105 .68652346 .16210938 .65690109 .10481771 .61531576 .061523439 .5617676 .032226564 .5082194 .0029296876 .45133464-.01171875 .39111329-.01171875 .3461914-.01171875 .3055013-.0053710939 .26904298 .0073242189 .24104817 .017089844 .20833333 .035807294 .17089844 .06347656L.08886719-.028320313 .040527345 .0126953129 .12646485 .10888672C.094563808 .15738933 .07324219 .19881185 .0625 .2331543 .051757814 .26749674 .04638672 .3087565 .04638672 .3569336 .04638672 .4305013 .061035158 .49601237 .09033203 .5534668 .119628909 .6109212 .1607259 .65445968 .21362305 .68408206 .26652018 .7137044 .32535807 .7285156 .39013673 .7285156 .4337565 .7285156 .47192384 .7227376 .5046387 .71118167 .5373535 .6996257 .5725911 .6795247 .61035159 .6508789M.5517578 .5853424C.5211589 .6094716 .49438478 .62593588 .47143556 .6347351 .44848634 .6435445 .42154948 .6479492 .390625 .6479492 .31933595 .6479492 .26041667 .6237335 .21386719 .5753021 .1673177 .5268707 .14404297 .45455424 .14404297 .35835267 .14404297 .32052104 .1476237 .28693138 .15478516 .25758363 .15999349 .23573303 .17089844 .2088267 .1875 .17686463L.5517578 .5853424M.5917969 .53504946 .2290039 .1280365C.254069 .107488 .277181 .09313965 .29833985 .084991458 .32600913 .07422892 .35595704 .068847659 .3881836 .068847659 .45914714 .068847659 .5177409 .093958538 .56396487 .1441803 .6101888 .19440206 .6333008 .2648468 .6333008 .35551454 .6333008 .42334495 .6194661 .4831899 .5917969 .53504946Z" />
</defs>
<g clip-path="url(#clip_1)">
<g inkscape:groupmode="layer" inkscape:label="Visible">
<path transform="matrix(.06,0,0,-.06,0,595)" stroke-width="17" stroke-linecap="round" stroke-linejoin="round" fill="none" stroke="#000000" d="M9572.5 3021C9638.498 3021 9692 3074.502 9692 3140.5 9692 3206.498 9638.498 3260 9572.5 3260 9506.502 3260 9453 3206.498 9453 3140.5 9453 3074.502 9506.502 3021 9572.5 3021" />
<path transform="matrix(.06,0,0,-.06,0,595)" stroke-width="17" stroke-linecap="round" stroke-linejoin="round" fill="none" stroke="#000000" d="M9572.5 5661C9638.498 5661 9692 5714.502 9692 5780.5 9692 5846.498 9638.498 5900 9572.5 5900 9506.502 5900 9453 5846.498 9453 5780.5 9453 5714.502 9506.502 5661 9572.5 5661" />
<path transform="matrix(.06,0,0,-.06,0,595)" stroke-width="17" stroke-linecap="round" stroke-linejoin="round" fill="none" stroke="#000000" d="M4650.5 2541C4716.498 2541 4770 2594.502 4770 2660.5 4770 2726.498 4716.498 2780 4650.5 2780 4584.502 2780 4531 2726.498 4531 2660.5 4531 2594.502 4584.502 2541 4650.5 2541" />
<path transform="matrix(.06,0,0,-.06,0,595)" stroke-width="17" stroke-linecap="round" stroke-linejoin="round" fill="none" stroke="#000000" d="M5004.5 4978C5088.1716 4978 5156 5045.8288 5156 5129.5 5156 5213.1716 5088.1716 5281 5004.5 5281 4920.8288 5281 4853 5213.1716 4853 5129.5 4853 5045.8288 4920.8288 4978 5004.5 4978" />
<path transform="matrix(.06,0,0,-.06,0,595)" stroke-width="17" stroke-linecap="round" stroke-linejoin="round" fill="none" stroke="#000000" d="M7367.5 4978C7451.1716 4978 7519 5045.8288 7519 5129.5 7519 5213.1716 7451.1716 5281 7367.5 5281 7283.8288 5281 7216 5213.1716 7216 5129.5 7216 5045.8288 7283.8288 4978 7367.5 4978" />
<path transform="matrix(.06,0,0,-.06,0,595)" stroke-width="17" stroke-linecap="round" stroke-linejoin="round" fill="none" stroke="#000000" d="M9946 2294V7586H3330V2294H9946" />
</g>
<g inkscape:groupmode="layer" inkscape:label="Visible Narrow">
<path transform="matrix(.0590892,-.0104166,-.0104166,-.0590892,574.35,406.57)" stroke-width="9" stroke-linecap="round" stroke-linejoin="round" fill="none" stroke="#000000" d="M145.5 0C145.5 80.35744 80.35744 145.5 0 145.5-80.35744 145.5-145.5 80.35744-145.5 0-145.5-80.35744-80.35744-145.5 0-145.5" />
<path transform="matrix(.0590892,-.0104166,-.0104166,-.0590892,574.35,248.17002)" stroke-width="9" stroke-linecap="round" stroke-linejoin="round" fill="none" stroke="#000000" d="M145.5 0C145.5 80.35744 80.35744 145.5 0 145.5-80.35744 145.5-145.5 80.35744-145.5 0-145.5-80.35744-80.35744-145.5 0-145.5" />
<path transform="matrix(.0590892,-.0104166,-.0104166,-.0590892,279.03,435.37)" stroke-width="9" stroke-linecap="round" stroke-linejoin="round" fill="none" stroke="#000000" d="M145.5 0C145.5 80.35744 80.35744 145.5 0 145.5-80.35744 145.5-145.5 80.35744-145.5 0-145.5-80.35744-80.35744-145.5 0-145.5" />
</g>
</g>
<g clip-path="url(#clip_2)">
<g inkscape:groupmode="layer" inkscape:label="BORDER">
<path transform="matrix(.06,0,0,-.06,0,595)" stroke-width="9" stroke-linecap="round" stroke-linejoin="round" fill="none" stroke="#000000" d="M944 9448V472" />
<path transform="matrix(.06,0,0,-.06,0,595)" stroke-width="9" stroke-linecap="round" stroke-linejoin="round" fill="none" stroke="#000000" d="M944 472H13558V9448H944" />
<path transform="matrix(.06,0,0,-.06,0,595)" stroke-width="9" stroke-linecap="round" stroke-linejoin="round" fill="none" stroke="#000000" d="M708 4724H1181" />
<path transform="matrix(.06,0,0,-.06,0,595)" stroke-width="9" stroke-linecap="round" stroke-linejoin="round" fill="none" stroke="#000000" d="M13794 4724H13322" />
<path transform="matrix(.06,0,0,-.06,0,595)" stroke-width="9" stroke-linecap="round" stroke-linejoin="round" fill="none" stroke="#000000" d="M7015 9684V9212" />
<path transform="matrix(.06,0,0,-.06,0,595)" stroke-width="9" stroke-linecap="round" stroke-linejoin="round" fill="none" stroke="#000000" d="M7015 236V708" />
</g>
<g inkscape:groupmode="layer" inkscape:label="Smart Centers">
<path transform="matrix(.06,0,0,-.06,0,595)" stroke-width="9" stroke-linecap="round" stroke-linejoin="round" fill="none" stroke="#000000" d="M9529 5780H9613" />
<path transform="matrix(.06,0,0,-.06,0,595)" stroke-width="9" stroke-linecap="round" stroke-linejoin="round" fill="none" stroke="#000000" d="M9571 5738V5822" />
<path transform="matrix(.06,0,0,-.06,0,595)" stroke-width="9" stroke-linecap="round" stroke-linejoin="round" fill="none" stroke="#000000" d="M9260 5780H9444" />
<path transform="matrix(.06,0,0,-.06,0,595)" stroke-width="9" stroke-linecap="round" stroke-linejoin="round" fill="none" stroke="#000000" d="M9697 5780H9882" />
<path transform="matrix(.06,0,0,-.06,0,595)" stroke-width="9" stroke-linecap="round" stroke-linejoin="round" fill="none" stroke="#000000" d="M9571 5469V5654" />
<path transform="matrix(.06,0,0,-.06,0,595)" stroke-width="9" stroke-linecap="round" stroke-linejoin="round" fill="none" stroke="#000000" d="M9571 5907V6091" />
<path transform="matrix(.06,0,0,-.06,0,595)" stroke-width="9" stroke-linecap="round" stroke-linejoin="round" fill="none" stroke="#000000" d="M9529 3140H9613" />
<path transform="matrix(.06,0,0,-.06,0,595)" stroke-width="9" stroke-linecap="round" stroke-linejoin="round" fill="none" stroke="#000000" d="M9571 3098V3183" />
<path transform="matrix(.06,0,0,-.06,0,595)" stroke-width="9" stroke-linecap="round" stroke-linejoin="round" fill="none" stroke="#000000" d="M9260 3140H9444" />
<path transform="matrix(.06,0,0,-.06,0,595)" stroke-width="9" stroke-linecap="round" stroke-linejoin="round" fill="none" stroke="#000000" d="M9697 3140H9882" />
<path transform="matrix(.06,0,0,-.06,0,595)" stroke-width="9" stroke-linecap="round" stroke-linejoin="round" fill="none" stroke="#000000" d="M9571 2829V3014" />
<path transform="matrix(.06,0,0,-.06,0,595)" stroke-width="9" stroke-linecap="round" stroke-linejoin="round" fill="none" stroke="#000000" d="M9571 3267V3451" />
<path transform="matrix(.06,0,0,-.06,0,595)" stroke-width="9" stroke-linecap="round" stroke-linejoin="round" fill="none" stroke="#000000" d="M4609 2660H4693" />
<path transform="matrix(.06,0,0,-.06,0,595)" stroke-width="9" stroke-linecap="round" stroke-linejoin="round" fill="none" stroke="#000000" d="M4651 2618V2703" />
<path transform="matrix(.06,0,0,-.06,0,595)" stroke-width="9" stroke-linecap="round" stroke-linejoin="round" fill="none" stroke="#000000" d="M4340 2660H4524" />
<path transform="matrix(.06,0,0,-.06,0,595)" stroke-width="9" stroke-linecap="round" stroke-linejoin="round" fill="none" stroke="#000000" d="M4778 2660H4962" />
<path transform="matrix(.06,0,0,-.06,0,595)" stroke-width="9" stroke-linecap="round" stroke-linejoin="round" fill="none" stroke="#000000" d="M4651 2349V2534" />
<path transform="matrix(.06,0,0,-.06,0,595)" stroke-width="9" stroke-linecap="round" stroke-linejoin="round" fill="none" stroke="#000000" d="M4651 2787V2971" />
<path transform="matrix(.06,0,0,-.06,0,595)" stroke-width="9" stroke-linecap="round" stroke-linejoin="round" fill="none" stroke="#000000" d="M4962 5129H5047" />
<path transform="matrix(.06,0,0,-.06,0,595)" stroke-width="9" stroke-linecap="round" stroke-linejoin="round" fill="none" stroke="#000000" d="M5004 5087V5171" />
<path transform="matrix(.06,0,0,-.06,0,595)" stroke-width="9" stroke-linecap="round" stroke-linejoin="round" fill="none" stroke="#000000" d="M4688 5129H4878" />
<path transform="matrix(.06,0,0,-.06,0,595)" stroke-width="9" stroke-linecap="round" stroke-linejoin="round" fill="none" stroke="#000000" d="M5131 5129H5321" />
<path transform="matrix(.06,0,0,-.06,0,595)" stroke-width="9" stroke-linecap="round" stroke-linejoin="round" fill="none" stroke="#000000" d="M5004 4813V5003" />
<path transform="matrix(.06,0,0,-.06,0,595)" stroke-width="9" stroke-linecap="round" stroke-linejoin="round" fill="none" stroke="#000000" d="M5004 5256V5446" />
<path transform="matrix(.06,0,0,-.06,0,595)" stroke-width="9" stroke-linecap="round" stroke-linejoin="round" fill="none" stroke="#000000" d="M7324 5129H7409" />
<path transform="matrix(.06,0,0,-.06,0,595)" stroke-width="9" stroke-linecap="round" stroke-linejoin="round" fill="none" stroke="#000000" d="M7366 5087V5171" />
<path transform="matrix(.06,0,0,-.06,0,595)" stroke-width="9" stroke-linecap="round" stroke-linejoin="round" fill="none" stroke="#000000" d="M7050 5129H7240" />
<path transform="matrix(.06,0,0,-.06,0,595)" stroke-width="9" stroke-linecap="round" stroke-linejoin="round" fill="none" stroke="#000000" d="M7493 5129H7683" />
<path transform="matrix(.06,0,0,-.06,0,595)" stroke-width="9" stroke-linecap="round" stroke-linejoin="round" fill="none" stroke="#000000" d="M7366 4813V5003" />
<path transform="matrix(.06,0,0,-.06,0,595)" stroke-width="9" stroke-linecap="round" stroke-linejoin="round" fill="none" stroke="#000000" d="M7366 5256V5446" />
</g>
<g inkscape:groupmode="layer" inkscape:label="FD_Dimensions">
<path transform="matrix(.06,0,0,-.06,0,595)" stroke-width="9" stroke-linecap="round" stroke-linejoin="round" fill="none" stroke="#000000" d="M9945 7685V8181" />
<path transform="matrix(.06,0,0,-.06,0,595)" stroke-width="9" stroke-linecap="round" stroke-linejoin="round" fill="none" stroke="#000000" d="M3331 7685V8181" />
<path transform="matrix(.06,0,0,-.06,0,595)" stroke-width="9" stroke-linecap="round" stroke-linejoin="round" fill="none" stroke="#000000" d="M9780 8082H3496" />
<path transform="matrix(.06,0,0,-.06,0,595)" d="M9780 8109V8054L9945 8082Z" />
<path transform="matrix(.06,0,0,-.06,0,595)" stroke-linecap="round" stroke-miterlimit="10" stroke-linejoin="miter" fill="none" stroke="#000000" d="M9780 8109V8054L9945 8082Z" />
<path transform="matrix(.06,0,0,-.06,0,595)" d="M3496 8109V8054L3331 8082Z" />
<path transform="matrix(.06,0,0,-.06,0,595)" stroke-linecap="round" stroke-miterlimit="10" stroke-linejoin="miter" fill="none" stroke="#000000" d="M3496 8109V8054L3331 8082Z" />
</g>
</g>
<g clip-path="url(#clip_3)">
<g inkscape:groupmode="layer" inkscape:label="FD_Dimensions">
<path d="M 378.744 99.604 L 378.744 99.208 L 379.140 98.416 L 379.536 98.020 L 380.328 97.624 L 381.912 97.624 L 382.704 98.020 L 383.100 98.416 L 383.496 99.208 L 383.496 100.000 L 383.100 100.792 L 382.308 101.980 L 378.348 105.940 L 383.892 105.940" fill="none" stroke="black" stroke-width="1" /><path d="M 386.450 103.960 L 386.054 104.356 L 386.450 104.752 L 386.846 104.356 L 386.450 103.960" fill="none" stroke="black" stroke-width="1" /><path d="M 395.451 97.624 L 391.491 105.940 M 389.907 97.624 L 395.451 97.624" fill="none" stroke="black" stroke-width="1" /><path d="M 402.365 97.624 L 398.405 97.624 L 398.009 101.188 L 398.405 100.792 L 399.593 100.396 L 400.781 100.396 L 401.969 100.792 L 402.761 101.584 L 403.157 102.772 L 403.157 103.564 L 402.761 104.752 L 401.969 105.544 L 400.781 105.940 L 399.593 105.940 L 398.405 105.544 L 398.009 105.148 L 397.613 104.356" fill="none" stroke="black" stroke-width="1" /><path d="M 410.071 97.624 L 406.111 97.624 L 405.715 101.188 L 406.111 100.792 L 407.299 100.396 L 408.487 100.396 L 409.675 100.792 L 410.467 101.584 L 410.863 102.772 L 410.863 103.564 L 410.467 104.752 L 409.675 105.544 L 408.487 105.940 L 407.299 105.940 L 406.111 105.544 L 405.715 105.148 L 405.319 104.356" fill="none" stroke="black" stroke-width="1" /><path d="M 418.172 100.396 L 417.776 101.584 L 416.984 102.376 L 415.797 102.772 L 415.401 102.772 L 414.213 102.376 L 413.421 101.584 L 413.025 100.396 L 413.025 100.000 L 413.421 98.812 L 414.213 98.020 L 415.401 97.624 L 415.797 97.624 L 416.984 98.020 L 417.776 98.812 L 418.172 100.396 L 418.172 102.376 L 417.776 104.356 L 416.984 105.544 L 415.797 105.940 L 415.005 105.940 L 413.817 105.544 L 413.421 104.752" fill="none" stroke="black" stroke-width="1" /></g>
</g>
<g clip-path="url(#clip_5)">
<path transform="matrix(.06,0,0,-.06,0,595)" stroke-width="9" stroke-linecap="round" stroke-linejoin="round" fill="none" stroke="#000000" d="M3232 7586H2736" />
<path transform="matrix(.06,0,0,-.06,0,595)" stroke-width="9" stroke-linecap="round" stroke-linejoin="round" fill="none" stroke="#000000" d="M3232 2295H2736" />
<path transform="matrix(.06,0,0,-.06,0,595)" stroke-width="9" stroke-linecap="round" stroke-linejoin="round" fill="none" stroke="#000000" d="M2835 7420V2460" />
<path transform="matrix(.06,0,0,-.06,0,595)" d="M2807 7420H2863L2835 7586Z" />
<path transform="matrix(.06,0,0,-.06,0,595)" stroke-linecap="round" stroke-miterlimit="10" stroke-linejoin="miter" fill="none" stroke="#000000" d="M2807 7420H2863L2835 7586Z" />
<path transform="matrix(.06,0,0,-.06,0,595)" d="M2807 2460H2863L2835 2295Z" />
<path transform="matrix(.06,0,0,-.06,0,595)" stroke-linecap="round" stroke-miterlimit="10" stroke-linejoin="miter" fill="none" stroke="#000000" d="M2807 2460H2863L2835 2295Z" />
<path d="M 159.624 318.076 L 159.228 318.076 L 158.436 317.680 L 158.040 317.284 L 157.644 316.492 L 157.644 314.908 L 158.040 314.116 L 158.436 313.720 L 159.228 313.324 L 160.020 313.324 L 160.812 313.720 L 162.000 314.512 L 165.960 318.472 L 165.960 312.928" fill="none" stroke="black" stroke-width="1" /><path d="M 163.980 310.370 L 164.376 310.766 L 164.772 310.370 L 164.376 309.974 L 163.980 310.370" fill="none" stroke="black" stroke-width="1" /><path d="M 159.624 306.517 L 159.228 306.517 L 158.436 306.121 L 158.040 305.725 L 157.644 304.933 L 157.644 303.349 L 158.040 302.557 L 158.436 302.161 L 159.228 301.765 L 160.020 301.765 L 160.812 302.161 L 162.000 302.953 L 165.960 306.913 L 165.960 301.369" fill="none" stroke="black" stroke-width="1" /><path d="M 157.644 296.831 L 158.040 298.019 L 159.228 298.811 L 161.208 299.207 L 162.396 299.207 L 164.376 298.811 L 165.564 298.019 L 165.960 296.831 L 165.960 296.039 L 165.564 294.851 L 164.376 294.059 L 162.396 293.663 L 161.208 293.663 L 159.228 294.059 L 158.040 294.851 L 157.644 296.039 L 157.644 296.831" fill="none" stroke="black" stroke-width="1" /><path d="M 157.644 287.541 L 163.188 291.501 L 163.188 285.561 M 157.644 287.541 L 165.960 287.541" fill="none" stroke="black" stroke-width="1" /><path d="M 157.644 278.252 L 165.960 282.211 M 157.644 283.795 L 157.644 278.252" fill="none" stroke="black" stroke-width="1" /><g inkscape:groupmode="layer" inkscape:label="Smart Centers">
<path transform="matrix(.06,0,0,-.06,0,595)" stroke-width="9" stroke-linecap="round" stroke-linejoin="round" fill="none" stroke="#000000" d="M10110 4940H9802" />
<path transform="matrix(.06,0,0,-.06,0,595)" stroke-width="9" stroke-linecap="round" stroke-linejoin="round" fill="none" stroke="#000000" d="M9718 4940H9633" />
<path transform="matrix(.06,0,0,-.06,0,595)" stroke-width="9" stroke-linecap="round" stroke-linejoin="round" fill="none" stroke="#000000" d="M9549 4940H9043" />
<path transform="matrix(.06,0,0,-.06,0,595)" stroke-width="9" stroke-linecap="round" stroke-linejoin="round" fill="none" stroke="#000000" d="M8958 4940H8874" />
<path transform="matrix(.06,0,0,-.06,0,595)" stroke-width="9" stroke-linecap="round" stroke-linejoin="round" fill="none" stroke="#000000" d="M8789 4940H8283" />
<path transform="matrix(.06,0,0,-.06,0,595)" stroke-width="9" stroke-linecap="round" stroke-linejoin="round" fill="none" stroke="#000000" d="M8199 4940H8115" />
<path transform="matrix(.06,0,0,-.06,0,595)" stroke-width="9" stroke-linecap="round" stroke-linejoin="round" fill="none" stroke="#000000" d="M8030 4940H7524" />
<path transform="matrix(.06,0,0,-.06,0,595)" stroke-width="9" stroke-linecap="round" stroke-linejoin="round" fill="none" stroke="#000000" d="M7440 4940H7355" />
<path transform="matrix(.06,0,0,-.06,0,595)" stroke-width="9" stroke-linecap="round" stroke-linejoin="round" fill="none" stroke="#000000" d="M7271 4940H6765" />
<path transform="matrix(.06,0,0,-.06,0,595)" stroke-width="9" stroke-linecap="round" stroke-linejoin="round" fill="none" stroke="#000000" d="M6680 4940H6596" />
<path transform="matrix(.06,0,0,-.06,0,595)" stroke-width="9" stroke-linecap="round" stroke-linejoin="round" fill="none" stroke="#000000" d="M6511 4940H6005" />
<path transform="matrix(.06,0,0,-.06,0,595)" stroke-width="9" stroke-linecap="round" stroke-linejoin="round" fill="none" stroke="#000000" d="M5921 4940H5836" />
<path transform="matrix(.06,0,0,-.06,0,595)" stroke-width="9" stroke-linecap="round" stroke-linejoin="round" fill="none" stroke="#000000" d="M5752 4940H5246" />
<path transform="matrix(.06,0,0,-.06,0,595)" stroke-width="9" stroke-linecap="round" stroke-linejoin="round" fill="none" stroke="#000000" d="M5161 4940H5077" />
<path transform="matrix(.06,0,0,-.06,0,595)" stroke-width="9" stroke-linecap="round" stroke-linejoin="round" fill="none" stroke="#000000" d="M4993 4940H4487" />
<path transform="matrix(.06,0,0,-.06,0,595)" stroke-width="9" stroke-linecap="round" stroke-linejoin="round" fill="none" stroke="#000000" d="M4402 4940H4318" />
<path transform="matrix(.06,0,0,-.06,0,595)" stroke-width="9" stroke-linecap="round" stroke-linejoin="round" fill="none" stroke="#000000" d="M4233 4940H3727" />
<path transform="matrix(.06,0,0,-.06,0,595)" stroke-width="9" stroke-linecap="round" stroke-linejoin="round" fill="none" stroke="#000000" d="M3643 4940H3558" />
<path transform="matrix(.06,0,0,-.06,0,595)" stroke-width="9" stroke-linecap="round" stroke-linejoin="round" fill="none" stroke="#000000" d="M3474 4940H3166" />
<path transform="matrix(.06,0,0,-.06,0,595)" stroke-width="9" stroke-linecap="round" stroke-linejoin="round" fill="none" stroke="#000000" d="M6638 7751V7345" />
<path transform="matrix(.06,0,0,-.06,0,595)" stroke-width="9" stroke-linecap="round" stroke-linejoin="round" fill="none" stroke="#000000" d="M6638 7260V7176" />
<path transform="matrix(.06,0,0,-.06,0,595)" stroke-width="9" stroke-linecap="round" stroke-linejoin="round" fill="none" stroke="#000000" d="M6638 7092V6585" />
<path transform="matrix(.06,0,0,-.06,0,595)" stroke-width="9" stroke-linecap="round" stroke-linejoin="round" fill="none" stroke="#000000" d="M6638 6501V6417" />
<path transform="matrix(.06,0,0,-.06,0,595)" stroke-width="9" stroke-linecap="round" stroke-linejoin="round" fill="none" stroke="#000000" d="M6638 6332V5826" />
<path transform="matrix(.06,0,0,-.06,0,595)" stroke-width="9" stroke-linecap="round" stroke-linejoin="round" fill="none" stroke="#000000" d="M6638 5742V5657" />
<path transform="matrix(.06,0,0,-.06,0,595)" stroke-width="9" stroke-linecap="round" stroke-linejoin="round" fill="none" stroke="#000000" d="M6638 5573V5067" />
<path transform="matrix(.06,0,0,-.06,0,595)" stroke-width="9" stroke-linecap="round" stroke-linejoin="round" fill="none" stroke="#000000" d="M6638 4982V4898" />
<path transform="matrix(.06,0,0,-.06,0,595)" stroke-width="9" stroke-linecap="round" stroke-linejoin="round" fill="none" stroke="#000000" d="M6638 4814V4307" />
<path transform="matrix(.06,0,0,-.06,0,595)" stroke-width="9" stroke-linecap="round" stroke-linejoin="round" fill="none" stroke="#000000" d="M6638 4223V4139" />
<path transform="matrix(.06,0,0,-.06,0,595)" stroke-width="9" stroke-linecap="round" stroke-linejoin="round" fill="none" stroke="#000000" d="M6638 4054V3548" />
<path transform="matrix(.06,0,0,-.06,0,595)" stroke-width="9" stroke-linecap="round" stroke-linejoin="round" fill="none" stroke="#000000" d="M6638 3464V3379" />
<path transform="matrix(.06,0,0,-.06,0,595)" stroke-width="9" stroke-linecap="round" stroke-linejoin="round" fill="none" stroke="#000000" d="M6638 3295V2789" />
<path transform="matrix(.06,0,0,-.06,0,595)" stroke-width="9" stroke-linecap="round" stroke-linejoin="round" fill="none" stroke="#000000" d="M6638 2704V2620" />
<path transform="matrix(.06,0,0,-.06,0,595)" stroke-width="9" stroke-linecap="round" stroke-linejoin="round" fill="none" stroke="#000000" d="M6638 2536V2129" />
</g>
<g inkscape:groupmode="layer" inkscape:label="FD_Dimensions">
<path transform="matrix(.06,0,0,-.06,0,595)" stroke-width="9" stroke-linecap="round" stroke-linejoin="round" fill="none" stroke="#000000" d="M6737 4940H10476" />
<path d="M 625.104 286.144 L 623.916 286.540 L 623.124 287.728 L 622.728 289.708 L 622.728 290.896 L 623.124 292.876 L 623.916 294.064 L 625.104 294.460 L 625.896 294.460 L 627.084 294.064 L 627.876 292.876 L 628.272 290.896 L 628.272 289.708 L 627.876 287.728 L 627.084 286.540 L 625.896 286.144 L 625.104 286.144" fill="none" stroke="black" stroke-width="1" /><path transform="matrix(.06,0,0,-.06,0,595)" stroke-width="9" stroke-linecap="round" stroke-linejoin="round" fill="none" stroke="#000000" d="M9670 5780H10712" />
<path d="M 625.584 242.080 L 625.188 242.476 L 625.584 242.872 L 625.980 242.476 L 625.584 242.080" fill="none" stroke="black" stroke-width="1" /><path d="M 629.833 235.744 L 634.189 235.744 L 631.813 238.912 L 633.001 238.912 L 633.793 239.308 L 634.189 239.704 L 634.585 240.892 L 634.585 241.684 L 634.189 242.872 L 633.397 243.664 L 632.209 244.060 L 631.021 244.060 L 629.833 243.664 L 629.437 243.268 L 629.041 242.476" fill="none" stroke="black" stroke-width="1" /><path d="M 641.499 235.744 L 637.539 235.744 L 637.143 239.308 L 637.539 238.912 L 638.727 238.516 L 639.915 238.516 L 641.103 238.912 L 641.895 239.704 L 642.291 240.892 L 642.291 241.684 L 641.895 242.872 L 641.103 243.664 L 639.915 244.060 L 638.727 244.060 L 637.539 243.664 L 637.143 243.268 L 636.747 242.476" fill="none" stroke="black" stroke-width="1" /><path transform="matrix(.06,0,0,-.06,0,595)" stroke-width="9" stroke-linecap="round" stroke-linejoin="round" fill="none" stroke="#000000" d="M9670 3140H10686" />
<path d="M 624.024 400.480 L 623.628 400.876 L 624.024 401.272 L 624.420 400.876 L 624.024 400.480" fill="none" stroke="black" stroke-width="1" /><path d="M 633.025 394.144 L 629.065 402.460 M 627.481 394.144 L 633.025 394.144" fill="none" stroke="black" stroke-width="1" /><path d="M 639.939 394.144 L 635.979 394.144 L 635.583 397.708 L 635.979 397.312 L 637.167 396.916 L 638.355 396.916 L 639.543 397.312 L 640.335 398.104 L 640.731 399.292 L 640.731 400.084 L 640.335 401.272 L 639.543 402.064 L 638.355 402.460 L 637.167 402.460 L 635.979 402.064 L 635.583 401.668 L 635.187 400.876" fill="none" stroke="black" stroke-width="1" /><path transform="matrix(.06,0,0,-.06,0,595)" stroke-width="9" stroke-linecap="round" stroke-linejoin="round" fill="none" stroke="#000000" d="M4750 2660H5527" />
<path d="M 314.484 429.280 L 314.088 429.676 L 314.484 430.072 L 314.880 429.676 L 314.484 429.280" fill="none" stroke="black" stroke-width="1" /><path d="M 323.089 425.716 L 322.693 426.904 L 321.901 427.696 L 320.713 428.092 L 320.317 428.092 L 319.129 427.696 L 318.337 426.904 L 317.941 425.716 L 317.941 425.320 L 318.337 424.132 L 319.129 423.340 L 320.317 422.944 L 320.713 422.944 L 321.901 423.340 L 322.693 424.132 L 323.089 425.716 L 323.089 427.696 L 322.693 429.676 L 321.901 430.864 L 320.713 431.260 L 319.921 431.260 L 318.733 430.864 L 318.337 430.072" fill="none" stroke="black" stroke-width="1" /><path d="M 330.399 422.944 L 326.439 422.944 L 326.043 426.508 L 326.439 426.112 L 327.627 425.716 L 328.815 425.716 L 330.003 426.112 L 330.795 426.904 L 331.191 428.092 L 331.191 428.884 L 330.795 430.072 L 330.003 430.864 L 328.815 431.260 L 327.627 431.260 L 326.439 430.864 L 326.043 430.468 L 325.647 429.676" fill="none" stroke="black" stroke-width="1" /><path transform="matrix(.06,0,0,-.06,0,595)" stroke-width="9" stroke-linecap="round" stroke-linejoin="round" fill="none" stroke="#000000" d="M5104 5129H5934" />
<path d="M 323.544 281.140 L 323.148 281.536 L 323.544 281.932 L 323.940 281.536 L 323.544 281.140" fill="none" stroke="black" stroke-width="1" /><path d="M 329.377 274.804 L 328.189 275.200 L 327.397 276.388 L 327.001 278.368 L 327.001 279.556 L 327.397 281.536 L 328.189 282.724 L 329.377 283.120 L 330.169 283.120 L 331.357 282.724 L 332.149 281.536 L 332.545 279.556 L 332.545 278.368 L 332.149 276.388 L 331.357 275.200 L 330.169 274.804 L 329.377 274.804" fill="none" stroke="black" stroke-width="1" /><path d="M 340.251 274.804 L 336.291 283.120 M 334.707 274.804 L 340.251 274.804" fill="none" stroke="black" stroke-width="1" /><path d="M 344.393 274.804 L 343.205 275.200 L 342.809 275.992 L 342.809 276.784 L 343.205 277.576 L 343.997 277.972 L 345.581 278.368 L 346.769 278.764 L 347.561 279.556 L 347.957 280.348 L 347.957 281.536 L 347.561 282.328 L 347.165 282.724 L 345.977 283.120 L 344.393 283.120 L 343.205 282.724 L 342.809 282.328 L 342.413 281.536 L 342.413 280.348 L 342.809 279.556 L 343.601 278.764 L 344.789 278.368 L 346.373 277.972 L 347.165 277.576 L 347.561 276.784 L 347.561 275.992 L 347.165 275.200 L 345.977 274.804 L 344.393 274.804" fill="none" stroke="black" stroke-width="1" /><path d="M 355.663 274.804 L 351.703 283.120 M 350.119 274.804 L 355.663 274.804" fill="none" stroke="black" stroke-width="1" /><path transform="matrix(.06,0,0,-.06,0,595)" stroke-width="9" stroke-linecap="round" stroke-linejoin="round" fill="none" stroke="#000000" d="M7366 5228V6294" />
<path d="M 435.840 249.856 L 436.236 250.252 L 436.632 249.856 L 436.236 249.460 L 435.840 249.856" fill="none" stroke="black" stroke-width="1" /><path d="M 429.504 245.607 L 429.504 241.251 L 432.672 243.627 L 432.672 242.439 L 433.068 241.647 L 433.464 241.251 L 434.652 240.855 L 435.444 240.855 L 436.632 241.251 L 437.424 242.043 L 437.820 243.231 L 437.820 244.419 L 437.424 245.607 L 437.028 246.003 L 436.236 246.399" fill="none" stroke="black" stroke-width="1" /><path d="M 429.504 236.317 L 429.900 237.505 L 431.088 238.297 L 433.068 238.693 L 434.256 238.693 L 436.236 238.297 L 437.424 237.505 L 437.820 236.317 L 437.820 235.525 L 437.424 234.337 L 436.236 233.545 L 434.256 233.149 L 433.068 233.149 L 431.088 233.545 L 429.900 234.337 L 429.504 235.525 L 429.504 236.317" fill="none" stroke="black" stroke-width="1" /><path d="M 429.504 230.195 L 429.504 225.839 L 432.672 228.215 L 432.672 227.027 L 433.068 226.235 L 433.464 225.839 L 434.652 225.443 L 435.444 225.443 L 436.632 225.839 L 437.424 226.631 L 437.820 227.819 L 437.820 229.007 L 437.424 230.195 L 437.028 230.591 L 436.236 230.987" fill="none" stroke="black" stroke-width="1" /><path d="M 429.504 218.529 L 429.504 222.489 L 433.068 222.885 L 432.672 222.489 L 432.276 221.301 L 432.276 220.113 L 432.672 218.925 L 433.464 218.133 L 434.652 217.737 L 435.444 217.737 L 436.632 218.133 L 437.424 218.925 L 437.820 220.113 L 437.820 221.301 L 437.424 222.489 L 437.028 222.885 L 436.236 223.281" fill="none" stroke="black" stroke-width="1" /><path transform="matrix(.06,0,0,-.06,0,595)" stroke-width="9" stroke-linecap="round" stroke-linejoin="round" fill="none" stroke="#000000" d="M5004 5228V6227" />
<path d="M 294.120 253.816 L 294.516 254.212 L 294.912 253.816 L 294.516 253.420 L 294.120 253.816" fill="none" stroke="black" stroke-width="1" /><path d="M 288.972 245.211 L 288.180 245.607 L 287.784 246.795 L 287.784 247.587 L 288.180 248.775 L 289.368 249.567 L 291.348 249.963 L 293.328 249.963 L 294.912 249.567 L 295.704 248.775 L 296.100 247.587 L 296.100 247.191 L 295.704 246.003 L 294.912 245.211 L 293.724 244.815 L 293.328 244.815 L 292.140 245.211 L 291.348 246.003 L 290.952 247.191 L 290.952 247.587 L 291.348 248.775 L 292.140 249.567 L 293.328 249.963" fill="none" stroke="black" stroke-width="1" /><path d="M 287.784 240.673 L 288.180 241.861 L 288.972 242.257 L 289.764 242.257 L 290.556 241.861 L 290.952 241.069 L 291.348 239.485 L 291.744 238.297 L 292.536 237.505 L 293.328 237.109 L 294.516 237.109 L 295.308 237.505 L 295.704 237.901 L 296.100 239.089 L 296.100 240.673 L 295.704 241.861 L 295.308 242.257 L 294.516 242.653 L 293.328 242.653 L 292.536 242.257 L 291.744 241.465 L 291.348 240.277 L 290.952 238.693 L 290.556 237.901 L 289.764 237.505 L 288.972 237.505 L 288.180 237.901 L 287.784 239.089 L 287.784 240.673" fill="none" stroke="black" stroke-width="1" /><path d="M 287.784 232.571 L 288.180 233.759 L 289.368 234.551 L 291.348 234.947 L 292.536 234.947 L 294.516 234.551 L 295.704 233.759 L 296.100 232.571 L 296.100 231.779 L 295.704 230.591 L 294.516 229.799 L 292.536 229.403 L 291.348 229.403 L 289.368 229.799 L 288.180 230.591 L 287.784 231.779 L 287.784 232.571" fill="none" stroke="black" stroke-width="1" /><path d="M 287.784 221.697 L 296.100 225.657 M 287.784 227.241 L 287.784 221.697" fill="none" stroke="black" stroke-width="1" /><path transform="matrix(.06,0,0,-.06,0,595)" stroke-width="9" stroke-linecap="round" stroke-linejoin="round" fill="none" stroke="#000000" d="M9571 5879V6882" />
<path d="M 563.568 213.664 L 563.172 212.872 L 561.984 211.684 L 570.300 211.684" fill="none" stroke="black" stroke-width="1" /><path d="M 568.320 206.750 L 568.716 207.146 L 569.112 206.750 L 568.716 206.354 L 568.320 206.750" fill="none" stroke="black" stroke-width="1" /><path d="M 563.964 202.897 L 563.568 202.897 L 562.776 202.501 L 562.380 202.105 L 561.984 201.313 L 561.984 199.729 L 562.380 198.937 L 562.776 198.541 L 563.568 198.145 L 564.360 198.145 L 565.152 198.541 L 566.340 199.333 L 570.300 203.293 L 570.300 197.749" fill="none" stroke="black" stroke-width="1" /><path d="M 563.964 195.191 L 563.568 195.191 L 562.776 194.795 L 562.380 194.399 L 561.984 193.607 L 561.984 192.023 L 562.380 191.231 L 562.776 190.835 L 563.568 190.439 L 564.360 190.439 L 565.152 190.835 L 566.340 191.627 L 570.300 195.587 L 570.300 190.043" fill="none" stroke="black" stroke-width="1" /><path d="M 563.964 187.485 L 563.568 187.485 L 562.776 187.089 L 562.380 186.693 L 561.984 185.901 L 561.984 184.317 L 562.380 183.525 L 562.776 183.129 L 563.568 182.733 L 564.360 182.733 L 565.152 183.129 L 566.340 183.921 L 570.300 187.881 L 570.300 182.337" fill="none" stroke="black" stroke-width="1" /><path transform="matrix(.06,0,0,-.06,0,595)" stroke-width="9" stroke-linecap="round" stroke-linejoin="round" fill="none" stroke="#000000" d="M4651 2760V3904" />
<path d="M 272.940 385.516 L 273.336 385.912 L 273.732 385.516 L 273.336 385.120 L 272.940 385.516" fill="none" stroke="black" stroke-width="1" /><path d="M 266.604 380.079 L 267.000 381.267 L 267.792 381.663 L 268.584 381.663 L 269.376 381.267 L 269.772 380.475 L 270.168 378.891 L 270.564 377.703 L 271.356 376.911 L 272.148 376.515 L 273.336 376.515 L 274.128 376.911 L 274.524 377.307 L 274.920 378.495 L 274.920 380.079 L 274.524 381.267 L 274.128 381.663 L 273.336 382.059 L 272.148 382.059 L 271.356 381.663 L 270.564 380.871 L 270.168 379.683 L 269.772 378.099 L 269.376 377.307 L 268.584 376.911 L 267.792 376.911 L 267.000 377.307 L 266.604 378.495 L 266.604 380.079" fill="none" stroke="black" stroke-width="1" /><path d="M 268.584 373.957 L 268.188 373.957 L 267.396 373.561 L 267.000 373.165 L 266.604 372.373 L 266.604 370.789 L 267.000 369.997 L 267.396 369.601 L 268.188 369.205 L 268.980 369.205 L 269.772 369.601 L 270.960 370.393 L 274.920 374.353 L 274.920 368.809" fill="none" stroke="black" stroke-width="1" /><path d="M 266.604 364.667 L 267.000 365.855 L 267.792 366.251 L 268.584 366.251 L 269.376 365.855 L 269.772 365.063 L 270.168 363.479 L 270.564 362.291 L 271.356 361.499 L 272.148 361.103 L 273.336 361.103 L 274.128 361.499 L 274.524 361.895 L 274.920 363.083 L 274.920 364.667 L 274.524 365.855 L 274.128 366.251 L 273.336 366.647 L 272.148 366.647 L 271.356 366.251 L 270.564 365.459 L 270.168 364.271 L 269.772 362.687 L 269.376 361.895 L 268.584 361.499 L 267.792 361.499 L 267.000 361.895 L 266.604 363.083 L 266.604 364.667" fill="none" stroke="black" stroke-width="1" /></g>
<g inkscape:groupmode="layer" inkscape:label="Hole Notes">
<path d="M 623.700 360.484 L 628.056 360.484 L 625.680 363.652 L 626.868 363.652 L 627.660 364.048 L 628.056 364.444 L 628.452 365.632 L 628.452 366.424 L 628.056 367.612 L 627.264 368.404 L 626.076 368.800 L 624.888 368.800 L 623.700 368.404 L 623.304 368.008 L 622.908 367.216" fill="none" stroke="black" stroke-width="1" /><path d="M 630.614 363.256 L 634.970 368.800 M 634.970 363.256 L 630.614 368.800" fill="none" stroke="black" stroke-width="1" /><use data-text=" " xlink:href="#font_4_3" transform="matrix(13.859579,0,0,-13.859579,636.35568,368.8)" />
<path d="M 641.784 360.484 L 641.784 368.800 M 641.784 360.484 L 644.952 368.800 M 648.120 360.484 L 644.952 368.800 M 648.120 360.484 L 648.120 368.800" fill="none" stroke="black" stroke-width="1" /><path d="M 653.725 360.484 L 658.081 360.484 L 655.705 363.652 L 656.893 363.652 L 657.685 364.048 L 658.081 364.444 L 658.477 365.632 L 658.477 366.424 L 658.081 367.612 L 657.289 368.404 L 656.101 368.800 L 654.913 368.800 L 653.725 368.404 L 653.329 368.008 L 652.933 367.216" fill="none" stroke="black" stroke-width="1" /><path d="M 660.639 363.256 L 664.995 368.800 M 664.995 363.256 L 660.639 368.800" fill="none" stroke="black" stroke-width="1" /><path d="M 669.945 360.484 L 668.757 360.880 L 667.965 362.068 L 667.569 364.048 L 667.569 365.236 L 667.965 367.216 L 668.757 368.404 L 669.945 368.800 L 670.737 368.800 L 671.925 368.404 L 672.717 367.216 L 673.112 365.236 L 673.112 364.048 L 672.717 362.068 L 671.925 360.880 L 670.737 360.484 L 669.945 360.484" fill="none" stroke="black" stroke-width="1" /><path d="M 675.671 366.820 L 675.275 367.216 L 675.671 367.612 L 676.067 367.216 L 675.671 366.820" fill="none" stroke="black" stroke-width="1" /><path d="M 683.879 360.484 L 679.919 360.484 L 679.523 364.048 L 679.919 363.652 L 681.107 363.256 L 682.295 363.256 L 683.483 363.652 L 684.275 364.444 L 684.671 365.632 L 684.671 366.424 L 684.275 367.612 L 683.483 368.404 L 682.295 368.800 L 681.107 368.800 L 679.919 368.404 L 679.523 368.008 L 679.127 367.216" fill="none" stroke="black" stroke-width="1" /><use data-text=" " xlink:href="#font_4_3" transform="matrix(13.859579,0,0,-13.859579,685.62,368.8)" />
<path d="M 695.856 361.672 L 695.460 360.880 L 694.272 360.484 L 693.480 360.484 L 692.292 360.880 L 691.500 362.068 L 691.104 364.048 L 691.104 366.028 L 691.500 367.612 L 692.292 368.404 L 693.480 368.800 L 693.876 368.800 L 695.064 368.404 L 695.856 367.612 L 696.252 366.424 L 696.252 366.028 L 695.856 364.840 L 695.064 364.048 L 693.876 363.652 L 693.480 363.652 L 692.292 364.048 L 691.500 364.840 L 691.104 366.028" fill="none" stroke="black" stroke-width="1" /><path d="M 698.810 360.484 L 698.810 368.800 M 704.354 360.484 L 704.354 368.800 M 698.810 364.444 L 704.354 364.444" fill="none" stroke="black" stroke-width="1" /><use data-text=" " xlink:href="#font_4_3" transform="matrix(13.859579,0,0,-13.859579,707.22,368.8)" />
<path d="M 712.261 363.256 L 716.617 368.800 M 716.617 363.256 L 712.261 368.800" fill="none" stroke="black" stroke-width="1" /><use data-text=" " xlink:href="#font_4_3" transform="matrix(13.859579,0,0,-13.859579,718.0027,368.8)" />
<path d="M 723.444 366.820 L 723.048 367.216 L 723.444 367.612 L 723.840 367.216 L 723.444 366.820" fill="none" stroke="black" stroke-width="1" /><path d="M 729.277 360.484 L 728.089 360.880 L 727.297 362.068 L 726.901 364.048 L 726.901 365.236 L 727.297 367.216 L 728.089 368.404 L 729.277 368.800 L 730.069 368.800 L 731.257 368.404 L 732.049 367.216 L 732.445 365.236 L 732.445 364.048 L 732.049 362.068 L 731.257 360.880 L 730.069 360.484 L 729.277 360.484" fill="none" stroke="black" stroke-width="1" /><path d="M 736.587 360.484 L 735.399 360.880 L 735.003 361.672 L 735.003 362.464 L 735.399 363.256 L 736.191 363.652 L 737.775 364.048 L 738.963 364.444 L 739.755 365.236 L 740.151 366.028 L 740.151 367.216 L 739.755 368.008 L 739.359 368.404 L 738.171 368.800 L 736.587 368.800 L 735.399 368.404 L 735.003 368.008 L 734.607 367.216 L 734.607 366.028 L 735.003 365.236 L 735.795 364.444 L 736.983 364.048 L 738.567 363.652 L 739.359 363.256 L 739.755 362.464 L 739.755 361.672 L 739.359 360.880 L 738.171 360.484 L 736.587 360.484" fill="none" stroke="black" stroke-width="1" /><path d="M 747.857 360.484 L 743.897 368.800 M 742.313 360.484 L 747.857 360.484" fill="none" stroke="black" stroke-width="1" /><path d="M 751.999 360.484 L 750.811 360.880 L 750.415 361.672 L 750.415 362.464 L 750.811 363.256 L 751.603 363.652 L 753.186 364.048 L 754.374 364.444 L 755.166 365.236 L 755.562 366.028 L 755.562 367.216 L 755.166 368.008 L 754.770 368.404 L 753.582 368.800 L 751.999 368.800 L 750.811 368.404 L 750.415 368.008 L 750.019 367.216 L 750.019 366.028 L 750.415 365.236 L 751.207 364.444 L 752.394 364.048 L 753.978 363.652 L 754.770 363.256 L 755.166 362.464 L 755.166 361.672 L 754.770 360.880 L 753.582 360.484 L 751.999 360.484" fill="none" stroke="black" stroke-width="1" /><path d="M 764.460 358.900 L 757.332 371.572" fill="none" stroke="black" stroke-width="1" /><path d="M 761.964 366.820 L 761.568 367.216 L 761.964 367.612 L 762.360 367.216 L 761.964 366.820" fill="none" stroke="black" stroke-width="1" /><path d="M 767.797 360.484 L 766.609 360.880 L 765.817 362.068 L 765.421 364.048 L 765.421 365.236 L 765.817 367.216 L 766.609 368.404 L 767.797 368.800 L 768.589 368.800 L 769.777 368.404 L 770.569 367.216 L 770.965 365.236 L 770.965 364.048 L 770.569 362.068 L 769.777 360.880 L 768.589 360.484 L 767.797 360.484" fill="none" stroke="black" stroke-width="1" /><path d="M 775.107 360.484 L 773.919 360.880 L 773.523 361.672 L 773.523 362.464 L 773.919 363.256 L 774.711 363.652 L 776.295 364.048 L 777.483 364.444 L 778.275 365.236 L 778.671 366.028 L 778.671 367.216 L 778.275 368.008 L 777.879 368.404 L 776.691 368.800 L 775.107 368.800 L 773.919 368.404 L 773.523 368.008 L 773.127 367.216 L 773.127 366.028 L 773.523 365.236 L 774.315 364.444 L 775.503 364.048 L 777.087 363.652 L 777.879 363.256 L 778.275 362.464 L 778.275 361.672 L 777.879 360.880 L 776.691 360.484 L 775.107 360.484" fill="none" stroke="black" stroke-width="1" /><path d="M 786.376 360.484 L 782.417 368.800 M 780.833 360.484 L 786.376 360.484" fill="none" stroke="black" stroke-width="1" /><path d="M 790.519 360.484 L 789.331 360.880 L 788.935 361.672 L 788.935 362.464 L 789.331 363.256 L 790.123 363.652 L 791.707 364.048 L 792.895 364.444 L 793.686 365.236 L 794.082 366.028 L 794.082 367.216 L 793.686 368.008 L 793.290 368.404 L 792.103 368.800 L 790.519 368.800 L 789.331 368.404 L 788.935 368.008 L 788.539 367.216 L 788.539 366.028 L 788.935 365.236 L 789.727 364.444 L 790.915 364.048 L 792.499 363.652 L 793.290 363.256 L 793.686 362.464 L 793.686 361.672 L 793.290 360.880 L 792.103 360.484 L 790.519 360.484" fill="none" stroke="black" stroke-width="1" /><path transform="matrix(.06,0,0,-.06,0,595)" d="M9790 3322 9651 3229 9753 3362Z" />
<path transform="matrix(.06,0,0,-.06,0,595)" stroke-linecap="round" stroke-miterlimit="10" stroke-linejoin="miter" fill="none" stroke="#000000" d="M9790 3322 9651 3229 9753 3362Z" />
<path transform="matrix(.06,0,0,-.06,0,595)" stroke-width="9" stroke-linecap="round" stroke-linejoin="round" fill="none" stroke="#000000" d="M9772 3342 10196 3737H10362 13231" />
</g>
<g inkscape:groupmode="layer" inkscape:label="FD_Dimensions">
<path transform="matrix(.06,0,0,-.06,0,595)" stroke-width="9" stroke-linecap="round" stroke-linejoin="round" fill="none" stroke="#000000" d="M8370 5828 7626 5310" />
<path transform="matrix(.06,0,0,-.06,0,595)" stroke-width="9" stroke-linecap="round" stroke-linejoin="round" fill="none" stroke="#000000" d="M7107 4948 6971 4854" />
<use data-text="Ø" xlink:href="#font_4_145" transform="matrix(11.374002,-7.9195029,-7.9195029,-11.374002,466.02,265.18)" />
<path d="M 475.037 256.489 L 474.939 257.040 L 475.490 257.139 L 475.589 256.587 L 475.037 256.489" fill="none" stroke="black" stroke-width="1" /><path d="M 476.134 249.935 L 476.558 249.157 L 476.854 247.504 L 481.606 254.328" fill="none" stroke="black" stroke-width="1" /><path d="M 482.034 246.309 L 481.808 245.984 L 481.681 245.108 L 481.779 244.557 L 482.203 243.779 L 483.503 242.874 L 484.379 242.747 L 484.930 242.845 L 485.708 243.269 L 486.160 243.919 L 486.288 244.795 L 486.317 246.223 L 485.330 251.735 L 489.879 248.567" fill="none" stroke="black" stroke-width="1" /><path d="M 491.805 238.541 L 491.028 238.117 L 489.827 238.471 L 489.177 238.923 L 488.428 239.927 L 488.457 241.355 L 489.263 243.206 L 490.395 244.831 L 491.625 245.904 L 492.727 246.102 L 493.929 245.748 L 494.253 245.522 L 495.002 244.518 L 495.200 243.415 L 494.846 242.214 L 494.619 241.889 L 493.616 241.141 L 492.513 240.943 L 491.312 241.297 L 490.987 241.523 L 490.238 242.527 L 490.041 243.629 L 490.395 244.831" fill="none" stroke="black" stroke-width="1" /><path transform="matrix(.06,0,0,-.06,0,595)" stroke-width="9" stroke-linecap="round" stroke-linejoin="round" fill="none" stroke="#000000" d="M7242 5043 7491 5216" />
<path transform="matrix(.06,0,0,-.06,0,595)" d="M7091 4971 7122 4926 7242 5043Z" />
<path transform="matrix(.06,0,0,-.06,0,595)" stroke-linecap="round" stroke-miterlimit="10" stroke-linejoin="miter" fill="none" stroke="#000000" d="M7091 4971 7122 4926 7242 5043Z" />
<path transform="matrix(.06,0,0,-.06,0,595)" d="M7610 5333 7642 5287 7491 5216Z" />
<path transform="matrix(.06,0,0,-.06,0,595)" stroke-linecap="round" stroke-miterlimit="10" stroke-linejoin="miter" fill="none" stroke="#000000" d="M7610 5333 7642 5287 7491 5216Z" />
</g>
</g>
</svg>