<?xml version='1.0' encoding='utf-8'?>
<svg xmlns="http://www.w3.org/2000/svg" xmlns:inkscape="http://www.inkscape.org/namespaces/inkscape" xmlns:xlink="http://www.w3.org/1999/xlink" version="1.1" width="842" height="595" viewBox="0 0 842 595">
<defs>
<clipPath id="clip_1">
<path transform="matrix(.06,0,0,-.06,0,595)" d="M3178 2142H10098V7738H3178V2142" />
</clipPath>
<clipPath id="clip_2">
<path transform="matrix(.06,0,0,-.06,0,595)" d="M0 0H14031V9921H0V0" />
</clipPath>
<clipPath id="clip_3">
<path transform="matrix(.06,0,0,-.06,0,595)" d="M0 0H14031V9921H0V0" />
</clipPath>
<path id="font_4_21" d="M.50341799 .084472659V0H.030273438C.029622397 .021148682 .033040365 .041483564 .040527345 .06100464 .052571615 .09321085 .07185873 .124928798 .09838867 .15615845 .12491862 .1873881 .1632487 .22350057 .2133789 .26449586 .29117839 .3282369 .34375 .37872825 .37109376 .41596986 .3984375 .45321147 .41210938 .48841859 .41210938 .5215912 .41210938 .5563914 .3996582 .5857442 .37475587 .60964968 .34985353 .6335551 .3173828 .6455078 .27734376 .6455078 .23502605 .6455078 .20117188 .6328125 .17578125 .6074219 .15039063 .58203127 .13753255 .546875 .13720703 .5019531L.046875 .5112457C.053059896 .5787811 .07633463 .630249 .11669922 .6656494 .1570638 .7010498 .21126302 .71875 .27929688 .71875 .34798179 .71875 .40234376 .69970199 .4423828 .66160586 .48242188 .6235097 .5024414 .57629397 .5024414 .5199585 .5024414 .4913025 .49658204 .46313478 .48486329 .43545533 .47314454 .40777589 .45369468 .3786316 .42651368 .34802247 .39933268 .3174235 .35416667 .27542115 .29101563 .22201538 .23828125 .17779541 .20442708 .14779663 .18945313 .13201905 .17447917 .116251628 .16210938 .10040283 .15234375 .084472659H.50341799Z" />
<path id="font_4_17" d="M.09082031 0V.10058594H.19091797V0H.09082031Z" />
<path id="font_4_26" d="M.04736328 .6225586V.70703127H.5107422V.6386719C.46516929 .5901286 .42000328 .5256246 .37524415 .4451599 .33048503 .36469523 .29589845 .2819519 .27148438 .19692993 .25390626 .13698323 .24267578 .07133993 .23779297 0H.14746094C.1484375 .056355794 .1595052 .12444051 .18066406 .20425415 .20182292 .28407798 .23217774 .3610433 .27172853 .43515016 .3112793 .50926718 .35335288 .57173666 .39794923 .6225586H.04736328Z" />
<path id="font_4_24" d="M.041503908 .18847656 .13378906 .19628906C.140625 .15151978 .15649414 .117863979 .18139649 .095321658 .20629883 .07278951 .23632813 .061523439 .27148438 .061523439 .3138021 .061523439 .34960938 .077448528 .37890626 .109298709 .40820313 .14115906 .42285157 .18341573 .42285157 .23606873 .42285157 .28612773 .4087728 .32562257 .38061524 .35455323 .35245768 .3834839 .31559245 .39794923 .27001954 .39794923 .24169922 .39794923 .21614583 .39156596 .19335938 .37879945 .17057292 .36603294 .15266927 .34946696 .13964844 .32910157L.057128908 .33984376 .12646485 .70703127H.48242188V.62402346H.19677735L.15820313 .43115235C.20117188 .46077476 .24625652 .47558595 .29345704 .47558595 .35595704 .47558595 .4086914 .45391337 .45166017 .41056825 .4946289 .36723329 .5161133 .31151835 .5161133 .24342346 .5161133 .17857361 .49723307 .122528079 .45947267 .075286868 .41357423 .017283122 .35091148-.01171875 .27148438-.01171875 .2063802-.01171875 .15323894 .006556193 .11206055 .04310608 .070882167 .07965597 .04736328 .1281128 .041503908 .18847656Z" />
<path id="font_4_28" d="M.0546875 .16694641 .13916016 .17480469C.14632161 .13509114 .15999349 .106282558 .18017578 .088378909 .20035808 .07047526 .22623699 .061523439 .2578125 .061523439 .28483073 .061523439 .30851237 .067708339 .32885743 .080078128 .34920249 .092447917 .3658854 .1089681 .37890626 .12963867 .3919271 .15030925 .40283204 .17822266 .4116211 .2133789 .42041017 .24853516 .4248047 .28434245 .4248047 .32080079 .4248047 .32470704 .42464195 .3305664 .4243164 .3383789 .40673829 .31038413 .3827311 .28767906 .35229493 .27026368 .32185874 .2528483 .28889976 .24414063 .25341798 .24414063 .19417317 .24414063 .14404297 .26555888 .103027347 .3083954 .06201172 .3512319 .041503908 .40769959 .041503908 .47779847 .041503908 .55016586 .0629069 .6084137 .10571289 .6525421 .14851888 .6966807 .20214844 .71875 .26660157 .71875 .31315104 .71875 .3557129 .70622256 .3942871 .6811676 .43286134 .65612289 .4621582 .62042239 .48217774 .57406619 .50219729 .52770999 .51220706 .46061708 .51220706 .37278749 .51220706 .28137718 .5022786 .20858765 .48242188 .15441895 .4625651 .100260417 .43302409 .05903117 .39379884 .030731202 .35457359 .0024312337 .30859376-.01171875 .25585938-.01171875 .1998698-.01171875 .15413411 .00390625 .118652347 .03515625 .08317057 .06640625 .061848958 .1103363 .0546875 .16694641M.41455079 .48194886C.41455079 .5320994 .40112306 .57189437 .37426759 .6013336 .3474121 .6307831 .31510417 .6455078 .27734376 .6455078 .23828125 .6455078 .20426433 .62965396 .17529297 .59794619 .14632161 .5662384 .13183594 .5251465 .13183594 .4746704 .13183594 .42936198 .14558919 .3925527 .1730957 .36424256 .20060222 .3359324 .23453777 .32177735 .27490235 .32177735 .31559245 .32177735 .3490397 .3359324 .37524415 .36424256 .40144859 .3925527 .41455079 .43178813 .41455079 .48194886Z" />
<clipPath id="clip_5">
<path transform="matrix(.06,0,0,-.06,0,595)" d="M0 0H14031V9921H0V0" />
</clipPath>
<path id="font_4_19" d="M.041503908 .35327149C.041503908 .43784587 .05021159 .50591537 .06762695 .55747988 .08504232 .6090444 .11092123 .6488139 .14526367 .67678835 .17960613 .70476278 .22281902 .71875 .27490235 .71875 .3133138 .71875 .34700523 .711024 .37597657 .6955719 .4049479 .6801198 .4288737 .6578369 .4477539 .62872317 .46663413 .5996094 .4814453 .56414797 .4921875 .52233889 .5029297 .48053996 .5083008 .42418418 .5083008 .35327149 .5083008 .26934815 .49967448 .2016042 .48242188 .15003968 .46516929 .098475139 .43937174 .058624269 .4050293 .03048706 .37068687 .0023498536 .3273112-.01171875 .27490235-.01171875 .20589192-.01171875 .1516927 .013005574 .11230469 .062454225 .065104167 .12198385 .041503908 .21892293 .041503908 .35327149M.13183594 .35351563C.13183594 .23639934 .14558919 .15845235 .1730957 .11967468 .20060222 .08090719 .23453777 .061523439 .27490235 .061523439 .31526695 .061523439 .34920249 .08098856 .37670899 .11991882 .40421549 .15884908 .41796876 .23671468 .41796876 .35351563 .41796876 .47095744 .40421549 .5489807 .37670899 .58758547 .34920249 .6262004 .3149414 .6455078 .27392579 .6455078 .2335612 .6455078 .20133464 .62847396 .1772461 .5944061 .14697266 .5509288 .13183594 .47063194 .13183594 .35351563Z" />
<path id="font_4_23" d="M.3232422 0V.17138672H.0126953129V.25195313L.33935548 .7158203H.4111328V.25195313H.5078125V.17138672H.4111328V0H.3232422M.3232422 .25195313V.57470706L.099121097 .25195313H.3232422Z" />
<path id="font_4_22" d="M.041992189 .19042969 .12988281 .20214844C.13997396 .15234375 .15714519 .11645508 .18139649 .09448242 .20564778 .072509769 .2351888 .061523439 .27001954 .061523439 .3113607 .061523439 .3462728 .07582092 .37475587 .10441589 .40323893 .13301087 .41748048 .1684316 .41748048 .2106781 .41748048 .25098167 .40429688 .2842102 .3779297 .31036378 .3515625 .3365275 .31803385 .34960938 .27734376 .34960938 .2607422 .34960938 .24007161 .34635417 .21533203 .33984376L.22509766 .4169922C.23095703 .41634117 .23567708 .41601563 .23925781 .41601563 .27669273 .41601563 .31038413 .42569987 .34033204 .44506837 .37027995 .46443687 .3852539 .4942932 .3852539 .53463748 .3852539 .56658938 .37434898 .59305319 .35253907 .61402896 .33072917 .63501486 .30257163 .6455078 .2680664 .6455078 .23388672 .6455078 .20540364 .6347656 .18261719 .61328127 .15983074 .5917969 .1451823 .5595703 .13867188 .51660159L.05078125 .53222659C.061523439 .591451 .0859375 .63734439 .12402344 .6699066 .16210938 .7024689 .20947266 .71875 .26611329 .71875 .30517579 .71875 .34114585 .71039327 .37402345 .6936798 .40690104 .67696639 .43204753 .6541646 .4494629 .62527468 .46687828 .59639486 .47558595 .5657247 .47558595 .53326418 .47558595 .5024312 .46728517 .47435508 .4506836 .44903565 .43408204 .4237264 .40950523 .40360514 .37695313 .38867188 .41927085 .37890626 .45214845 .35864259 .47558595 .32788087 .49902345 .29711915 .5107422 .2586263 .5107422 .21240235 .5107422 .14990235 .48795573 .09692383 .4423828 .053466798 .3968099 .010009766 .33919273-.01171875 .26953126-.01171875 .20670574-.01171875 .15454102 .007044474 .11303711 .044570924 .0715332 .082097377 .047851564 .13071697 .041992189 .19042969Z" />
<path id="font_4_27" d="M.17675781 .38916017C.14029949 .40246583 .11328125 .42145286 .095703128 .44612123 .078125 .47078959 .06933594 .5003255 .06933594 .534729 .06933594 .5866597 .08805338 .63031008 .12548828 .66567996 .16292317 .70106 .21272786 .71875 .27490235 .71875 .33740235 .71875 .3876953 .7006531 .42578126 .6644592 .4638672 .6282756 .48291017 .5842183 .48291017 .5322876 .48291017 .4991862 .47420249 .4703827 .4567871 .44587709 .43937174 .42137147 .4129232 .40246583 .3774414 .38916017 .42138673 .3748169 .45483399 .3516744 .4777832 .31973268 .5007324 .28780113 .51220706 .24966939 .51220706 .20533753 .51220706 .1440684 .4905599 .09257507 .44726563 .050857545 .40397135 .009140015 .34700523-.01171875 .2763672-.01171875 .20572917-.01171875 .14876302 .009221395 .10546875 .051101686 .06217448 .09298197 .040527345 .14521282 .040527345 .20779419 .040527345 .25439454 .052327474 .29342143 .075927738 .32487489 .09952799 .35632835 .13313802 .37775675 .17675781 .38916017M.15917969 .53707888C.15917969 .5035197 .17008464 .47608949 .19189453 .4547882 .21370442 .4334971 .24202474 .42285157 .27685548 .42285157 .31070964 .42285157 .3384603 .4334208 .36010743 .45455934 .38175456 .47569786 .39257813 .501592 .39257813 .5322418 .39257813 .5641937 .38142906 .5910594 .35913087 .61283877 .33683268 .6346181 .30908204 .6455078 .2758789 .6455078 .24235027 .6455078 .21451824 .6348572 .19238281 .6135559 .17024739 .59226486 .15917969 .56677249 .15917969 .53707888M.13085938 .20776367C.13085938 .18273926 .13680013 .15852864 .14868164 .13513184 .16056316 .11173502 .17822266 .09361776 .20166016 .08078003 .22509766 .0679423 .25032554 .061523439 .27734376 .061523439 .31933595 .061523439 .3540039 .07500712 .38134767 .10197449 .4086914 .12895203 .42236329 .16323853 .42236329 .20483399 .42236329 .24708049 .40828453 .28201295 .38012696 .30963136 .3519694 .33725993 .31673179 .35107423 .27441407 .35107423 .23307292 .35107423 .19881185 .3374227 .17163086 .31011964 .14444988 .28282676 .13085938 .24870809 .13085938 .20776367Z" />
<path id="font_4_25" d="M.4975586 .5400543 .41015626 .5332031C.40234376 .5675557 .39127604 .59251406 .37695313 .608078 .3531901 .6330312 .32389323 .6455078 .2890625 .6455078 .26106773 .6455078 .23649089 .637736 .21533203 .6221924 .18766277 .602122 .16585286 .57282 .14990235 .5342865 .13395183 .49575297 .12565105 .4408671 .125 .3696289 .14615886 .40185548 .17203777 .42578126 .20263672 .44140626 .23323567 .45703126 .26529948 .46484376 .29882813 .46484376 .35742188 .46484376 .40730796 .44327799 .44848634 .40014649 .4896647 .35701499 .5102539 .30126954 .5102539 .23291016 .5102539 .18798828 .50056967 .14624024 .48120118 .107666019 .46183268 .0690918 .43522135 .03955078 .4013672 .019042969 .36751304-.0014648438 .32910157-.01171875 .2861328-.01171875 .21289063-.01171875 .15315755 .015197754 .106933597 .06903076 .060709638 .12287394 .037597658 .2116038 .037597658 .33522035 .037597658 .47347514 .06315104 .57399496 .11425781 .6367798 .15885417 .6914266 .21891277 .71875 .2944336 .71875 .3507487 .71875 .39689128 .70292159 .43286134 .67126467 .4688314 .6396077 .49039714 .595871 .4975586 .5400543M.13867188 .23287964C.13867188 .20269776 .1451009 .17381287 .15795899 .14622498 .17081706 .118637088 .18880208 .09762064 .21191406 .08317566 .23502605 .068740848 .25927735 .061523439 .28466798 .061523439 .32177735 .061523439 .35367839 .07645162 .3803711 .10630798 .4070638 .13616435 .42041017 .17673238 .42041017 .22801209 .42041017 .27734886 .40722657 .31621299 .38085938 .3446045 .3544922 .3730062 .32128907 .38720704 .28125 .38720704 .24153646 .38720704 .20784505 .3730062 .18017578 .3446045 .15250652 .31621299 .13867188 .27897135 .13867188 .23287964Z" />
<path id="font_4_20" d="M.3725586 0H.28466798V.5600586C.26350913 .5398763 .23575847 .51969406 .20141602 .49951173 .16707357 .47932945 .13623047 .46419273 .10888672 .45410157V.5390625C.15804036 .5621745 .20100911 .59016928 .23779297 .6230469 .2745768 .6559245 .3006185 .6878255 .31591798 .71875H.3725586V0Z" />
<path id="font_4_91" d="M.0073242189 0 .19677735 .26953126 .021484375 .5185547H.13134766L.2109375 .39697267C.22591146 .3738607 .23795574 .3544922 .24707031 .3388672 .26139323 .36035157 .2745768 .37939454 .2866211 .3959961L.37402345 .5185547H.4790039L.2998047 .27441407 .49267579 0H.38476563L.2783203 .16113281 .25 .20458985 .11376953 0H.0073242189Z" />
<path id="font_4_3" d="" />
<path id="font_4_48" d="M.07421875 0V.7158203H.21679688L.38623048 .20898438C.40185548 .16178386 .4132487 .12646485 .42041017 .103027347 .4285482 .12906902 .4412435 .1673177 .4584961 .21777344L.6298828 .7158203H.7573242V0H.6660156V.5991211L.4580078 0H.3725586L.16552735 .609375V0H.07421875Z" />
<path id="font_4_43" d="M.080078128 0V.7158203H.17480469V.421875H.546875V.7158203H.64160159V0H.546875V.33740235H.17480469V0H.080078128Z" />
<path id="font_4_18" d="M0-.01171875 .20751953 .72753909H.27783204L.07080078-.01171875H0Z" />
<path id="font_4_145" d="M.61035159 .6508789 .6923828 .74316409 .74072268 .70214846 .65478518 .60498049C.68277999 .5633138 .70166018 .52685549 .7114258 .49560548 .7244466 .45458985 .73095706 .4086914 .73095706 .35791017 .73095706 .28466798 .7161458 .21940105 .68652346 .16210938 .65690109 .10481771 .61531576 .061523439 .5617676 .032226564 .5082194 .0029296876 .45133464-.01171875 .39111329-.01171875 .3461914-.01171875 .3055013-.0053710939 .26904298 .0073242189 .24104817 .017089844 .20833333 .035807294 .17089844 .06347656L.08886719-.028320313 .040527345 .0126953129 .12646485 .10888672C.094563808 .15738933 .07324219 .19881185 .0625 .2331543 .051757814 .26749674 .04638672 .3087565 .04638672 .3569336 .04638672 .4305013 .061035158 .49601237 .09033203 .5534668 .119628909 .6109212 .1607259 .65445968 .21362305 .68408206 .26652018 .7137044 .32535807 .7285156 .39013673 .7285156 .4337565 .7285156 .47192384 .7227376 .5046387 .71118167 .5373535 .6996257 .5725911 .6795247 .61035159 .6508789M.5517578 .5853424C.5211589 .6094716 .49438478 .62593588 .47143556 .6347351 .44848634 .6435445 .42154948 .6479492 .390625 .6479492 .31933595 .6479492 .26041667 .6237335 .21386719 .5753021 .1673177 .5268707 .14404297 .45455424 .14404297 .35835267 .14404297 .32052104 .1476237 .28693138 .15478516 .25758363 .15999349 .23573303 .17089844 .2088267 .1875 .17686463L.5517578 .5853424M.5917969 .53504946 .2290039 .1280365C.254069 .107488 .277181 .09313965 .29833985 .084991458 .32600913 .07422892 .35595704 .068847659 .3881836 .068847659 .45914714 .068847659 .5177409 .093958538 .56396487 .1441803 .6101888 .19440206 .6333008 .2648468 .6333008 .35551454 .6333008 .42334495 .6194661 .4831899 .5917969 .53504946Z" />
</defs>
<g clip-path="url(#clip_1)">
<g inkscape:groupmode="layer" inkscape:label="Visible">
<path transform="matrix(.06,0,0,-.06,0,595)" stroke-width="17" stroke-linecap="round" stroke-linejoin="round" fill="none" stroke="#000000" d="M9572.5 3021C9638.498 3021 9692 3074.502 9692 3140.5 9692 3206.498 9638.498 3260 9572.5 3260 9506.502 3260 9453 3206.498 9453 3140.5 9453 3074.502 9506.502 3021 9572.5 3021" />
<path transform="matrix(.06,0,0,-.06,0,595)" stroke-width="17" stroke-linecap="round" stroke-linejoin="round" fill="none" stroke="#000000" d="M9572.5 5661C9638.498 5661 9692 5714.502 9692 5780.5 9692 5846.498 9638.498 5900 9572.5 5900 9506.502 5900 9453 5846.498 9453 5780.5 9453 5714.502 9506.502 5661 9572.5 5661" />
<path transform="matrix(.06,0,0,-.06,0,595)" stroke-width="17" stroke-linecap="round" stroke-linejoin="round" fill="none" stroke="#000000" d="M4650.5 2541C4716.498 2541 4770 2594.502 4770 2660.5 4770 2726.498 4716.498 2780 4650.5 2780 4584.502 2780 4531 2726.498 4531 2660.5 4531 2594.502 4584.502 2541 4650.5 2541" />
<path transform="matrix(.06,0,0,-.06,0,595)" stroke-width="17" stroke-linecap="round" stroke-linejoin="round" fill="none" stroke="#000000" d="M5004.5 4978C5088.1716 4978 5156 5045.8288 5156 5129.5 5156 5213.1716 5088.1716 5281 5004.5 5281 4920.8288 5281 4853 5213.1716 4853 5129.5 4853 5045.8288 4920.8288 4978 5004.5 4978" />
<path transform="matrix(.06,0,0,-.06,0,595)" stroke-width="17" stroke-linecap="round" stroke-linejoin="round" fill="none" stroke="#000000" d="M7367.5 4978C7451.1716 4978 7519 5045.8288 7519 5129.5 7519 5213.1716 7451.1716 5281 7367.5 5281 7283.8288 5281 7216 5213.1716 7216 5129.5 7216 5045.8288 7283.8288 4978 7367.5 4978" />
<path transform="matrix(.06,0,0,-.06,0,595)" stroke-width="17" stroke-linecap="round" stroke-linejoin="round" fill="none" stroke="#000000" d="M9946 2294V7586H3330V2294H9946" />
</g>
<g inkscape:groupmode="layer" inkscape:label="Visible Narrow">
<path transform="matrix(.0590892,-.0104166,-.0104166,-.0590892,574.35,406.57)" stroke-width="9" stroke-linecap="round" stroke-linejoin="round" fill="none" stroke="#000000" d="M145.5 0C145.5 80.35744 80.35744 145.5 0 145.5-80.35744 145.5-145.5 80.35744-145.5 0-145.5-80.35744-80.35744-145.5 0-145.5" />
<path transform="matrix(.0590892,-.0104166,-.0104166,-.0590892,574.35,248.17002)" stroke-width="9" stroke-linecap="round" stroke-linejoin="round" fill="none" stroke="#000000" d="M145.5 0C145.5 80.35744 80.35744 145.5 0 145.5-80.35744 145.5-145.5 80.35744-145.5 0-145.5-80.35744-80.35744-145.5 0-145.5" />
<path transform="matrix(.0590892,-.0104166,-.0104166,-.0590892,279.03,435.37)" stroke-width="9" stroke-linecap="round" stroke-linejoin="round" fill="none" stroke="#000000" d="M145.5 0C145.5 80.35744 80.35744 145.5 0 145.5-80.35744 145.5-145.5 80.35744-145.5 0-145.5-80.35744-80.35744-145.5 0-145.5" />
</g>
</g>
<g clip-path="url(#clip_2)">
<g inkscape:groupmode="layer" inkscape:label="BORDER">
<path transform="matrix(.06,0,0,-.06,0,595)" stroke-width="9" stroke-linecap="round" stroke-linejoin="round" fill="none" stroke="#000000" d="M944 9448V472" />
<path transform="matrix(.06,0,0,-.06,0,595)" stroke-width="9" stroke-linecap="round" stroke-linejoin="round" fill="none" stroke="#000000" d="M944 472H13558V9448H944" />
<path transform="matrix(.06,0,0,-.06,0,595)" stroke-width="9" stroke-linecap="round" stroke-linejoin="round" fill="none" stroke="#000000" d="M708 4724H1181" />
<path transform="matrix(.06,0,0,-.06,0,595)" stroke-width="9" stroke-linecap="round" stroke-linejoin="round" fill="none" stroke="#000000" d="M13794 4724H13322" />
<path transform="matrix(.06,0,0,-.06,0,595)" stroke-width="9" stroke-linecap="round" stroke-linejoin="round" fill="none" stroke="#000000" d="M7015 9684V9212" />
<path transform="matrix(.06,0,0,-.06,0,595)" stroke-width="9" stroke-linecap="round" stroke-linejoin="round" fill="none" stroke="#000000" d="M7015 236V708" />
</g>
<g inkscape:groupmode="layer" inkscape:label="Smart Centers">
<path transform="matrix(.06,0,0,-.06,0,595)" stroke-width="9" stroke-linecap="round" stroke-linejoin="round" fill="none" stroke="#000000" d="M9529 5780H9613" />
<path transform="matrix(.06,0,0,-.06,0,595)" stroke-width="9" stroke-linecap="round" stroke-linejoin="round" fill="none" stroke="#000000" d="M9571 5738V5822" />
<path transform="matrix(.06,0,0,-.06,0,595)" stroke-width="9" stroke-linecap="round" stroke-linejoin="round" fill="none" stroke="#000000" d="M9260 5780H9444" />
<path transform="matrix(.06,0,0,-.06,0,595)" stroke-width="9" stroke-linecap="round" stroke-linejoin="round" fill="none" stroke="#000000" d="M9697 5780H9882" />
<path transform="matrix(.06,0,0,-.06,0,595)" stroke-width="9" stroke-linecap="round" stroke-linejoin="round" fill="none" stroke="#000000" d="M9571 5469V5654" />
<path transform="matrix(.06,0,0,-.06,0,595)" stroke-width="9" stroke-linecap="round" stroke-linejoin="round" fill="none" stroke="#000000" d="M9571 5907V6091" />
<path transform="matrix(.06,0,0,-.06,0,595)" stroke-width="9" stroke-linecap="round" stroke-linejoin="round" fill="none" stroke="#000000" d="M9529 3140H9613" />
<path transform="matrix(.06,0,0,-.06,0,595)" stroke-width="9" stroke-linecap="round" stroke-linejoin="round" fill="none" stroke="#000000" d="M9571 3098V3183" />
<path transform="matrix(.06,0,0,-.06,0,595)" stroke-width="9" stroke-linecap="round" stroke-linejoin="round" fill="none" stroke="#000000" d="M9260 3140H9444" />
<path transform="matrix(.06,0,0,-.06,0,595)" stroke-width="9" stroke-linecap="round" stroke-linejoin="round" fill="none" stroke="#000000" d="M9697 3140H9882" />
<path transform="matrix(.06,0,0,-.06,0,595)" stroke-width="9" stroke-linecap="round" stroke-linejoin="round" fill="none" stroke="#000000" d="M9571 2829V3014" />
<path transform="matrix(.06,0,0,-.06,0,595)" stroke-width="9" stroke-linecap="round" stroke-linejoin="round" fill="none" stroke="#000000" d="M9571 3267V3451" />
<path transform="matrix(.06,0,0,-.06,0,595)" stroke-width="9" stroke-linecap="round" stroke-linejoin="round" fill="none" stroke="#000000" d="M4609 2660H4693" />
<path transform="matrix(.06,0,0,-.06,0,595)" stroke-width="9" stroke-linecap="round" stroke-linejoin="round" fill="none" stroke="#000000" d="M4651 2618V2703" />
<path transform="matrix(.06,0,0,-.06,0,595)" stroke-width="9" stroke-linecap="round" stroke-linejoin="round" fill="none" stroke="#000000" d="M4340 2660H4524" />
<path transform="matrix(.06,0,0,-.06,0,595)" stroke-width="9" stroke-linecap="round" stroke-linejoin="round" fill="none" stroke="#000000" d="M4778 2660H4962" />
<path transform="matrix(.06,0,0,-.06,0,595)" stroke-width="9" stroke-linecap="round" stroke-linejoin="round" fill="none" stroke="#000000" d="M4651 2349V2534" />
<path transform="matrix(.06,0,0,-.06,0,595)" stroke-width="9" stroke-linecap="round" stroke-linejoin="round" fill="none" stroke="#000000" d="M4651 2787V2971" />
<path transform="matrix(.06,0,0,-.06,0,595)" stroke-width="9" stroke-linecap="round" stroke-linejoin="round" fill="none" stroke="#000000" d="M4962 5129H5047" />
<path transform="matrix(.06,0,0,-.06,0,595)" stroke-width="9" stroke-linecap="round" stroke-linejoin="round" fill="none" stroke="#000000" d="M5004 5087V5171" />
<path transform="matrix(.06,0,0,-.06,0,595)" stroke-width="9" stroke-linecap="round" stroke-linejoin="round" fill="none" stroke="#000000" d="M4688 5129H4878" />
<path transform="matrix(.06,0,0,-.06,0,595)" stroke-width="9" stroke-linecap="round" stroke-linejoin="round" fill="none" stroke="#000000" d="M5131 5129H5321" />
<path transform="matrix(.06,0,0,-.06,0,595)" stroke-width="9" stroke-linecap="round" stroke-linejoin="round" fill="none" stroke="#000000" d="M5004 4813V5003" />
<path transform="matrix(.06,0,0,-.06,0,595)" stroke-width="9" stroke-linecap="round" stroke-linejoin="round" fill="none" stroke="#000000" d="M5004 5256V5446" />
<path transform="matrix(.06,0,0,-.06,0,595)" stroke-width="9" stroke-linecap="round" stroke-linejoin="round" fill="none" stroke="#000000" d="M7324 5129H7409" />
<path transform="matrix(.06,0,0,-.06,0,595)" stroke-width="9" stroke-linecap="round" stroke-linejoin="round" fill="none" stroke="#000000" d="M7366 5087V5171" />
<path transform="matrix(.06,0,0,-.06,0,595)" stroke-width="9" stroke-linecap="round" stroke-linejoin="round" fill="none" stroke="#000000" d="M7050 5129H7240" />
<path transform="matrix(.06,0,0,-.06,0,595)" stroke-width="9" stroke-linecap="round" stroke-linejoin="round" fill="none" stroke="#000000" d="M7493 5129H7683" />
<path transform="matrix(.06,0,0,-.06,0,595)" stroke-width="9" stroke-linecap="round" stroke-linejoin="round" fill="none" stroke="#000000" d="M7366 4813V5003" />
<path transform="matrix(.06,0,0,-.06,0,595)" stroke-width="9" stroke-linecap="round" stroke-linejoin="round" fill="none" stroke="#000000" d="M7366 5256V5446" />
</g>
<g inkscape:groupmode="layer" inkscape:label="FD_Dimensions">
<path transform="matrix(.06,0,0,-.06,0,595)" stroke-width="9" stroke-linecap="round" stroke-linejoin="round" fill="none" stroke="#000000" d="M9945 7685V8181" />
<path transform="matrix(.06,0,0,-.06,0,595)" stroke-width="9" stroke-linecap="round" stroke-linejoin="round" fill="none" stroke="#000000" d="M3331 7685V8181" />
<path transform="matrix(.06,0,0,-.06,0,595)" stroke-width="9" stroke-linecap="round" stroke-linejoin="round" fill="none" stroke="#000000" d="M9780 8082H3496" />
<path transform="matrix(.06,0,0,-.06,0,595)" d="M9780 8109V8054L9945 8082Z" />
<path transform="matrix(.06,0,0,-.06,0,595)" stroke-linecap="round" stroke-miterlimit="10" stroke-linejoin="miter" fill="none" stroke="#000000" d="M9780 8109V8054L9945 8082Z" />
<path transform="matrix(.06,0,0,-.06,0,595)" d="M3496 8109V8054L3331 8082Z" />
<path transform="matrix(.06,0,0,-.06,0,595)" stroke-linecap="round" stroke-miterlimit="10" stroke-linejoin="miter" fill="none" stroke="#000000" d="M3496 8109V8054L3331 8082Z" />
</g>
</g>
<g clip-path="url(#clip_3)">
<g inkscape:groupmode="layer" inkscape:label="FD_Dimensions">
<path d="M 432.598 202.957 L 432.598 216.817 L 446.458 244.536 L 460.317 258.395 L 488.037 272.255 L 543.475 272.255 L 571.194 258.395 L 585.054 244.536 L 598.913 216.817 L 598.913 189.097 L 585.054 161.378 L 557.335 119.800 L 418.739 -18.796 L 612.773 -18.796" fill="none" stroke="black" stroke-width="1" /><path d="M 440.304 50.502 L 426.445 36.642 L 440.304 22.783 L 454.164 36.642 L 440.304 50.502" fill="none" stroke="black" stroke-width="1" /><path d="M 624.332 272.255 L 485.736 -18.796 M 430.298 272.255 L 624.332 272.255" fill="none" stroke="black" stroke-width="1" /><path d="M 604.318 272.255 L 465.723 272.255 L 451.863 147.519 L 465.723 161.378 L 507.301 175.238 L 548.880 175.238 L 590.459 161.378 L 618.178 133.659 L 632.038 92.080 L 632.038 64.361 L 618.178 22.783 L 590.459 -4.937 L 548.880 -18.796 L 507.301 -18.796 L 465.723 -4.937 L 451.863 8.923 L 438.004 36.642" fill="none" stroke="black" stroke-width="1" /><path d="M 612.024 272.255 L 473.429 272.255 L 459.569 147.519 L 473.429 161.378 L 515.007 175.238 L 556.586 175.238 L 598.165 161.378 L 625.884 133.659 L 639.744 92.080 L 639.744 64.361 L 625.884 22.783 L 598.165 -4.937 L 556.586 -18.796 L 515.007 -18.796 L 473.429 -4.937 L 459.569 8.923 L 445.709 36.642" fill="none" stroke="black" stroke-width="1" /><path d="M 633.590 175.238 L 619.730 133.659 L 592.011 105.940 L 550.432 92.080 L 536.573 92.080 L 494.994 105.940 L 467.275 133.659 L 453.415 175.238 L 453.415 189.097 L 467.275 230.676 L 494.994 258.395 L 536.573 272.255 L 550.432 272.255 L 592.011 258.395 L 619.730 230.676 L 633.590 175.238 L 633.590 105.940 L 619.730 36.642 L 592.011 -4.937 L 550.432 -18.796 L 522.713 -18.796 L 481.135 -4.937 L 467.275 22.783" fill="none" stroke="black" stroke-width="1" /></g>
</g>
<g clip-path="url(#clip_5)">
<path transform="matrix(.06,0,0,-.06,0,595)" stroke-width="9" stroke-linecap="round" stroke-linejoin="round" fill="none" stroke="#000000" d="M3232 7586H2736" />
<path transform="matrix(.06,0,0,-.06,0,595)" stroke-width="9" stroke-linecap="round" stroke-linejoin="round" fill="none" stroke="#000000" d="M3232 2295H2736" />
<path transform="matrix(.06,0,0,-.06,0,595)" stroke-width="9" stroke-linecap="round" stroke-linejoin="round" fill="none" stroke="#000000" d="M2835 7420V2460" />
<path transform="matrix(.06,0,0,-.06,0,595)" d="M2807 7420H2863L2835 7586Z" />
<path transform="matrix(.06,0,0,-.06,0,595)" stroke-linecap="round" stroke-miterlimit="10" stroke-linejoin="miter" fill="none" stroke="#000000" d="M2807 7420H2863L2835 7586Z" />
<path transform="matrix(.06,0,0,-.06,0,595)" d="M2807 2460H2863L2835 2295Z" />
<path transform="matrix(.06,0,0,-.06,0,595)" stroke-linecap="round" stroke-miterlimit="10" stroke-linejoin="miter" fill="none" stroke="#000000" d="M2807 2460H2863L2835 2295Z" />
<path d="M 262.977 264.222 L 276.837 264.222 L 304.556 250.362 L 318.415 236.503 L 332.275 208.783 L 332.275 153.345 L 318.415 125.626 L 304.556 111.766 L 276.837 97.907 L 249.117 97.907 L 221.398 111.766 L 179.820 139.485 L 41.224 278.081 L 41.224 84.047" fill="none" stroke="black" stroke-width="1" /><path d="M 110.522 256.516 L 96.662 270.375 L 82.803 256.516 L 96.662 242.656 L 110.522 256.516" fill="none" stroke="black" stroke-width="1" /><path d="M 262.977 252.663 L 276.837 252.663 L 304.556 238.803 L 318.415 224.944 L 332.275 197.225 L 332.275 141.786 L 318.415 114.067 L 304.556 100.207 L 276.837 86.348 L 249.117 86.348 L 221.398 100.207 L 179.820 127.927 L 41.224 266.522 L 41.224 72.488" fill="none" stroke="black" stroke-width="1" /><path d="M 332.275 175.659 L 318.415 217.238 L 276.837 244.957 L 207.539 258.816 L 165.960 258.816 L 96.662 244.957 L 55.083 217.238 L 41.224 175.659 L 41.224 147.940 L 55.083 106.361 L 96.662 78.642 L 165.960 64.782 L 207.539 64.782 L 276.837 78.642 L 318.415 106.361 L 332.275 147.940 L 332.275 175.659" fill="none" stroke="black" stroke-width="1" /><path d="M 332.275 112.515 L 138.241 251.111 L 138.241 43.217 M 332.275 112.515 L 41.224 112.515" fill="none" stroke="black" stroke-width="1" /><path d="M 332.275 49.371 L 41.224 187.966 M 332.275 243.405 L 332.275 49.371" fill="none" stroke="black" stroke-width="1" /><g inkscape:groupmode="layer" inkscape:label="Smart Centers">
<path transform="matrix(.06,0,0,-.06,0,595)" stroke-width="9" stroke-linecap="round" stroke-linejoin="round" fill="none" stroke="#000000" d="M10110 4940H9802" />
<path transform="matrix(.06,0,0,-.06,0,595)" stroke-width="9" stroke-linecap="round" stroke-linejoin="round" fill="none" stroke="#000000" d="M9718 4940H9633" />
<path transform="matrix(.06,0,0,-.06,0,595)" stroke-width="9" stroke-linecap="round" stroke-linejoin="round" fill="none" stroke="#000000" d="M9549 4940H9043" />
<path transform="matrix(.06,0,0,-.06,0,595)" stroke-width="9" stroke-linecap="round" stroke-linejoin="round" fill="none" stroke="#000000" d="M8958 4940H8874" />
<path transform="matrix(.06,0,0,-.06,0,595)" stroke-width="9" stroke-linecap="round" stroke-linejoin="round" fill="none" stroke="#000000" d="M8789 4940H8283" />
<path transform="matrix(.06,0,0,-.06,0,595)" stroke-width="9" stroke-linecap="round" stroke-linejoin="round" fill="none" stroke="#000000" d="M8199 4940H8115" />
<path transform="matrix(.06,0,0,-.06,0,595)" stroke-width="9" stroke-linecap="round" stroke-linejoin="round" fill="none" stroke="#000000" d="M8030 4940H7524" />
<path transform="matrix(.06,0,0,-.06,0,595)" stroke-width="9" stroke-linecap="round" stroke-linejoin="round" fill="none" stroke="#000000" d="M7440 4940H7355" />
<path transform="matrix(.06,0,0,-.06,0,595)" stroke-width="9" stroke-linecap="round" stroke-linejoin="round" fill="none" stroke="#000000" d="M7271 4940H6765" />
<path transform="matrix(.06,0,0,-.06,0,595)" stroke-width="9" stroke-linecap="round" stroke-linejoin="round" fill="none" stroke="#000000" d="M6680 4940H6596" />
<path transform="matrix(.06,0,0,-.06,0,595)" stroke-width="9" stroke-linecap="round" stroke-linejoin="round" fill="none" stroke="#000000" d="M6511 4940H6005" />
<path transform="matrix(.06,0,0,-.06,0,595)" stroke-width="9" stroke-linecap="round" stroke-linejoin="round" fill="none" stroke="#000000" d="M5921 4940H5836" />
<path transform="matrix(.06,0,0,-.06,0,595)" stroke-width="9" stroke-linecap="round" stroke-linejoin="round" fill="none" stroke="#000000" d="M5752 4940H5246" />
<path transform="matrix(.06,0,0,-.06,0,595)" stroke-width="9" stroke-linecap="round" stroke-linejoin="round" fill="none" stroke="#000000" d="M5161 4940H5077" />
<path transform="matrix(.06,0,0,-.06,0,595)" stroke-width="9" stroke-linecap="round" stroke-linejoin="round" fill="none" stroke="#000000" d="M4993 4940H4487" />
<path transform="matrix(.06,0,0,-.06,0,595)" stroke-width="9" stroke-linecap="round" stroke-linejoin="round" fill="none" stroke="#000000" d="M4402 4940H4318" />
<path transform="matrix(.06,0,0,-.06,0,595)" stroke-width="9" stroke-linecap="round" stroke-linejoin="round" fill="none" stroke="#000000" d="M4233 4940H3727" />
<path transform="matrix(.06,0,0,-.06,0,595)" stroke-width="9" stroke-linecap="round" stroke-linejoin="round" fill="none" stroke="#000000" d="M3643 4940H3558" />
<path transform="matrix(.06,0,0,-.06,0,595)" stroke-width="9" stroke-linecap="round" stroke-linejoin="round" fill="none" stroke="#000000" d="M3474 4940H3166" />
<path transform="matrix(.06,0,0,-.06,0,595)" stroke-width="9" stroke-linecap="round" stroke-linejoin="round" fill="none" stroke="#000000" d="M6638 7751V7345" />
<path transform="matrix(.06,0,0,-.06,0,595)" stroke-width="9" stroke-linecap="round" stroke-linejoin="round" fill="none" stroke="#000000" d="M6638 7260V7176" />
<path transform="matrix(.06,0,0,-.06,0,595)" stroke-width="9" stroke-linecap="round" stroke-linejoin="round" fill="none" stroke="#000000" d="M6638 7092V6585" />
<path transform="matrix(.06,0,0,-.06,0,595)" stroke-width="9" stroke-linecap="round" stroke-linejoin="round" fill="none" stroke="#000000" d="M6638 6501V6417" />
<path transform="matrix(.06,0,0,-.06,0,595)" stroke-width="9" stroke-linecap="round" stroke-linejoin="round" fill="none" stroke="#000000" d="M6638 6332V5826" />
<path transform="matrix(.06,0,0,-.06,0,595)" stroke-width="9" stroke-linecap="round" stroke-linejoin="round" fill="none" stroke="#000000" d="M6638 5742V5657" />
<path transform="matrix(.06,0,0,-.06,0,595)" stroke-width="9" stroke-linecap="round" stroke-linejoin="round" fill="none" stroke="#000000" d="M6638 5573V5067" />
<path transform="matrix(.06,0,0,-.06,0,595)" stroke-width="9" stroke-linecap="round" stroke-linejoin="round" fill="none" stroke="#000000" d="M6638 4982V4898" />
<path transform="matrix(.06,0,0,-.06,0,595)" stroke-width="9" stroke-linecap="round" stroke-linejoin="round" fill="none" stroke="#000000" d="M6638 4814V4307" />
<path transform="matrix(.06,0,0,-.06,0,595)" stroke-width="9" stroke-linecap="round" stroke-linejoin="round" fill="none" stroke="#000000" d="M6638 4223V4139" />
<path transform="matrix(.06,0,0,-.06,0,595)" stroke-width="9" stroke-linecap="round" stroke-linejoin="round" fill="none" stroke="#000000" d="M6638 4054V3548" />
<path transform="matrix(.06,0,0,-.06,0,595)" stroke-width="9" stroke-linecap="round" stroke-linejoin="round" fill="none" stroke="#000000" d="M6638 3464V3379" />
<path transform="matrix(.06,0,0,-.06,0,595)" stroke-width="9" stroke-linecap="round" stroke-linejoin="round" fill="none" stroke="#000000" d="M6638 3295V2789" />
<path transform="matrix(.06,0,0,-.06,0,595)" stroke-width="9" stroke-linecap="round" stroke-linejoin="round" fill="none" stroke="#000000" d="M6638 2704V2620" />
<path transform="matrix(.06,0,0,-.06,0,595)" stroke-width="9" stroke-linecap="round" stroke-linejoin="round" fill="none" stroke="#000000" d="M6638 2536V2129" />
</g>
<g inkscape:groupmode="layer" inkscape:label="FD_Dimensions">
<path transform="matrix(.06,0,0,-.06,0,595)" stroke-width="9" stroke-linecap="round" stroke-linejoin="round" fill="none" stroke="#000000" d="M6737 4940H10476" />
<path d="M 746.276 460.775 L 704.697 446.915 L 676.978 405.337 L 663.119 336.039 L 663.119 294.460 L 676.978 225.162 L 704.697 183.583 L 746.276 169.724 L 773.995 169.724 L 815.574 183.583 L 843.293 225.162 L 857.153 294.460 L 857.153 336.039 L 843.293 405.337 L 815.574 446.915 L 773.995 460.775 L 746.276 460.775" fill="none" stroke="black" stroke-width="1" /><path transform="matrix(.06,0,0,-.06,0,595)" stroke-width="9" stroke-linecap="round" stroke-linejoin="round" fill="none" stroke="#000000" d="M9670 5780H10712" />
<path d="M 679.438 188.622 L 665.579 174.762 L 679.438 160.903 L 693.298 174.762 L 679.438 188.622" fill="none" stroke="black" stroke-width="1" /><path d="M 697.151 410.375 L 849.606 410.375 L 766.449 299.498 L 808.027 299.498 L 835.747 285.639 L 849.606 271.779 L 863.466 230.200 L 863.466 202.481 L 849.606 160.903 L 821.887 133.183 L 780.308 119.324 L 738.730 119.324 L 697.151 133.183 L 683.291 147.043 L 669.432 174.762" fill="none" stroke="black" stroke-width="1" /><path d="M 843.453 410.375 L 704.857 410.375 L 690.997 285.639 L 704.857 299.498 L 746.435 313.358 L 788.014 313.358 L 829.593 299.498 L 857.312 271.779 L 871.172 230.200 L 871.172 202.481 L 857.312 160.903 L 829.593 133.183 L 788.014 119.324 L 746.435 119.324 L 704.857 133.183 L 690.997 147.043 L 677.138 174.762" fill="none" stroke="black" stroke-width="1" /><path transform="matrix(.06,0,0,-.06,0,595)" stroke-width="9" stroke-linecap="round" stroke-linejoin="round" fill="none" stroke="#000000" d="M9670 3140H10686" />
<path d="M 677.878 347.022 L 664.019 333.162 L 677.878 319.303 L 691.738 333.162 L 677.878 347.022" fill="none" stroke="black" stroke-width="1" /><path d="M 861.906 568.775 L 723.310 277.724 M 667.872 568.775 L 861.906 568.775" fill="none" stroke="black" stroke-width="1" /><path d="M 841.893 568.775 L 703.297 568.775 L 689.437 444.039 L 703.297 457.898 L 744.876 471.758 L 786.454 471.758 L 828.033 457.898 L 855.752 430.179 L 869.612 388.600 L 869.612 360.881 L 855.752 319.303 L 828.033 291.583 L 786.454 277.724 L 744.876 277.724 L 703.297 291.583 L 689.437 305.443 L 675.578 333.162" fill="none" stroke="black" stroke-width="1" /><path transform="matrix(.06,0,0,-.06,0,595)" stroke-width="9" stroke-linecap="round" stroke-linejoin="round" fill="none" stroke="#000000" d="M4750 2660H5527" />
<path d="M 368.338 375.822 L 354.479 361.962 L 368.338 348.103 L 382.198 361.962 L 368.338 375.822" fill="none" stroke="black" stroke-width="1" /><path d="M 538.506 500.558 L 524.647 458.979 L 496.927 431.260 L 455.349 417.400 L 441.489 417.400 L 399.910 431.260 L 372.191 458.979 L 358.332 500.558 L 358.332 514.417 L 372.191 555.996 L 399.910 583.715 L 441.489 597.575 L 455.349 597.575 L 496.927 583.715 L 524.647 555.996 L 538.506 500.558 L 538.506 431.260 L 524.647 361.962 L 496.927 320.383 L 455.349 306.524 L 427.630 306.524 L 386.051 320.383 L 372.191 348.103" fill="none" stroke="black" stroke-width="1" /><path d="M 532.353 597.575 L 393.757 597.575 L 379.897 472.839 L 393.757 486.698 L 435.336 500.558 L 476.914 500.558 L 518.493 486.698 L 546.212 458.979 L 560.072 417.400 L 560.072 389.681 L 546.212 348.103 L 518.493 320.383 L 476.914 306.524 L 435.336 306.524 L 393.757 320.383 L 379.897 334.243 L 366.038 361.962" fill="none" stroke="black" stroke-width="1" /><path transform="matrix(.06,0,0,-.06,0,595)" stroke-width="9" stroke-linecap="round" stroke-linejoin="round" fill="none" stroke="#000000" d="M5104 5129H5934" />
<path d="M 377.398 227.682 L 363.539 213.822 L 377.398 199.963 L 391.258 213.822 L 377.398 227.682" fill="none" stroke="black" stroke-width="1" /><path d="M 450.549 449.435 L 408.970 435.575 L 381.251 393.997 L 367.392 324.699 L 367.392 283.120 L 381.251 213.822 L 408.970 172.243 L 450.549 158.384 L 478.268 158.384 L 519.847 172.243 L 547.566 213.822 L 561.426 283.120 L 561.426 324.699 L 547.566 393.997 L 519.847 435.575 L 478.268 449.435 L 450.549 449.435" fill="none" stroke="black" stroke-width="1" /><path d="M 569.132 449.435 L 430.536 158.384 M 375.098 449.435 L 569.132 449.435" fill="none" stroke="black" stroke-width="1" /><path d="M 452.101 449.435 L 410.523 435.575 L 396.663 407.856 L 396.663 380.137 L 410.523 352.418 L 438.242 338.558 L 493.680 324.699 L 535.259 310.839 L 562.978 283.120 L 576.838 255.401 L 576.838 213.822 L 562.978 186.103 L 549.118 172.243 L 507.540 158.384 L 452.101 158.384 L 410.523 172.243 L 396.663 186.103 L 382.804 213.822 L 382.804 255.401 L 396.663 283.120 L 424.382 310.839 L 465.961 324.699 L 521.399 338.558 L 549.118 352.418 L 562.978 380.137 L 562.978 407.856 L 549.118 435.575 L 507.540 449.435 L 452.101 449.435" fill="none" stroke="black" stroke-width="1" /><path d="M 584.544 449.435 L 445.948 158.384 M 390.509 449.435 L 584.544 449.435" fill="none" stroke="black" stroke-width="1" /><path transform="matrix(.06,0,0,-.06,0,595)" stroke-width="9" stroke-linecap="round" stroke-linejoin="round" fill="none" stroke="#000000" d="M7366 5228V6294" />
<path d="M 382.382 196.002 L 368.522 209.861 L 354.663 196.002 L 368.522 182.142 L 382.382 196.002" fill="none" stroke="black" stroke-width="1" /><path d="M 604.135 178.289 L 604.135 25.834 L 493.258 108.991 L 493.258 67.413 L 479.399 39.693 L 465.539 25.834 L 423.960 11.974 L 396.241 11.974 L 354.663 25.834 L 326.943 53.553 L 313.084 95.132 L 313.084 136.710 L 326.943 178.289 L 340.803 192.149 L 368.522 206.008" fill="none" stroke="black" stroke-width="1" /><path d="M 604.135 115.145 L 590.275 156.724 L 548.697 184.443 L 479.399 198.302 L 437.820 198.302 L 368.522 184.443 L 326.943 156.724 L 313.084 115.145 L 313.084 87.426 L 326.943 45.847 L 368.522 18.128 L 437.820 4.268 L 479.399 4.268 L 548.697 18.128 L 590.275 45.847 L 604.135 87.426 L 604.135 115.145" fill="none" stroke="black" stroke-width="1" /><path d="M 604.135 162.877 L 604.135 10.422 L 493.258 93.579 L 493.258 52.001 L 479.399 24.282 L 465.539 10.422 L 423.960 -3.438 L 396.241 -3.438 L 354.663 10.422 L 326.943 38.141 L 313.084 79.720 L 313.084 121.299 L 326.943 162.877 L 340.803 176.737 L 368.522 190.596" fill="none" stroke="black" stroke-width="1" /><path d="M 604.135 16.576 L 604.135 155.171 L 479.399 169.031 L 493.258 155.171 L 507.118 113.593 L 507.118 72.014 L 493.258 30.435 L 465.539 2.716 L 423.960 -11.144 L 396.241 -11.144 L 354.663 2.716 L 326.943 30.435 L 313.084 72.014 L 313.084 113.593 L 326.943 155.171 L 340.803 169.031 L 368.522 182.891" fill="none" stroke="black" stroke-width="1" /><path transform="matrix(.06,0,0,-.06,0,595)" stroke-width="9" stroke-linecap="round" stroke-linejoin="round" fill="none" stroke="#000000" d="M5004 5228V6227" />
<path d="M 240.662 199.962 L 226.802 213.821 L 212.943 199.962 L 226.802 186.102 L 240.662 199.962" fill="none" stroke="black" stroke-width="1" /><path d="M 420.836 29.794 L 448.555 43.653 L 462.415 85.232 L 462.415 112.951 L 448.555 154.530 L 406.977 182.249 L 337.679 196.109 L 268.381 196.109 L 212.943 182.249 L 185.223 154.530 L 171.364 112.951 L 171.364 99.092 L 185.223 57.513 L 212.943 29.794 L 254.521 15.934 L 268.381 15.934 L 309.960 29.794 L 337.679 57.513 L 351.538 99.092 L 351.538 112.951 L 337.679 154.530 L 309.960 182.249 L 268.381 196.109" fill="none" stroke="black" stroke-width="1" /><path d="M 462.415 132.964 L 448.555 174.543 L 420.836 188.403 L 393.117 188.403 L 365.398 174.543 L 351.538 146.824 L 337.679 91.386 L 323.819 49.807 L 296.100 22.088 L 268.381 8.228 L 226.802 8.228 L 199.083 22.088 L 185.223 35.947 L 171.364 77.526 L 171.364 132.964 L 185.223 174.543 L 199.083 188.403 L 226.802 202.262 L 268.381 202.262 L 296.100 188.403 L 323.819 160.684 L 337.679 119.105 L 351.538 63.667 L 365.398 35.947 L 393.117 22.088 L 420.836 22.088 L 448.555 35.947 L 462.415 77.526 L 462.415 132.964" fill="none" stroke="black" stroke-width="1" /><path d="M 462.415 111.399 L 448.555 152.978 L 406.977 180.697 L 337.679 194.556 L 296.100 194.556 L 226.802 180.697 L 185.223 152.978 L 171.364 111.399 L 171.364 83.680 L 185.223 42.101 L 226.802 14.382 L 296.100 0.522 L 337.679 0.522 L 406.977 14.382 L 448.555 42.101 L 462.415 83.680 L 462.415 111.399" fill="none" stroke="black" stroke-width="1" /><path d="M 462.415 -7.184 L 171.364 131.412 M 462.415 186.851 L 462.415 -7.184" fill="none" stroke="black" stroke-width="1" /><path transform="matrix(.06,0,0,-.06,0,595)" stroke-width="9" stroke-linecap="round" stroke-linejoin="round" fill="none" stroke="#000000" d="M9571 5879V6882" />
<path d="M 681.177 132.883 L 695.036 105.163 L 736.615 63.585 L 445.564 63.585" fill="none" stroke="black" stroke-width="1" /><path d="M 514.862 152.896 L 501.002 166.755 L 487.143 152.896 L 501.002 139.036 L 514.862 152.896" fill="none" stroke="black" stroke-width="1" /><path d="M 667.317 149.043 L 681.177 149.043 L 708.896 135.183 L 722.755 121.324 L 736.615 93.605 L 736.615 38.166 L 722.755 10.447 L 708.896 -3.413 L 681.177 -17.272 L 653.457 -17.272 L 625.738 -3.413 L 584.160 24.307 L 445.564 162.902 L 445.564 -31.132" fill="none" stroke="black" stroke-width="1" /><path d="M 667.317 141.337 L 681.177 141.337 L 708.896 127.477 L 722.755 113.618 L 736.615 85.899 L 736.615 30.460 L 722.755 2.741 L 708.896 -11.118 L 681.177 -24.978 L 653.457 -24.978 L 625.738 -11.118 L 584.160 16.601 L 445.564 155.196 L 445.564 -38.838" fill="none" stroke="black" stroke-width="1" /><path d="M 667.317 133.631 L 681.177 133.631 L 708.896 119.771 L 722.755 105.912 L 736.615 78.193 L 736.615 22.754 L 722.755 -4.965 L 708.896 -18.824 L 681.177 -32.684 L 653.457 -32.684 L 625.738 -18.824 L 584.160 8.895 L 445.564 147.491 L 445.564 -46.544" fill="none" stroke="black" stroke-width="1" /><path transform="matrix(.06,0,0,-.06,0,595)" stroke-width="9" stroke-linecap="round" stroke-linejoin="round" fill="none" stroke="#000000" d="M4651 2760V3904" />
<path d="M 219.482 331.662 L 205.622 345.521 L 191.763 331.662 L 205.622 317.802 L 219.482 331.662" fill="none" stroke="black" stroke-width="1" /><path d="M 441.235 272.370 L 427.375 313.949 L 399.656 327.809 L 371.937 327.809 L 344.218 313.949 L 330.358 286.230 L 316.499 230.792 L 302.639 189.213 L 274.920 161.494 L 247.201 147.634 L 205.622 147.634 L 177.903 161.494 L 164.043 175.353 L 150.184 216.932 L 150.184 272.370 L 164.043 313.949 L 177.903 327.809 L 205.622 341.668 L 247.201 341.668 L 274.920 327.809 L 302.639 300.090 L 316.499 258.511 L 330.358 203.073 L 344.218 175.353 L 371.937 161.494 L 399.656 161.494 L 427.375 175.353 L 441.235 216.932 L 441.235 272.370" fill="none" stroke="black" stroke-width="1" /><path d="M 371.937 320.103 L 385.797 320.103 L 413.516 306.243 L 427.375 292.384 L 441.235 264.664 L 441.235 209.226 L 427.375 181.507 L 413.516 167.647 L 385.797 153.788 L 358.077 153.788 L 330.358 167.647 L 288.780 195.367 L 150.184 333.962 L 150.184 139.928" fill="none" stroke="black" stroke-width="1" /><path d="M 441.235 256.959 L 427.375 298.537 L 399.656 312.397 L 371.937 312.397 L 344.218 298.537 L 330.358 270.818 L 316.499 215.380 L 302.639 173.801 L 274.920 146.082 L 247.201 132.222 L 205.622 132.222 L 177.903 146.082 L 164.043 159.942 L 150.184 201.520 L 150.184 256.959 L 164.043 298.537 L 177.903 312.397 L 205.622 326.256 L 247.201 326.256 L 274.920 312.397 L 302.639 284.678 L 316.499 243.099 L 330.358 187.661 L 344.218 159.942 L 371.937 146.082 L 399.656 146.082 L 427.375 159.942 L 441.235 201.520 L 441.235 256.959" fill="none" stroke="black" stroke-width="1" /></g>
<g inkscape:groupmode="layer" inkscape:label="Hole Notes">
<path d="M 691.018 535.115 L 843.473 535.115 L 760.316 424.238 L 801.895 424.238 L 829.614 410.379 L 843.473 396.519 L 857.333 354.940 L 857.333 327.221 L 843.473 285.643 L 815.754 257.923 L 774.175 244.064 L 732.597 244.064 L 691.018 257.923 L 677.158 271.783 L 663.299 299.502" fill="none" stroke="black" stroke-width="1" /><path d="M 671.005 438.098 L 823.460 244.064 M 823.460 438.098 L 671.005 244.064" fill="none" stroke="black" stroke-width="1" /><use data-text=" " xlink:href="#font_4_3" transform="matrix(13.859579,0,0,-13.859579,636.35568,368.8)" />
<path d="M 695.638 535.115 L 695.638 244.064 M 695.638 535.115 L 806.515 244.064 M 917.392 535.115 L 806.515 244.064 M 917.392 535.115 L 917.392 244.064" fill="none" stroke="black" stroke-width="1" /><path d="M 721.043 535.115 L 873.498 535.115 L 790.341 424.238 L 831.920 424.238 L 859.639 410.379 L 873.498 396.519 L 887.358 354.940 L 887.358 327.221 L 873.498 285.643 L 845.779 257.923 L 804.200 244.064 L 762.622 244.064 L 721.043 257.923 L 707.183 271.783 L 693.324 299.502" fill="none" stroke="black" stroke-width="1" /><path d="M 701.030 438.098 L 853.485 244.064 M 853.485 438.098 L 701.030 244.064" fill="none" stroke="black" stroke-width="1" /><path d="M 791.117 535.115 L 749.538 521.255 L 721.819 479.677 L 707.959 410.379 L 707.959 368.800 L 721.819 299.502 L 749.538 257.923 L 791.117 244.064 L 818.836 244.064 L 860.415 257.923 L 888.134 299.502 L 901.994 368.800 L 901.994 410.379 L 888.134 479.677 L 860.415 521.255 L 818.836 535.115 L 791.117 535.115" fill="none" stroke="black" stroke-width="1" /><path d="M 729.525 313.362 L 715.665 299.502 L 729.525 285.643 L 743.384 299.502 L 729.525 313.362" fill="none" stroke="black" stroke-width="1" /><path d="M 885.833 535.115 L 747.237 535.115 L 733.378 410.379 L 747.237 424.238 L 788.816 438.098 L 830.395 438.098 L 871.974 424.238 L 899.693 396.519 L 913.552 354.940 L 913.552 327.221 L 899.693 285.643 L 871.974 257.923 L 830.395 244.064 L 788.816 244.064 L 747.237 257.923 L 733.378 271.783 L 719.518 299.502" fill="none" stroke="black" stroke-width="1" /><use data-text=" " xlink:href="#font_4_3" transform="matrix(13.859579,0,0,-13.859579,685.62,368.8)" />
<path d="M 911.273 493.536 L 897.414 521.255 L 855.835 535.115 L 828.116 535.115 L 786.537 521.255 L 758.818 479.677 L 744.958 410.379 L 744.958 341.081 L 758.818 285.643 L 786.537 257.923 L 828.116 244.064 L 841.975 244.064 L 883.554 257.923 L 911.273 285.643 L 925.133 327.221 L 925.133 341.081 L 911.273 382.660 L 883.554 410.379 L 841.975 424.238 L 828.116 424.238 L 786.537 410.379 L 758.818 382.660 L 744.958 341.081" fill="none" stroke="black" stroke-width="1" /><path d="M 752.664 535.115 L 752.664 244.064 M 946.698 535.115 L 946.698 244.064 M 752.664 396.519 L 946.698 396.519" fill="none" stroke="black" stroke-width="1" /><use data-text=" " xlink:href="#font_4_3" transform="matrix(13.859579,0,0,-13.859579,707.22,368.8)" />
<path d="M 752.652 438.098 L 905.107 244.064 M 905.107 438.098 L 752.652 244.064" fill="none" stroke="black" stroke-width="1" /><use data-text=" " xlink:href="#font_4_3" transform="matrix(13.859579,0,0,-13.859579,718.0027,368.8)" />
<path d="M 777.298 313.362 L 763.439 299.502 L 777.298 285.643 L 791.158 299.502 L 777.298 313.362" fill="none" stroke="black" stroke-width="1" /><path d="M 850.449 535.115 L 808.870 521.255 L 781.151 479.677 L 767.292 410.379 L 767.292 368.800 L 781.151 299.502 L 808.870 257.923 L 850.449 244.064 L 878.168 244.064 L 919.747 257.923 L 947.466 299.502 L 961.326 368.800 L 961.326 410.379 L 947.466 479.677 L 919.747 521.255 L 878.168 535.115 L 850.449 535.115" fill="none" stroke="black" stroke-width="1" /><path d="M 844.295 535.115 L 802.717 521.255 L 788.857 493.536 L 788.857 465.817 L 802.717 438.098 L 830.436 424.238 L 885.874 410.379 L 927.453 396.519 L 955.172 368.800 L 969.032 341.081 L 969.032 299.502 L 955.172 271.783 L 941.312 257.923 L 899.734 244.064 L 844.295 244.064 L 802.717 257.923 L 788.857 271.783 L 774.998 299.502 L 774.998 341.081 L 788.857 368.800 L 816.576 396.519 L 858.155 410.379 L 913.593 424.238 L 941.312 438.098 L 955.172 465.817 L 955.172 493.536 L 941.312 521.255 L 899.734 535.115 L 844.295 535.115" fill="none" stroke="black" stroke-width="1" /><path d="M 976.738 535.115 L 838.142 244.064 M 782.704 535.115 L 976.738 535.115" fill="none" stroke="black" stroke-width="1" /><path d="M 859.707 535.115 L 818.128 521.255 L 804.269 493.536 L 804.269 465.817 L 818.128 438.098 L 845.848 424.238 L 901.286 410.379 L 942.865 396.519 L 970.584 368.800 L 984.443 341.081 L 984.443 299.502 L 970.584 271.783 L 956.724 257.923 L 915.146 244.064 L 859.707 244.064 L 818.128 257.923 L 804.269 271.783 L 790.409 299.502 L 790.409 341.081 L 804.269 368.800 L 831.988 396.519 L 873.567 410.379 L 929.005 424.238 L 956.724 438.098 L 970.584 465.817 L 970.584 493.536 L 956.724 521.255 L 915.146 535.115 L 859.707 535.115" fill="none" stroke="black" stroke-width="1" /><path d="M 1033.732 590.553 L 784.259 147.047" fill="none" stroke="black" stroke-width="1" /><path d="M 815.818 313.362 L 801.959 299.502 L 815.818 285.643 L 829.678 299.502 L 815.818 313.362" fill="none" stroke="black" stroke-width="1" /><path d="M 888.969 535.115 L 847.390 521.255 L 819.671 479.677 L 805.812 410.379 L 805.812 368.800 L 819.671 299.502 L 847.390 257.923 L 888.969 244.064 L 916.688 244.064 L 958.267 257.923 L 985.986 299.502 L 999.846 368.800 L 999.846 410.379 L 985.986 479.677 L 958.267 521.255 L 916.688 535.115 L 888.969 535.115" fill="none" stroke="black" stroke-width="1" /><path d="M 882.816 535.115 L 841.237 521.255 L 827.377 493.536 L 827.377 465.817 L 841.237 438.098 L 868.956 424.238 L 924.394 410.379 L 965.973 396.519 L 993.692 368.800 L 1007.552 341.081 L 1007.552 299.502 L 993.692 271.783 L 979.833 257.923 L 938.254 244.064 L 882.816 244.064 L 841.237 257.923 L 827.377 271.783 L 813.518 299.502 L 813.518 341.081 L 827.377 368.800 L 855.096 396.519 L 896.675 410.379 L 952.113 424.238 L 979.833 438.098 L 993.692 465.817 L 993.692 493.536 L 979.833 521.255 L 938.254 535.115 L 882.816 535.115" fill="none" stroke="black" stroke-width="1" /><path d="M 1015.258 535.115 L 876.662 244.064 M 821.223 535.115 L 1015.258 535.115" fill="none" stroke="black" stroke-width="1" /><path d="M 898.227 535.115 L 856.649 521.255 L 842.789 493.536 L 842.789 465.817 L 856.649 438.098 L 884.368 424.238 L 939.806 410.379 L 981.385 396.519 L 1009.104 368.800 L 1022.964 341.081 L 1022.964 299.502 L 1009.104 271.783 L 995.244 257.923 L 953.666 244.064 L 898.227 244.064 L 856.649 257.923 L 842.789 271.783 L 828.929 299.502 L 828.929 341.081 L 842.789 368.800 L 870.508 396.519 L 912.087 410.379 L 967.525 424.238 L 995.244 438.098 L 1009.104 465.817 L 1009.104 493.536 L 995.244 521.255 L 953.666 535.115 L 898.227 535.115" fill="none" stroke="black" stroke-width="1" /><path transform="matrix(.06,0,0,-.06,0,595)" d="M9790 3322 9651 3229 9753 3362Z" />
<path transform="matrix(.06,0,0,-.06,0,595)" stroke-linecap="round" stroke-miterlimit="10" stroke-linejoin="miter" fill="none" stroke="#000000" d="M9790 3322 9651 3229 9753 3362Z" />
<path transform="matrix(.06,0,0,-.06,0,595)" stroke-width="9" stroke-linecap="round" stroke-linejoin="round" fill="none" stroke="#000000" d="M9772 3342 10196 3737H10362 13231" />
</g>
<g inkscape:groupmode="layer" inkscape:label="FD_Dimensions">
<path transform="matrix(.06,0,0,-.06,0,595)" stroke-width="9" stroke-linecap="round" stroke-linejoin="round" fill="none" stroke="#000000" d="M8370 5828 7626 5310" />
<path transform="matrix(.06,0,0,-.06,0,595)" stroke-width="9" stroke-linecap="round" stroke-linejoin="round" fill="none" stroke="#000000" d="M7107 4948 6971 4854" />
<use data-text="Ø" xlink:href="#font_4_145" transform="matrix(11.374002,-7.9195029,-7.9195029,-11.374002,466.02,265.18)" />
<path d="M 488.687 181.845 L 469.393 178.390 L 472.848 159.097 L 492.141 162.551 L 488.687 181.845" fill="none" stroke="black" stroke-width="1" /><path d="M 609.631 300.292 L 640.299 295.827 L 698.179 306.191 L 531.869 67.336" fill="none" stroke="black" stroke-width="1" /><path d="M 585.287 300.354 L 593.207 311.728 L 620.420 326.556 L 639.713 330.011 L 670.381 325.546 L 715.877 293.868 L 730.705 266.655 L 734.160 247.361 L 729.695 216.694 L 713.856 193.946 L 686.643 179.117 L 640.136 160.834 L 447.201 126.289 L 606.437 15.416" fill="none" stroke="black" stroke-width="1" /><path d="M 743.938 223.665 L 748.403 254.332 L 722.201 289.465 L 699.453 305.304 L 657.411 317.688 L 610.905 299.405 L 559.933 250.455 L 520.336 193.585 L 500.032 140.169 L 506.941 101.582 L 533.143 66.450 L 544.517 58.530 L 586.559 46.146 L 625.146 53.055 L 660.278 79.257 L 668.198 90.631 L 680.582 132.673 L 673.673 171.260 L 647.471 206.392 L 636.097 214.312 L 594.055 226.696 L 555.468 219.787 L 520.336 193.585" fill="none" stroke="black" stroke-width="1" /><path transform="matrix(.06,0,0,-.06,0,595)" stroke-width="9" stroke-linecap="round" stroke-linejoin="round" fill="none" stroke="#000000" d="M7242 5043 7491 5216" />
<path transform="matrix(.06,0,0,-.06,0,595)" d="M7091 4971 7122 4926 7242 5043Z" />
<path transform="matrix(.06,0,0,-.06,0,595)" stroke-linecap="round" stroke-miterlimit="10" stroke-linejoin="miter" fill="none" stroke="#000000" d="M7091 4971 7122 4926 7242 5043Z" />
<path transform="matrix(.06,0,0,-.06,0,595)" d="M7610 5333 7642 5287 7491 5216Z" />
<path transform="matrix(.06,0,0,-.06,0,595)" stroke-linecap="round" stroke-miterlimit="10" stroke-linejoin="miter" fill="none" stroke="#000000" d="M7610 5333 7642 5287 7491 5216Z" />
</g>
</g>
</svg>