<svg xmlns="http://www.w3.org/2000/svg" xmlns:xlink="http://www.w3.org/1999/xlink" xmlns:inkscape="http://www.inkscape.org/namespaces/inkscape" version="1.1" width="842" height="595" viewBox="0 0 842 595">
<defs>
<clipPath id="clip_1">
<path transform="matrix(.06,0,0,-.06,0,595)" d="M3178 2142H10098V7738H3178V2142"/>
</clipPath>
<clipPath id="clip_2">
<path transform="matrix(.06,0,0,-.06,0,595)" d="M0 0H14031V9921H0V0"/>
</clipPath>
<clipPath id="clip_3">
<path transform="matrix(.06,0,0,-.06,0,595)" d="M0 0H14031V9921H0V0"/>
</clipPath>
<path id="font_4_21" d="M.50341799 .084472659V0H.030273438C.029622397 .021148682 .033040365 .041483564 .040527345 .06100464 .052571615 .09321085 .07185873 .124928798 .09838867 .15615845 .12491862 .1873881 .1632487 .22350057 .2133789 .26449586 .29117839 .3282369 .34375 .37872825 .37109376 .41596986 .3984375 .45321147 .41210938 .48841859 .41210938 .5215912 .41210938 .5563914 .3996582 .5857442 .37475587 .60964968 .34985353 .6335551 .3173828 .6455078 .27734376 .6455078 .23502605 .6455078 .20117188 .6328125 .17578125 .6074219 .15039063 .58203127 .13753255 .546875 .13720703 .5019531L.046875 .5112457C.053059896 .5787811 .07633463 .630249 .11669922 .6656494 .1570638 .7010498 .21126302 .71875 .27929688 .71875 .34798179 .71875 .40234376 .69970199 .4423828 .66160586 .48242188 .6235097 .5024414 .57629397 .5024414 .5199585 .5024414 .4913025 .49658204 .46313478 .48486329 .43545533 .47314454 .40777589 .45369468 .3786316 .42651368 .34802247 .39933268 .3174235 .35416667 .27542115 .29101563 .22201538 .23828125 .17779541 .20442708 .14779663 .18945313 .13201905 .17447917 .116251628 .16210938 .10040283 .15234375 .084472659H.50341799Z"/>
<path id="font_4_17" d="M.09082031 0V.10058594H.19091797V0H.09082031Z"/>
<path id="font_4_26" d="M.04736328 .6225586V.70703127H.5107422V.6386719C.46516929 .5901286 .42000328 .5256246 .37524415 .4451599 .33048503 .36469523 .29589845 .2819519 .27148438 .19692993 .25390626 .13698323 .24267578 .07133993 .23779297 0H.14746094C.1484375 .056355794 .1595052 .12444051 .18066406 .20425415 .20182292 .28407798 .23217774 .3610433 .27172853 .43515016 .3112793 .50926718 .35335288 .57173666 .39794923 .6225586H.04736328Z"/>
<path id="font_4_24" d="M.041503908 .18847656 .13378906 .19628906C.140625 .15151978 .15649414 .117863979 .18139649 .095321658 .20629883 .07278951 .23632813 .061523439 .27148438 .061523439 .3138021 .061523439 .34960938 .077448528 .37890626 .109298709 .40820313 .14115906 .42285157 .18341573 .42285157 .23606873 .42285157 .28612773 .4087728 .32562257 .38061524 .35455323 .35245768 .3834839 .31559245 .39794923 .27001954 .39794923 .24169922 .39794923 .21614583 .39156596 .19335938 .37879945 .17057292 .36603294 .15266927 .34946696 .13964844 .32910157L.057128908 .33984376 .12646485 .70703127H.48242188V.62402346H.19677735L.15820313 .43115235C.20117188 .46077476 .24625652 .47558595 .29345704 .47558595 .35595704 .47558595 .4086914 .45391337 .45166017 .41056825 .4946289 .36723329 .5161133 .31151835 .5161133 .24342346 .5161133 .17857361 .49723307 .122528079 .45947267 .075286868 .41357423 .017283122 .35091148-.01171875 .27148438-.01171875 .2063802-.01171875 .15323894 .006556193 .11206055 .04310608 .070882167 .07965597 .04736328 .1281128 .041503908 .18847656Z"/>
<path id="font_4_28" d="M.0546875 .16694641 .13916016 .17480469C.14632161 .13509114 .15999349 .106282558 .18017578 .088378909 .20035808 .07047526 .22623699 .061523439 .2578125 .061523439 .28483073 .061523439 .30851237 .067708339 .32885743 .080078128 .34920249 .092447917 .3658854 .1089681 .37890626 .12963867 .3919271 .15030925 .40283204 .17822266 .4116211 .2133789 .42041017 .24853516 .4248047 .28434245 .4248047 .32080079 .4248047 .32470704 .42464195 .3305664 .4243164 .3383789 .40673829 .31038413 .3827311 .28767906 .35229493 .27026368 .32185874 .2528483 .28889976 .24414063 .25341798 .24414063 .19417317 .24414063 .14404297 .26555888 .103027347 .3083954 .06201172 .3512319 .041503908 .40769959 .041503908 .47779847 .041503908 .55016586 .0629069 .6084137 .10571289 .6525421 .14851888 .6966807 .20214844 .71875 .26660157 .71875 .31315104 .71875 .3557129 .70622256 .3942871 .6811676 .43286134 .65612289 .4621582 .62042239 .48217774 .57406619 .50219729 .52770999 .51220706 .46061708 .51220706 .37278749 .51220706 .28137718 .5022786 .20858765 .48242188 .15441895 .4625651 .100260417 .43302409 .05903117 .39379884 .030731202 .35457359 .0024312337 .30859376-.01171875 .25585938-.01171875 .1998698-.01171875 .15413411 .00390625 .118652347 .03515625 .08317057 .06640625 .061848958 .1103363 .0546875 .16694641M.41455079 .48194886C.41455079 .5320994 .40112306 .57189437 .37426759 .6013336 .3474121 .6307831 .31510417 .6455078 .27734376 .6455078 .23828125 .6455078 .20426433 .62965396 .17529297 .59794619 .14632161 .5662384 .13183594 .5251465 .13183594 .4746704 .13183594 .42936198 .14558919 .3925527 .1730957 .36424256 .20060222 .3359324 .23453777 .32177735 .27490235 .32177735 .31559245 .32177735 .3490397 .3359324 .37524415 .36424256 .40144859 .3925527 .41455079 .43178813 .41455079 .48194886Z"/>
<clipPath id="clip_5">
<path transform="matrix(.06,0,0,-.06,0,595)" d="M0 0H14031V9921H0V0"/>
</clipPath>
<path id="font_4_19" d="M.041503908 .35327149C.041503908 .43784587 .05021159 .50591537 .06762695 .55747988 .08504232 .6090444 .11092123 .6488139 .14526367 .67678835 .17960613 .70476278 .22281902 .71875 .27490235 .71875 .3133138 .71875 .34700523 .711024 .37597657 .6955719 .4049479 .6801198 .4288737 .6578369 .4477539 .62872317 .46663413 .5996094 .4814453 .56414797 .4921875 .52233889 .5029297 .48053996 .5083008 .42418418 .5083008 .35327149 .5083008 .26934815 .49967448 .2016042 .48242188 .15003968 .46516929 .098475139 .43937174 .058624269 .4050293 .03048706 .37068687 .0023498536 .3273112-.01171875 .27490235-.01171875 .20589192-.01171875 .1516927 .013005574 .11230469 .062454225 .065104167 .12198385 .041503908 .21892293 .041503908 .35327149M.13183594 .35351563C.13183594 .23639934 .14558919 .15845235 .1730957 .11967468 .20060222 .08090719 .23453777 .061523439 .27490235 .061523439 .31526695 .061523439 .34920249 .08098856 .37670899 .11991882 .40421549 .15884908 .41796876 .23671468 .41796876 .35351563 .41796876 .47095744 .40421549 .5489807 .37670899 .58758547 .34920249 .6262004 .3149414 .6455078 .27392579 .6455078 .2335612 .6455078 .20133464 .62847396 .1772461 .5944061 .14697266 .5509288 .13183594 .47063194 .13183594 .35351563Z"/>
<path id="font_4_23" d="M.3232422 0V.17138672H.0126953129V.25195313L.33935548 .7158203H.4111328V.25195313H.5078125V.17138672H.4111328V0H.3232422M.3232422 .25195313V.57470706L.099121097 .25195313H.3232422Z"/>
<path id="font_4_22" d="M.041992189 .19042969 .12988281 .20214844C.13997396 .15234375 .15714519 .11645508 .18139649 .09448242 .20564778 .072509769 .2351888 .061523439 .27001954 .061523439 .3113607 .061523439 .3462728 .07582092 .37475587 .10441589 .40323893 .13301087 .41748048 .1684316 .41748048 .2106781 .41748048 .25098167 .40429688 .2842102 .3779297 .31036378 .3515625 .3365275 .31803385 .34960938 .27734376 .34960938 .2607422 .34960938 .24007161 .34635417 .21533203 .33984376L.22509766 .4169922C.23095703 .41634117 .23567708 .41601563 .23925781 .41601563 .27669273 .41601563 .31038413 .42569987 .34033204 .44506837 .37027995 .46443687 .3852539 .4942932 .3852539 .53463748 .3852539 .56658938 .37434898 .59305319 .35253907 .61402896 .33072917 .63501486 .30257163 .6455078 .2680664 .6455078 .23388672 .6455078 .20540364 .6347656 .18261719 .61328127 .15983074 .5917969 .1451823 .5595703 .13867188 .51660159L.05078125 .53222659C.061523439 .591451 .0859375 .63734439 .12402344 .6699066 .16210938 .7024689 .20947266 .71875 .26611329 .71875 .30517579 .71875 .34114585 .71039327 .37402345 .6936798 .40690104 .67696639 .43204753 .6541646 .4494629 .62527468 .46687828 .59639486 .47558595 .5657247 .47558595 .53326418 .47558595 .5024312 .46728517 .47435508 .4506836 .44903565 .43408204 .4237264 .40950523 .40360514 .37695313 .38867188 .41927085 .37890626 .45214845 .35864259 .47558595 .32788087 .49902345 .29711915 .5107422 .2586263 .5107422 .21240235 .5107422 .14990235 .48795573 .09692383 .4423828 .053466798 .3968099 .010009766 .33919273-.01171875 .26953126-.01171875 .20670574-.01171875 .15454102 .007044474 .11303711 .044570924 .0715332 .082097377 .047851564 .13071697 .041992189 .19042969Z"/>
<path id="font_4_27" d="M.17675781 .38916017C.14029949 .40246583 .11328125 .42145286 .095703128 .44612123 .078125 .47078959 .06933594 .5003255 .06933594 .534729 .06933594 .5866597 .08805338 .63031008 .12548828 .66567996 .16292317 .70106 .21272786 .71875 .27490235 .71875 .33740235 .71875 .3876953 .7006531 .42578126 .6644592 .4638672 .6282756 .48291017 .5842183 .48291017 .5322876 .48291017 .4991862 .47420249 .4703827 .4567871 .44587709 .43937174 .42137147 .4129232 .40246583 .3774414 .38916017 .42138673 .3748169 .45483399 .3516744 .4777832 .31973268 .5007324 .28780113 .51220706 .24966939 .51220706 .20533753 .51220706 .1440684 .4905599 .09257507 .44726563 .050857545 .40397135 .009140015 .34700523-.01171875 .2763672-.01171875 .20572917-.01171875 .14876302 .009221395 .10546875 .051101686 .06217448 .09298197 .040527345 .14521282 .040527345 .20779419 .040527345 .25439454 .052327474 .29342143 .075927738 .32487489 .09952799 .35632835 .13313802 .37775675 .17675781 .38916017M.15917969 .53707888C.15917969 .5035197 .17008464 .47608949 .19189453 .4547882 .21370442 .4334971 .24202474 .42285157 .27685548 .42285157 .31070964 .42285157 .3384603 .4334208 .36010743 .45455934 .38175456 .47569786 .39257813 .501592 .39257813 .5322418 .39257813 .5641937 .38142906 .5910594 .35913087 .61283877 .33683268 .6346181 .30908204 .6455078 .2758789 .6455078 .24235027 .6455078 .21451824 .6348572 .19238281 .6135559 .17024739 .59226486 .15917969 .56677249 .15917969 .53707888M.13085938 .20776367C.13085938 .18273926 .13680013 .15852864 .14868164 .13513184 .16056316 .11173502 .17822266 .09361776 .20166016 .08078003 .22509766 .0679423 .25032554 .061523439 .27734376 .061523439 .31933595 .061523439 .3540039 .07500712 .38134767 .10197449 .4086914 .12895203 .42236329 .16323853 .42236329 .20483399 .42236329 .24708049 .40828453 .28201295 .38012696 .30963136 .3519694 .33725993 .31673179 .35107423 .27441407 .35107423 .23307292 .35107423 .19881185 .3374227 .17163086 .31011964 .14444988 .28282676 .13085938 .24870809 .13085938 .20776367Z"/>
<path id="font_4_25" d="M.4975586 .5400543 .41015626 .5332031C.40234376 .5675557 .39127604 .59251406 .37695313 .608078 .3531901 .6330312 .32389323 .6455078 .2890625 .6455078 .26106773 .6455078 .23649089 .637736 .21533203 .6221924 .18766277 .602122 .16585286 .57282 .14990235 .5342865 .13395183 .49575297 .12565105 .4408671 .125 .3696289 .14615886 .40185548 .17203777 .42578126 .20263672 .44140626 .23323567 .45703126 .26529948 .46484376 .29882813 .46484376 .35742188 .46484376 .40730796 .44327799 .44848634 .40014649 .4896647 .35701499 .5102539 .30126954 .5102539 .23291016 .5102539 .18798828 .50056967 .14624024 .48120118 .107666019 .46183268 .0690918 .43522135 .03955078 .4013672 .019042969 .36751304-.0014648438 .32910157-.01171875 .2861328-.01171875 .21289063-.01171875 .15315755 .015197754 .106933597 .06903076 .060709638 .12287394 .037597658 .2116038 .037597658 .33522035 .037597658 .47347514 .06315104 .57399496 .11425781 .6367798 .15885417 .6914266 .21891277 .71875 .2944336 .71875 .3507487 .71875 .39689128 .70292159 .43286134 .67126467 .4688314 .6396077 .49039714 .595871 .4975586 .5400543M.13867188 .23287964C.13867188 .20269776 .1451009 .17381287 .15795899 .14622498 .17081706 .118637088 .18880208 .09762064 .21191406 .08317566 .23502605 .068740848 .25927735 .061523439 .28466798 .061523439 .32177735 .061523439 .35367839 .07645162 .3803711 .10630798 .4070638 .13616435 .42041017 .17673238 .42041017 .22801209 .42041017 .27734886 .40722657 .31621299 .38085938 .3446045 .3544922 .3730062 .32128907 .38720704 .28125 .38720704 .24153646 .38720704 .20784505 .3730062 .18017578 .3446045 .15250652 .31621299 .13867188 .27897135 .13867188 .23287964Z"/>
<path id="font_4_20" d="M.3725586 0H.28466798V.5600586C.26350913 .5398763 .23575847 .51969406 .20141602 .49951173 .16707357 .47932945 .13623047 .46419273 .10888672 .45410157V.5390625C.15804036 .5621745 .20100911 .59016928 .23779297 .6230469 .2745768 .6559245 .3006185 .6878255 .31591798 .71875H.3725586V0Z"/>
<path id="font_4_91" d="M.0073242189 0 .19677735 .26953126 .021484375 .5185547H.13134766L.2109375 .39697267C.22591146 .3738607 .23795574 .3544922 .24707031 .3388672 .26139323 .36035157 .2745768 .37939454 .2866211 .3959961L.37402345 .5185547H.4790039L.2998047 .27441407 .49267579 0H.38476563L.2783203 .16113281 .25 .20458985 .11376953 0H.0073242189Z"/>
<path id="font_4_3" d=""/>
<path id="font_4_48" d="M.07421875 0V.7158203H.21679688L.38623048 .20898438C.40185548 .16178386 .4132487 .12646485 .42041017 .103027347 .4285482 .12906902 .4412435 .1673177 .4584961 .21777344L.6298828 .7158203H.7573242V0H.6660156V.5991211L.4580078 0H.3725586L.16552735 .609375V0H.07421875Z"/>
<path id="font_4_43" d="M.080078128 0V.7158203H.17480469V.421875H.546875V.7158203H.64160159V0H.546875V.33740235H.17480469V0H.080078128Z"/>
<path id="font_4_18" d="M0-.01171875 .20751953 .72753909H.27783204L.07080078-.01171875H0Z"/>
<path id="font_4_145" d="M.61035159 .6508789 .6923828 .74316409 .74072268 .70214846 .65478518 .60498049C.68277999 .5633138 .70166018 .52685549 .7114258 .49560548 .7244466 .45458985 .73095706 .4086914 .73095706 .35791017 .73095706 .28466798 .7161458 .21940105 .68652346 .16210938 .65690109 .10481771 .61531576 .061523439 .5617676 .032226564 .5082194 .0029296876 .45133464-.01171875 .39111329-.01171875 .3461914-.01171875 .3055013-.0053710939 .26904298 .0073242189 .24104817 .017089844 .20833333 .035807294 .17089844 .06347656L.08886719-.028320313 .040527345 .0126953129 .12646485 .10888672C.094563808 .15738933 .07324219 .19881185 .0625 .2331543 .051757814 .26749674 .04638672 .3087565 .04638672 .3569336 .04638672 .4305013 .061035158 .49601237 .09033203 .5534668 .119628909 .6109212 .1607259 .65445968 .21362305 .68408206 .26652018 .7137044 .32535807 .7285156 .39013673 .7285156 .4337565 .7285156 .47192384 .7227376 .5046387 .71118167 .5373535 .6996257 .5725911 .6795247 .61035159 .6508789M.5517578 .5853424C.5211589 .6094716 .49438478 .62593588 .47143556 .6347351 .44848634 .6435445 .42154948 .6479492 .390625 .6479492 .31933595 .6479492 .26041667 .6237335 .21386719 .5753021 .1673177 .5268707 .14404297 .45455424 .14404297 .35835267 .14404297 .32052104 .1476237 .28693138 .15478516 .25758363 .15999349 .23573303 .17089844 .2088267 .1875 .17686463L.5517578 .5853424M.5917969 .53504946 .2290039 .1280365C.254069 .107488 .277181 .09313965 .29833985 .084991458 .32600913 .07422892 .35595704 .068847659 .3881836 .068847659 .45914714 .068847659 .5177409 .093958538 .56396487 .1441803 .6101888 .19440206 .6333008 .2648468 .6333008 .35551454 .6333008 .42334495 .6194661 .4831899 .5917969 .53504946Z"/>
</defs>
<g clip-path="url(#clip_1)">
<g inkscape:groupmode="layer" inkscape:label="Visible">
<path transform="matrix(.06,0,0,-.06,0,595)" stroke-width="17" stroke-linecap="round" stroke-linejoin="round" fill="none" stroke="#000000" d="M9572.5 3021C9638.498 3021 9692 3074.502 9692 3140.5 9692 3206.498 9638.498 3260 9572.5 3260 9506.502 3260 9453 3206.498 9453 3140.5 9453 3074.502 9506.502 3021 9572.5 3021"/>
<path transform="matrix(.06,0,0,-.06,0,595)" stroke-width="17" stroke-linecap="round" stroke-linejoin="round" fill="none" stroke="#000000" d="M9572.5 5661C9638.498 5661 9692 5714.502 9692 5780.5 9692 5846.498 9638.498 5900 9572.5 5900 9506.502 5900 9453 5846.498 9453 5780.5 9453 5714.502 9506.502 5661 9572.5 5661"/>
<path transform="matrix(.06,0,0,-.06,0,595)" stroke-width="17" stroke-linecap="round" stroke-linejoin="round" fill="none" stroke="#000000" d="M4650.5 2541C4716.498 2541 4770 2594.502 4770 2660.5 4770 2726.498 4716.498 2780 4650.5 2780 4584.502 2780 4531 2726.498 4531 2660.5 4531 2594.502 4584.502 2541 4650.5 2541"/>
<path transform="matrix(.06,0,0,-.06,0,595)" stroke-width="17" stroke-linecap="round" stroke-linejoin="round" fill="none" stroke="#000000" d="M5004.5 4978C5088.1716 4978 5156 5045.8288 5156 5129.5 5156 5213.1716 5088.1716 5281 5004.5 5281 4920.8288 5281 4853 5213.1716 4853 5129.5 4853 5045.8288 4920.8288 4978 5004.5 4978"/>
<path transform="matrix(.06,0,0,-.06,0,595)" stroke-width="17" stroke-linecap="round" stroke-linejoin="round" fill="none" stroke="#000000" d="M7367.5 4978C7451.1716 4978 7519 5045.8288 7519 5129.5 7519 5213.1716 7451.1716 5281 7367.5 5281 7283.8288 5281 7216 5213.1716 7216 5129.5 7216 5045.8288 7283.8288 4978 7367.5 4978"/>
<path transform="matrix(.06,0,0,-.06,0,595)" stroke-width="17" stroke-linecap="round" stroke-linejoin="round" fill="none" stroke="#000000" d="M9946 2294V7586H3330V2294H9946"/>
</g>
<g inkscape:groupmode="layer" inkscape:label="Visible Narrow">
<path transform="matrix(.0590892,-.0104166,-.0104166,-.0590892,574.35,406.57)" stroke-width="9" stroke-linecap="round" stroke-linejoin="round" fill="none" stroke="#000000" d="M145.5 0C145.5 80.35744 80.35744 145.5 0 145.5-80.35744 145.5-145.5 80.35744-145.5 0-145.5-80.35744-80.35744-145.5 0-145.5"/>
<path transform="matrix(.0590892,-.0104166,-.0104166,-.0590892,574.35,248.17002)" stroke-width="9" stroke-linecap="round" stroke-linejoin="round" fill="none" stroke="#000000" d="M145.5 0C145.5 80.35744 80.35744 145.5 0 145.5-80.35744 145.5-145.5 80.35744-145.5 0-145.5-80.35744-80.35744-145.5 0-145.5"/>
<path transform="matrix(.0590892,-.0104166,-.0104166,-.0590892,279.03,435.37)" stroke-width="9" stroke-linecap="round" stroke-linejoin="round" fill="none" stroke="#000000" d="M145.5 0C145.5 80.35744 80.35744 145.5 0 145.5-80.35744 145.5-145.5 80.35744-145.5 0-145.5-80.35744-80.35744-145.5 0-145.5"/>
</g>
</g>
<g clip-path="url(#clip_2)">
<g inkscape:groupmode="layer" inkscape:label="BORDER">
<path transform="matrix(.06,0,0,-.06,0,595)" stroke-width="9" stroke-linecap="round" stroke-linejoin="round" fill="none" stroke="#000000" d="M944 9448V472"/>
<path transform="matrix(.06,0,0,-.06,0,595)" stroke-width="9" stroke-linecap="round" stroke-linejoin="round" fill="none" stroke="#000000" d="M944 472H13558V9448H944"/>
<path transform="matrix(.06,0,0,-.06,0,595)" stroke-width="9" stroke-linecap="round" stroke-linejoin="round" fill="none" stroke="#000000" d="M708 4724H1181"/>
<path transform="matrix(.06,0,0,-.06,0,595)" stroke-width="9" stroke-linecap="round" stroke-linejoin="round" fill="none" stroke="#000000" d="M13794 4724H13322"/>
<path transform="matrix(.06,0,0,-.06,0,595)" stroke-width="9" stroke-linecap="round" stroke-linejoin="round" fill="none" stroke="#000000" d="M7015 9684V9212"/>
<path transform="matrix(.06,0,0,-.06,0,595)" stroke-width="9" stroke-linecap="round" stroke-linejoin="round" fill="none" stroke="#000000" d="M7015 236V708"/>
</g>
<g inkscape:groupmode="layer" inkscape:label="Smart Centers">
<path transform="matrix(.06,0,0,-.06,0,595)" stroke-width="9" stroke-linecap="round" stroke-linejoin="round" fill="none" stroke="#000000" d="M9529 5780H9613"/>
<path transform="matrix(.06,0,0,-.06,0,595)" stroke-width="9" stroke-linecap="round" stroke-linejoin="round" fill="none" stroke="#000000" d="M9571 5738V5822"/>
<path transform="matrix(.06,0,0,-.06,0,595)" stroke-width="9" stroke-linecap="round" stroke-linejoin="round" fill="none" stroke="#000000" d="M9260 5780H9444"/>
<path transform="matrix(.06,0,0,-.06,0,595)" stroke-width="9" stroke-linecap="round" stroke-linejoin="round" fill="none" stroke="#000000" d="M9697 5780H9882"/>
<path transform="matrix(.06,0,0,-.06,0,595)" stroke-width="9" stroke-linecap="round" stroke-linejoin="round" fill="none" stroke="#000000" d="M9571 5469V5654"/>
<path transform="matrix(.06,0,0,-.06,0,595)" stroke-width="9" stroke-linecap="round" stroke-linejoin="round" fill="none" stroke="#000000" d="M9571 5907V6091"/>
<path transform="matrix(.06,0,0,-.06,0,595)" stroke-width="9" stroke-linecap="round" stroke-linejoin="round" fill="none" stroke="#000000" d="M9529 3140H9613"/>
<path transform="matrix(.06,0,0,-.06,0,595)" stroke-width="9" stroke-linecap="round" stroke-linejoin="round" fill="none" stroke="#000000" d="M9571 3098V3183"/>
<path transform="matrix(.06,0,0,-.06,0,595)" stroke-width="9" stroke-linecap="round" stroke-linejoin="round" fill="none" stroke="#000000" d="M9260 3140H9444"/>
<path transform="matrix(.06,0,0,-.06,0,595)" stroke-width="9" stroke-linecap="round" stroke-linejoin="round" fill="none" stroke="#000000" d="M9697 3140H9882"/>
<path transform="matrix(.06,0,0,-.06,0,595)" stroke-width="9" stroke-linecap="round" stroke-linejoin="round" fill="none" stroke="#000000" d="M9571 2829V3014"/>
<path transform="matrix(.06,0,0,-.06,0,595)" stroke-width="9" stroke-linecap="round" stroke-linejoin="round" fill="none" stroke="#000000" d="M9571 3267V3451"/>
<path transform="matrix(.06,0,0,-.06,0,595)" stroke-width="9" stroke-linecap="round" stroke-linejoin="round" fill="none" stroke="#000000" d="M4609 2660H4693"/>
<path transform="matrix(.06,0,0,-.06,0,595)" stroke-width="9" stroke-linecap="round" stroke-linejoin="round" fill="none" stroke="#000000" d="M4651 2618V2703"/>
<path transform="matrix(.06,0,0,-.06,0,595)" stroke-width="9" stroke-linecap="round" stroke-linejoin="round" fill="none" stroke="#000000" d="M4340 2660H4524"/>
<path transform="matrix(.06,0,0,-.06,0,595)" stroke-width="9" stroke-linecap="round" stroke-linejoin="round" fill="none" stroke="#000000" d="M4778 2660H4962"/>
<path transform="matrix(.06,0,0,-.06,0,595)" stroke-width="9" stroke-linecap="round" stroke-linejoin="round" fill="none" stroke="#000000" d="M4651 2349V2534"/>
<path transform="matrix(.06,0,0,-.06,0,595)" stroke-width="9" stroke-linecap="round" stroke-linejoin="round" fill="none" stroke="#000000" d="M4651 2787V2971"/>
<path transform="matrix(.06,0,0,-.06,0,595)" stroke-width="9" stroke-linecap="round" stroke-linejoin="round" fill="none" stroke="#000000" d="M4962 5129H5047"/>
<path transform="matrix(.06,0,0,-.06,0,595)" stroke-width="9" stroke-linecap="round" stroke-linejoin="round" fill="none" stroke="#000000" d="M5004 5087V5171"/>
<path transform="matrix(.06,0,0,-.06,0,595)" stroke-width="9" stroke-linecap="round" stroke-linejoin="round" fill="none" stroke="#000000" d="M4688 5129H4878"/>
<path transform="matrix(.06,0,0,-.06,0,595)" stroke-width="9" stroke-linecap="round" stroke-linejoin="round" fill="none" stroke="#000000" d="M5131 5129H5321"/>
<path transform="matrix(.06,0,0,-.06,0,595)" stroke-width="9" stroke-linecap="round" stroke-linejoin="round" fill="none" stroke="#000000" d="M5004 4813V5003"/>
<path transform="matrix(.06,0,0,-.06,0,595)" stroke-width="9" stroke-linecap="round" stroke-linejoin="round" fill="none" stroke="#000000" d="M5004 5256V5446"/>
<path transform="matrix(.06,0,0,-.06,0,595)" stroke-width="9" stroke-linecap="round" stroke-linejoin="round" fill="none" stroke="#000000" d="M7324 5129H7409"/>
<path transform="matrix(.06,0,0,-.06,0,595)" stroke-width="9" stroke-linecap="round" stroke-linejoin="round" fill="none" stroke="#000000" d="M7366 5087V5171"/>
<path transform="matrix(.06,0,0,-.06,0,595)" stroke-width="9" stroke-linecap="round" stroke-linejoin="round" fill="none" stroke="#000000" d="M7050 5129H7240"/>
<path transform="matrix(.06,0,0,-.06,0,595)" stroke-width="9" stroke-linecap="round" stroke-linejoin="round" fill="none" stroke="#000000" d="M7493 5129H7683"/>
<path transform="matrix(.06,0,0,-.06,0,595)" stroke-width="9" stroke-linecap="round" stroke-linejoin="round" fill="none" stroke="#000000" d="M7366 4813V5003"/>
<path transform="matrix(.06,0,0,-.06,0,595)" stroke-width="9" stroke-linecap="round" stroke-linejoin="round" fill="none" stroke="#000000" d="M7366 5256V5446"/>
</g>
<g inkscape:groupmode="layer" inkscape:label="FD_Dimensions">
<path transform="matrix(.06,0,0,-.06,0,595)" stroke-width="9" stroke-linecap="round" stroke-linejoin="round" fill="none" stroke="#000000" d="M9945 7685V8181"/>
<path transform="matrix(.06,0,0,-.06,0,595)" stroke-width="9" stroke-linecap="round" stroke-linejoin="round" fill="none" stroke="#000000" d="M3331 7685V8181"/>
<path transform="matrix(.06,0,0,-.06,0,595)" stroke-width="9" stroke-linecap="round" stroke-linejoin="round" fill="none" stroke="#000000" d="M9780 8082H3496"/>
<path transform="matrix(.06,0,0,-.06,0,595)" d="M9780 8109V8054L9945 8082Z"/>
<path transform="matrix(.06,0,0,-.06,0,595)" stroke-linecap="round" stroke-miterlimit="10" stroke-linejoin="miter" fill="none" stroke="#000000" d="M9780 8109V8054L9945 8082Z"/>
<path transform="matrix(.06,0,0,-.06,0,595)" d="M3496 8109V8054L3331 8082Z"/>
<path transform="matrix(.06,0,0,-.06,0,595)" stroke-linecap="round" stroke-miterlimit="10" stroke-linejoin="miter" fill="none" stroke="#000000" d="M3496 8109V8054L3331 8082Z"/>
</g>
</g>
<g clip-path="url(#clip_3)">
<g inkscape:groupmode="layer" inkscape:label="FD_Dimensions">
<use data-text="2" xlink:href="#font_4_21" transform="matrix(13.859579,0,0,-13.859579,377.16,105.94)"/>
<use data-text="." xlink:href="#font_4_17" transform="matrix(13.859579,0,0,-13.859579,384.8659,105.94)"/>
<use data-text="7" xlink:href="#font_4_26" transform="matrix(13.859579,0,0,-13.859579,388.71888,105.94)"/>
<use data-text="5" xlink:href="#font_4_24" transform="matrix(13.859579,0,0,-13.859579,396.4248,105.94)"/>
<use data-text="5" xlink:href="#font_4_24" transform="matrix(13.859579,0,0,-13.859579,404.13075,105.94)"/>
<use data-text="9" xlink:href="#font_4_28" transform="matrix(13.859579,0,0,-13.859579,411.83665,105.94)"/>
</g>
</g>
<g clip-path="url(#clip_5)">
<path transform="matrix(.06,0,0,-.06,0,595)" stroke-width="9" stroke-linecap="round" stroke-linejoin="round" fill="none" stroke="#000000" d="M3232 7586H2736"/>
<path transform="matrix(.06,0,0,-.06,0,595)" stroke-width="9" stroke-linecap="round" stroke-linejoin="round" fill="none" stroke="#000000" d="M3232 2295H2736"/>
<path transform="matrix(.06,0,0,-.06,0,595)" stroke-width="9" stroke-linecap="round" stroke-linejoin="round" fill="none" stroke="#000000" d="M2835 7420V2460"/>
<path transform="matrix(.06,0,0,-.06,0,595)" d="M2807 7420H2863L2835 7586Z"/>
<path transform="matrix(.06,0,0,-.06,0,595)" stroke-linecap="round" stroke-miterlimit="10" stroke-linejoin="miter" fill="none" stroke="#000000" d="M2807 7420H2863L2835 7586Z"/>
<path transform="matrix(.06,0,0,-.06,0,595)" d="M2807 2460H2863L2835 2295Z"/>
<path transform="matrix(.06,0,0,-.06,0,595)" stroke-linecap="round" stroke-miterlimit="10" stroke-linejoin="miter" fill="none" stroke="#000000" d="M2807 2460H2863L2835 2295Z"/>
<use data-text="2" xlink:href="#font_4_21" transform="matrix(0,-13.859579,-13.859579,-0,165.95999,319.66)"/>
<use data-text="." xlink:href="#font_4_17" transform="matrix(0,-13.859579,-13.859579,-0,165.95999,311.95408)"/>
<use data-text="2" xlink:href="#font_4_21" transform="matrix(0,-13.859579,-13.859579,-0,165.95999,308.10115)"/>
<use data-text="0" xlink:href="#font_4_19" transform="matrix(0,-13.859579,-13.859579,-0,165.95999,300.3952)"/>
<use data-text="4" xlink:href="#font_4_23" transform="matrix(0,-13.859579,-13.859579,-0,165.95999,292.68928)"/>
<use data-text="7" xlink:href="#font_4_26" transform="matrix(0,-13.859579,-13.859579,-0,165.95999,284.98335)"/>
<g inkscape:groupmode="layer" inkscape:label="Smart Centers">
<path transform="matrix(.06,0,0,-.06,0,595)" stroke-width="9" stroke-linecap="round" stroke-linejoin="round" fill="none" stroke="#000000" d="M10110 4940H9802"/>
<path transform="matrix(.06,0,0,-.06,0,595)" stroke-width="9" stroke-linecap="round" stroke-linejoin="round" fill="none" stroke="#000000" d="M9718 4940H9633"/>
<path transform="matrix(.06,0,0,-.06,0,595)" stroke-width="9" stroke-linecap="round" stroke-linejoin="round" fill="none" stroke="#000000" d="M9549 4940H9043"/>
<path transform="matrix(.06,0,0,-.06,0,595)" stroke-width="9" stroke-linecap="round" stroke-linejoin="round" fill="none" stroke="#000000" d="M8958 4940H8874"/>
<path transform="matrix(.06,0,0,-.06,0,595)" stroke-width="9" stroke-linecap="round" stroke-linejoin="round" fill="none" stroke="#000000" d="M8789 4940H8283"/>
<path transform="matrix(.06,0,0,-.06,0,595)" stroke-width="9" stroke-linecap="round" stroke-linejoin="round" fill="none" stroke="#000000" d="M8199 4940H8115"/>
<path transform="matrix(.06,0,0,-.06,0,595)" stroke-width="9" stroke-linecap="round" stroke-linejoin="round" fill="none" stroke="#000000" d="M8030 4940H7524"/>
<path transform="matrix(.06,0,0,-.06,0,595)" stroke-width="9" stroke-linecap="round" stroke-linejoin="round" fill="none" stroke="#000000" d="M7440 4940H7355"/>
<path transform="matrix(.06,0,0,-.06,0,595)" stroke-width="9" stroke-linecap="round" stroke-linejoin="round" fill="none" stroke="#000000" d="M7271 4940H6765"/>
<path transform="matrix(.06,0,0,-.06,0,595)" stroke-width="9" stroke-linecap="round" stroke-linejoin="round" fill="none" stroke="#000000" d="M6680 4940H6596"/>
<path transform="matrix(.06,0,0,-.06,0,595)" stroke-width="9" stroke-linecap="round" stroke-linejoin="round" fill="none" stroke="#000000" d="M6511 4940H6005"/>
<path transform="matrix(.06,0,0,-.06,0,595)" stroke-width="9" stroke-linecap="round" stroke-linejoin="round" fill="none" stroke="#000000" d="M5921 4940H5836"/>
<path transform="matrix(.06,0,0,-.06,0,595)" stroke-width="9" stroke-linecap="round" stroke-linejoin="round" fill="none" stroke="#000000" d="M5752 4940H5246"/>
<path transform="matrix(.06,0,0,-.06,0,595)" stroke-width="9" stroke-linecap="round" stroke-linejoin="round" fill="none" stroke="#000000" d="M5161 4940H5077"/>
<path transform="matrix(.06,0,0,-.06,0,595)" stroke-width="9" stroke-linecap="round" stroke-linejoin="round" fill="none" stroke="#000000" d="M4993 4940H4487"/>
<path transform="matrix(.06,0,0,-.06,0,595)" stroke-width="9" stroke-linecap="round" stroke-linejoin="round" fill="none" stroke="#000000" d="M4402 4940H4318"/>
<path transform="matrix(.06,0,0,-.06,0,595)" stroke-width="9" stroke-linecap="round" stroke-linejoin="round" fill="none" stroke="#000000" d="M4233 4940H3727"/>
<path transform="matrix(.06,0,0,-.06,0,595)" stroke-width="9" stroke-linecap="round" stroke-linejoin="round" fill="none" stroke="#000000" d="M3643 4940H3558"/>
<path transform="matrix(.06,0,0,-.06,0,595)" stroke-width="9" stroke-linecap="round" stroke-linejoin="round" fill="none" stroke="#000000" d="M3474 4940H3166"/>
<path transform="matrix(.06,0,0,-.06,0,595)" stroke-width="9" stroke-linecap="round" stroke-linejoin="round" fill="none" stroke="#000000" d="M6638 7751V7345"/>
<path transform="matrix(.06,0,0,-.06,0,595)" stroke-width="9" stroke-linecap="round" stroke-linejoin="round" fill="none" stroke="#000000" d="M6638 7260V7176"/>
<path transform="matrix(.06,0,0,-.06,0,595)" stroke-width="9" stroke-linecap="round" stroke-linejoin="round" fill="none" stroke="#000000" d="M6638 7092V6585"/>
<path transform="matrix(.06,0,0,-.06,0,595)" stroke-width="9" stroke-linecap="round" stroke-linejoin="round" fill="none" stroke="#000000" d="M6638 6501V6417"/>
<path transform="matrix(.06,0,0,-.06,0,595)" stroke-width="9" stroke-linecap="round" stroke-linejoin="round" fill="none" stroke="#000000" d="M6638 6332V5826"/>
<path transform="matrix(.06,0,0,-.06,0,595)" stroke-width="9" stroke-linecap="round" stroke-linejoin="round" fill="none" stroke="#000000" d="M6638 5742V5657"/>
<path transform="matrix(.06,0,0,-.06,0,595)" stroke-width="9" stroke-linecap="round" stroke-linejoin="round" fill="none" stroke="#000000" d="M6638 5573V5067"/>
<path transform="matrix(.06,0,0,-.06,0,595)" stroke-width="9" stroke-linecap="round" stroke-linejoin="round" fill="none" stroke="#000000" d="M6638 4982V4898"/>
<path transform="matrix(.06,0,0,-.06,0,595)" stroke-width="9" stroke-linecap="round" stroke-linejoin="round" fill="none" stroke="#000000" d="M6638 4814V4307"/>
<path transform="matrix(.06,0,0,-.06,0,595)" stroke-width="9" stroke-linecap="round" stroke-linejoin="round" fill="none" stroke="#000000" d="M6638 4223V4139"/>
<path transform="matrix(.06,0,0,-.06,0,595)" stroke-width="9" stroke-linecap="round" stroke-linejoin="round" fill="none" stroke="#000000" d="M6638 4054V3548"/>
<path transform="matrix(.06,0,0,-.06,0,595)" stroke-width="9" stroke-linecap="round" stroke-linejoin="round" fill="none" stroke="#000000" d="M6638 3464V3379"/>
<path transform="matrix(.06,0,0,-.06,0,595)" stroke-width="9" stroke-linecap="round" stroke-linejoin="round" fill="none" stroke="#000000" d="M6638 3295V2789"/>
<path transform="matrix(.06,0,0,-.06,0,595)" stroke-width="9" stroke-linecap="round" stroke-linejoin="round" fill="none" stroke="#000000" d="M6638 2704V2620"/>
<path transform="matrix(.06,0,0,-.06,0,595)" stroke-width="9" stroke-linecap="round" stroke-linejoin="round" fill="none" stroke="#000000" d="M6638 2536V2129"/>
</g>
<g inkscape:groupmode="layer" inkscape:label="FD_Dimensions">
<path transform="matrix(.06,0,0,-.06,0,595)" stroke-width="9" stroke-linecap="round" stroke-linejoin="round" fill="none" stroke="#000000" d="M6737 4940H10476"/>
<use data-text="0" xlink:href="#font_4_19" transform="matrix(13.859579,0,0,-13.859579,621.54,294.46003)"/>
<path transform="matrix(.06,0,0,-.06,0,595)" stroke-width="9" stroke-linecap="round" stroke-linejoin="round" fill="none" stroke="#000000" d="M9670 5780H10712"/>
<use data-text="." xlink:href="#font_4_17" transform="matrix(13.859579,0,0,-13.859579,624,244.06)"/>
<use data-text="3" xlink:href="#font_4_22" transform="matrix(13.859579,0,0,-13.859579,627.8529,244.06)"/>
<use data-text="5" xlink:href="#font_4_24" transform="matrix(13.859579,0,0,-13.859579,635.55886,244.06)"/>
<path transform="matrix(.06,0,0,-.06,0,595)" stroke-width="9" stroke-linecap="round" stroke-linejoin="round" fill="none" stroke="#000000" d="M9670 3140H10686"/>
<use data-text="." xlink:href="#font_4_17" transform="matrix(13.859579,0,0,-13.859579,622.44,402.46003)"/>
<use data-text="7" xlink:href="#font_4_26" transform="matrix(13.859579,0,0,-13.859579,626.2929,402.46003)"/>
<use data-text="5" xlink:href="#font_4_24" transform="matrix(13.859579,0,0,-13.859579,633.99887,402.46003)"/>
<path transform="matrix(.06,0,0,-.06,0,595)" stroke-width="9" stroke-linecap="round" stroke-linejoin="round" fill="none" stroke="#000000" d="M4750 2660H5527"/>
<use data-text="." xlink:href="#font_4_17" transform="matrix(13.859579,0,0,-13.859579,312.9,431.26)"/>
<use data-text="9" xlink:href="#font_4_28" transform="matrix(13.859579,0,0,-13.859579,316.75294,431.26)"/>
<use data-text="5" xlink:href="#font_4_24" transform="matrix(13.859579,0,0,-13.859579,324.45887,431.26)"/>
<path transform="matrix(.06,0,0,-.06,0,595)" stroke-width="9" stroke-linecap="round" stroke-linejoin="round" fill="none" stroke="#000000" d="M5104 5129H5934"/>
<use data-text="." xlink:href="#font_4_17" transform="matrix(13.859579,0,0,-13.859579,321.96,283.12)"/>
<use data-text="0" xlink:href="#font_4_19" transform="matrix(13.859579,0,0,-13.859579,325.81294,283.12)"/>
<use data-text="7" xlink:href="#font_4_26" transform="matrix(13.859579,0,0,-13.859579,333.51887,283.12)"/>
<use data-text="8" xlink:href="#font_4_27" transform="matrix(13.859579,0,0,-13.859579,341.2248,283.12)"/>
<use data-text="7" xlink:href="#font_4_26" transform="matrix(13.859579,0,0,-13.859579,348.93074,283.12)"/>
<path transform="matrix(.06,0,0,-.06,0,595)" stroke-width="9" stroke-linecap="round" stroke-linejoin="round" fill="none" stroke="#000000" d="M7366 5228V6294"/>
<use data-text="." xlink:href="#font_4_17" transform="matrix(0,-13.859579,-13.859579,-0,437.81999,251.44)"/>
<use data-text="3" xlink:href="#font_4_22" transform="matrix(0,-13.859579,-13.859579,-0,437.81999,247.58707)"/>
<use data-text="0" xlink:href="#font_4_19" transform="matrix(0,-13.859579,-13.859579,-0,437.81999,239.88114)"/>
<use data-text="3" xlink:href="#font_4_22" transform="matrix(0,-13.859579,-13.859579,-0,437.81999,232.1752)"/>
<use data-text="5" xlink:href="#font_4_24" transform="matrix(0,-13.859579,-13.859579,-0,437.81999,224.46927)"/>
<path transform="matrix(.06,0,0,-.06,0,595)" stroke-width="9" stroke-linecap="round" stroke-linejoin="round" fill="none" stroke="#000000" d="M5004 5228V6227"/>
<use data-text="." xlink:href="#font_4_17" transform="matrix(0,-13.859579,-13.859579,-0,296.1,255.4)"/>
<use data-text="6" xlink:href="#font_4_25" transform="matrix(0,-13.859579,-13.859579,-0,296.1,251.54706)"/>
<use data-text="8" xlink:href="#font_4_27" transform="matrix(0,-13.859579,-13.859579,-0,296.1,243.84113)"/>
<use data-text="0" xlink:href="#font_4_19" transform="matrix(0,-13.859579,-13.859579,-0,296.1,236.1352)"/>
<use data-text="7" xlink:href="#font_4_26" transform="matrix(0,-13.859579,-13.859579,-0,296.1,228.42929)"/>
<path transform="matrix(.06,0,0,-.06,0,595)" stroke-width="9" stroke-linecap="round" stroke-linejoin="round" fill="none" stroke="#000000" d="M9571 5879V6882"/>
<use data-text="1" xlink:href="#font_4_20" transform="matrix(0,-13.859579,-13.859579,-0,570.3,216.04001)"/>
<use data-text="." xlink:href="#font_4_17" transform="matrix(0,-13.859579,-13.859579,-0,570.3,208.33408)"/>
<use data-text="2" xlink:href="#font_4_21" transform="matrix(0,-13.859579,-13.859579,-0,570.3,204.48114)"/>
<use data-text="2" xlink:href="#font_4_21" transform="matrix(0,-13.859579,-13.859579,-0,570.3,196.7752)"/>
<use data-text="2" xlink:href="#font_4_21" transform="matrix(0,-13.859579,-13.859579,-0,570.3,189.06928)"/>
<path transform="matrix(.06,0,0,-.06,0,595)" stroke-width="9" stroke-linecap="round" stroke-linejoin="round" fill="none" stroke="#000000" d="M4651 2760V3904"/>
<use data-text="." xlink:href="#font_4_17" transform="matrix(0,-13.859579,-13.859579,-0,274.91999,387.1)"/>
<use data-text="8" xlink:href="#font_4_27" transform="matrix(0,-13.859579,-13.859579,-0,274.91999,383.24705)"/>
<use data-text="2" xlink:href="#font_4_21" transform="matrix(0,-13.859579,-13.859579,-0,274.91999,375.5411)"/>
<use data-text="8" xlink:href="#font_4_27" transform="matrix(0,-13.859579,-13.859579,-0,274.91999,367.8352)"/>
</g>
<g inkscape:groupmode="layer" inkscape:label="Hole Notes">
<use data-text="3" xlink:href="#font_4_22" transform="matrix(13.859579,0,0,-13.859579,621.72,368.8)"/>
<use data-text="x" xlink:href="#font_4_91" transform="matrix(13.859579,0,0,-13.859579,629.4259,368.8)"/>
<use data-text=" " xlink:href="#font_4_3" transform="matrix(13.859579,0,0,-13.859579,636.35568,368.8)"/>
<use data-text="M" xlink:href="#font_4_48" transform="matrix(13.859579,0,0,-13.859579,640.2,368.8)"/>
<use data-text="3" xlink:href="#font_4_22" transform="matrix(13.859579,0,0,-13.859579,651.745,368.8)"/>
<use data-text="x" xlink:href="#font_4_91" transform="matrix(13.859579,0,0,-13.859579,659.4509,368.8)"/>
<use data-text="0" xlink:href="#font_4_19" transform="matrix(13.859579,0,0,-13.859579,666.3807,368.8)"/>
<use data-text="." xlink:href="#font_4_17" transform="matrix(13.859579,0,0,-13.859579,674.08657,368.8)"/>
<use data-text="5" xlink:href="#font_4_24" transform="matrix(13.859579,0,0,-13.859579,677.9395,368.8)"/>
<use data-text=" " xlink:href="#font_4_3" transform="matrix(13.859579,0,0,-13.859579,685.62,368.8)"/>
<use data-text="6" xlink:href="#font_4_25" transform="matrix(13.859579,0,0,-13.859579,689.51998,368.8)"/>
<use data-text="H" xlink:href="#font_4_43" transform="matrix(13.859579,0,0,-13.859579,697.2259,368.8)"/>
<use data-text=" " xlink:href="#font_4_3" transform="matrix(13.859579,0,0,-13.859579,707.22,368.8)"/>
<use data-text="x" xlink:href="#font_4_91" transform="matrix(13.859579,0,0,-13.859579,711.07296,368.8)"/>
<use data-text=" " xlink:href="#font_4_3" transform="matrix(13.859579,0,0,-13.859579,718.0027,368.8)"/>
<use data-text="." xlink:href="#font_4_17" transform="matrix(13.859579,0,0,-13.859579,721.86,368.8)"/>
<use data-text="0" xlink:href="#font_4_19" transform="matrix(13.859579,0,0,-13.859579,725.71298,368.8)"/>
<use data-text="8" xlink:href="#font_4_27" transform="matrix(13.859579,0,0,-13.859579,733.4188,368.8)"/>
<use data-text="7" xlink:href="#font_4_26" transform="matrix(13.859579,0,0,-13.859579,741.12478,368.8)"/>
<use data-text="8" xlink:href="#font_4_27" transform="matrix(13.859579,0,0,-13.859579,748.8306,368.8)"/>
<use data-text="/" xlink:href="#font_4_18" transform="matrix(13.859579,0,0,-13.859579,756.54,368.8)"/>
<use data-text="." xlink:href="#font_4_17" transform="matrix(13.859579,0,0,-13.859579,760.38,368.8)"/>
<use data-text="0" xlink:href="#font_4_19" transform="matrix(13.859579,0,0,-13.859579,764.2329,368.8)"/>
<use data-text="8" xlink:href="#font_4_27" transform="matrix(13.859579,0,0,-13.859579,771.93887,368.8)"/>
<use data-text="7" xlink:href="#font_4_26" transform="matrix(13.859579,0,0,-13.859579,779.6447,368.8)"/>
<use data-text="8" xlink:href="#font_4_27" transform="matrix(13.859579,0,0,-13.859579,787.35067,368.8)"/>
<path transform="matrix(.06,0,0,-.06,0,595)" d="M9790 3322 9651 3229 9753 3362Z"/>
<path transform="matrix(.06,0,0,-.06,0,595)" stroke-linecap="round" stroke-miterlimit="10" stroke-linejoin="miter" fill="none" stroke="#000000" d="M9790 3322 9651 3229 9753 3362Z"/>
<path transform="matrix(.06,0,0,-.06,0,595)" stroke-width="9" stroke-linecap="round" stroke-linejoin="round" fill="none" stroke="#000000" d="M9772 3342 10196 3737H10362 13231"/>
</g>
<g inkscape:groupmode="layer" inkscape:label="FD_Dimensions">
<path transform="matrix(.06,0,0,-.06,0,595)" stroke-width="9" stroke-linecap="round" stroke-linejoin="round" fill="none" stroke="#000000" d="M8370 5828 7626 5310"/>
<path transform="matrix(.06,0,0,-.06,0,595)" stroke-width="9" stroke-linecap="round" stroke-linejoin="round" fill="none" stroke="#000000" d="M7107 4948 6971 4854"/>
<use data-text="&#x00d8;" xlink:href="#font_4_145" transform="matrix(11.374002,-7.9195029,-7.9195029,-11.374002,466.02,265.18)"/>
<use data-text="." xlink:href="#font_4_17" transform="matrix(11.374002,-7.9195029,-7.9195029,-11.374002,474.86897,259.01866)"/>
<use data-text="1" xlink:href="#font_4_20" transform="matrix(11.374002,-7.9195029,-7.9195029,-11.374002,478.03096,256.81703)"/>
<use data-text="2" xlink:href="#font_4_21" transform="matrix(11.374002,-7.9195029,-7.9195029,-11.374002,484.3549,252.41379)"/>
<use data-text="6" xlink:href="#font_4_25" transform="matrix(11.374002,-7.9195029,-7.9195029,-11.374002,490.6788,248.01056)"/>
<path transform="matrix(.06,0,0,-.06,0,595)" stroke-width="9" stroke-linecap="round" stroke-linejoin="round" fill="none" stroke="#000000" d="M7242 5043 7491 5216"/>
<path transform="matrix(.06,0,0,-.06,0,595)" d="M7091 4971 7122 4926 7242 5043Z"/>
<path transform="matrix(.06,0,0,-.06,0,595)" stroke-linecap="round" stroke-miterlimit="10" stroke-linejoin="miter" fill="none" stroke="#000000" d="M7091 4971 7122 4926 7242 5043Z"/>
<path transform="matrix(.06,0,0,-.06,0,595)" d="M7610 5333 7642 5287 7491 5216Z"/>
<path transform="matrix(.06,0,0,-.06,0,595)" stroke-linecap="round" stroke-miterlimit="10" stroke-linejoin="miter" fill="none" stroke="#000000" d="M7610 5333 7642 5287 7491 5216Z"/>
</g>
</g>
</svg>
